<svg width="80" height="261" viewBox="0 0 80 261" fill="none" xmlns="http://www.w3.org/2000/svg">
<rect x="26.771" y="21.6918" width="27" height="44" fill="#F1F2EE"/>
<path d="M5.771 8.69182C5.771 4.27354 9.35272 0.691822 13.771 0.691822L65.771 0.691822C70.1893 0.691822 73.771 4.27354 73.771 8.69182V13.6918C73.771 18.1101 70.1893 21.6918 65.771 21.6918L13.771 21.6918C9.35272 21.6918 5.771 18.1101 5.771 13.6918L5.771 8.69182Z" fill="#FFC700"/>
<path d="M0.770996 98.1918C0.770996 76.3766 18.4557 58.6918 40.271 58.6918V58.6918C62.0862 58.6918 79.771 76.3766 79.771 98.1918L79.771 260.692H0.770996L0.770996 98.1918Z" fill="#FFC700"/>
<path fill-rule="evenodd" clip-rule="evenodd" d="M49.4376 142.442L40.7709 124.692L31.8667 142.442L12.0581 142.442L22.3971 161.319L14.0581 177.942L31.5015 177.942L41.771 196.692L50.6579 177.942H66.7709L58.5947 161.196L67.4837 142.442H49.4376ZM49.4376 142.442H31.8667L22.3971 161.319L31.5015 177.942L50.6579 177.942L58.5947 161.196L49.4376 142.442Z" fill="#090505" fill-opacity="0.55"/>
</svg>
