<svg width="400" height="124" viewBox="0 0 400 124" fill="none" xmlns="http://www.w3.org/2000/svg">
<path d="M44.2221 56.734C45.6301 56.606 46.5901 56.542 47.1021 56.542C47.6141 56.542 48.4461 56.638 49.5981 56.83C49.5341 58.75 49.5021 61.182 49.5021 64.126C49.5021 67.07 49.5341 69.246 49.5981 70.654C48.6381 70.846 47.7101 70.942 46.8141 70.942C45.9181 70.942 45.0541 70.878 44.2221 70.75L43.9341 67.39C40.4781 67.262 37.8221 67.198 35.9661 67.198C34.1101 67.198 31.3901 67.262 27.8061 67.39C27.9341 77.118 28.2221 84.382 28.6701 89.182L33.9501 89.566L34.1421 91.87C34.1421 92.894 34.0461 93.886 33.8541 94.846C32.1901 94.782 29.1821 94.75 24.8301 94.75C20.5421 94.75 17.7261 94.782 16.3821 94.846C16.1901 93.886 16.0941 92.99 16.0941 92.158C16.0941 91.262 16.1581 90.366 16.2861 89.47L19.8381 89.182C20.3501 82.91 20.6061 74.846 20.6061 64.99C20.6061 55.134 20.2221 46.462 19.4541 38.974L16.1901 38.686C16.0621 37.854 15.9981 36.99 15.9981 36.094C15.9981 35.198 16.0941 34.27 16.2861 33.31C17.8861 33.374 23.5821 33.406 33.3741 33.406C43.1661 33.406 49.5021 33.118 52.3821 32.542L52.8621 33.022C52.3501 38.654 52.0621 43.198 51.9981 46.654C51.3581 46.718 50.5581 46.75 49.5981 46.75C48.6381 46.75 47.6461 46.654 46.6221 46.462L46.3341 39.934C43.0701 39.742 39.8701 39.646 36.7341 39.646C33.6621 39.646 30.8781 39.742 28.3821 39.934C27.9981 44.158 27.8061 51.102 27.8061 60.766H32.5101C36.0301 60.766 39.8381 60.638 43.9341 60.382L44.2221 56.734ZM62.5116 89.182C63.0876 82.782 63.3756 76.926 63.3756 71.614C63.3756 66.238 63.1196 60.926 62.6076 55.678L59.0556 55.39C58.8636 54.366 58.7676 53.31 58.7676 52.222C58.7676 51.134 58.7996 50.398 58.8636 50.014C62.1276 49.95 66.0956 49.662 70.7676 49.15L71.2476 49.63C71.1836 50.014 70.9916 51.902 70.6716 55.294C72.1436 53.438 73.8396 51.902 75.7596 50.686C77.7436 49.47 79.6636 48.862 81.5196 48.862C83.4396 48.862 85.1036 49.534 86.5116 50.878C87.9196 52.222 88.6236 53.982 88.6236 56.158C88.6236 59.742 87.1196 61.534 84.1116 61.534C82.3836 61.534 81.0076 60.99 79.9836 59.902C78.9596 58.75 78.4476 57.246 78.4476 55.39C78.3196 55.326 78.0956 55.294 77.7756 55.294C75.4076 55.294 72.9756 57.086 70.4796 60.67C70.4156 62.462 70.3836 66.494 70.3836 72.766C70.3836 78.974 70.6716 84.446 71.2476 89.182L74.7996 89.47C74.9276 90.878 74.9916 91.87 74.9916 92.446C74.9916 92.958 74.8956 93.758 74.7036 94.846C72.9116 94.782 70.2876 94.75 66.8316 94.75C63.3756 94.75 60.8476 94.782 59.2476 94.846C59.0556 93.886 58.9596 92.99 58.9596 92.158C58.9596 91.262 59.0236 90.366 59.1516 89.47L62.5116 89.182ZM93.2968 71.998C93.2968 56.574 99.3128 48.862 111.345 48.862C123.377 48.862 129.393 56.574 129.393 71.998C129.393 79.102 128.273 84.734 126.033 88.894C123.473 93.758 118.577 96.19 111.345 96.19C104.113 96.19 99.2168 93.758 96.6568 88.894C94.4168 84.734 93.2968 79.102 93.2968 71.998ZM101.169 71.806C101.169 83.454 104.561 89.278 111.345 89.278C118.129 89.278 121.521 83.454 121.521 71.806C121.521 60.094 118.129 54.238 111.345 54.238C104.561 54.238 101.169 60.094 101.169 71.806ZM176.224 61.15L176.128 70.462C176.128 77.182 176.512 83.422 177.28 89.182L180.64 89.47C180.768 90.878 180.832 91.87 180.832 92.446C180.832 92.958 180.736 93.758 180.544 94.846C178.752 94.782 176.064 94.75 172.48 94.75C168.896 94.75 166.336 94.782 164.8 94.846C164.608 93.886 164.512 92.99 164.512 92.158C164.512 91.262 164.576 90.366 164.704 89.47L168.064 89.182C168.576 81.694 168.832 75.294 168.832 69.982C168.832 64.606 168.288 60.766 167.2 58.462C166.176 56.158 164.384 55.006 161.824 55.006C158.368 55.006 154.56 57.086 150.4 61.246C150.336 62.91 150.304 66.814 150.304 72.958C150.304 79.038 150.592 84.446 151.168 89.182L154.72 89.47C154.848 90.878 154.912 91.87 154.912 92.446C154.912 92.958 154.816 93.758 154.624 94.846C152.832 94.782 150.208 94.75 146.752 94.75C143.296 94.75 140.768 94.782 139.168 94.846C138.976 93.886 138.88 92.99 138.88 92.158C138.88 91.262 138.944 90.366 139.072 89.47L142.432 89.182C143.008 82.782 143.296 76.926 143.296 71.614C143.296 66.238 143.04 60.926 142.528 55.678L138.976 55.39C138.784 54.302 138.688 53.246 138.688 52.222C138.688 51.134 138.72 50.398 138.784 50.014C142.048 49.95 146.016 49.662 150.688 49.15L151.168 49.63C151.04 50.398 150.848 52.318 150.592 55.39C152.576 53.406 154.88 51.838 157.504 50.686C160.128 49.47 162.592 48.862 164.896 48.862C172.448 48.862 176.224 52.958 176.224 61.15ZM192.083 79.198C192.083 79.198 192.147 72.062 192.275 57.79C192.275 56.83 192.243 56.094 192.179 55.582C189.491 55.582 187.571 55.614 186.419 55.678C186.035 54.654 185.843 53.662 185.843 52.702C185.843 51.678 185.907 50.91 186.035 50.398H191.891L191.411 43.294C193.011 42.782 194.675 42.526 196.403 42.526C198.195 42.526 199.667 42.654 200.819 42.91L199.955 50.302C203.475 50.238 207.027 50.046 210.611 49.726C210.995 50.558 211.187 51.486 211.187 52.51C211.187 53.47 211.059 54.654 210.803 56.062C208.435 55.934 204.691 55.806 199.571 55.678C199.443 56.958 199.379 58.846 199.379 61.342V80.83C199.379 82.494 199.443 83.87 199.571 84.958C199.763 85.982 200.179 86.942 200.819 87.838C201.523 88.67 202.515 89.086 203.795 89.086C206.611 89.086 209.299 88.094 211.859 86.11C213.203 88.03 213.875 90.622 213.875 93.886C210.355 95.422 207.283 96.19 204.659 96.19C202.099 96.19 200.051 95.838 198.515 95.134C196.979 94.494 195.795 93.726 194.963 92.83C194.131 91.87 193.491 90.558 193.043 88.894C192.403 86.526 192.083 83.294 192.083 79.198Z" fill="#207F86"/>
<path d="M313.032 72.478V59.326C313.032 47.806 312.872 39.966 312.552 35.806L308.712 35.518C308.52 34.686 308.424 33.726 308.424 32.638C308.424 31.486 308.456 30.654 308.52 30.142C314.344 29.822 318.504 29.534 321 29.278L321.384 29.758C320.488 37.374 320.04 45.566 320.04 54.334V70.174C320.04 78.046 320.328 84.382 320.904 89.182L324.456 89.47C324.584 90.494 324.648 91.39 324.648 92.158C324.648 92.862 324.552 93.758 324.36 94.846C322.12 94.782 319.528 94.75 316.584 94.75C313.64 94.75 311.08 94.782 308.904 94.846C308.712 93.886 308.616 93.054 308.616 92.35C308.616 91.582 308.68 90.622 308.808 89.47L312.168 89.182C312.744 83.166 313.032 77.598 313.032 72.478ZM337.22 72.478V59.326C337.22 47.806 337.06 39.966 336.74 35.806L332.9 35.518C332.708 34.686 332.612 33.726 332.612 32.638C332.612 31.486 332.644 30.654 332.708 30.142C338.532 29.822 342.692 29.534 345.188 29.278L345.572 29.758C344.676 37.374 344.228 45.566 344.228 54.334V70.174C344.228 78.046 344.516 84.382 345.092 89.182L348.644 89.47C348.772 90.494 348.836 91.39 348.836 92.158C348.836 92.862 348.74 93.758 348.548 94.846C346.308 94.782 343.716 94.75 340.772 94.75C337.828 94.75 335.268 94.782 333.092 94.846C332.9 93.886 332.804 93.054 332.804 92.35C332.804 91.582 332.868 90.622 332.996 89.47L336.356 89.182C336.932 83.166 337.22 77.598 337.22 72.478ZM377.823 55.294C377.695 54.654 377.631 53.822 377.631 52.798C377.631 51.71 377.727 50.75 377.919 49.918C379.839 49.982 382.495 50.014 385.887 50.014C389.343 50.014 391.999 49.982 393.855 49.918C394.047 50.75 394.143 51.646 394.143 52.606C394.143 53.566 394.079 54.462 393.951 55.294L391.071 55.582C389.343 60.254 387.103 66.686 384.351 74.878C381.663 83.07 379.615 89.086 378.207 92.926C376.863 96.766 375.583 99.87 374.367 102.238C373.215 104.606 371.935 106.846 370.527 108.958C367.839 112.926 364.639 114.91 360.927 114.91C357.279 114.91 353.919 113.886 350.847 111.838C351.103 108.126 352.159 105.47 354.015 103.87C355.935 106.494 358.271 107.806 361.023 107.806C363.967 107.806 367.231 103.646 370.815 95.326C367.551 83.87 362.399 70.622 355.359 55.582L352.191 55.294C352.063 54.526 351.999 53.662 351.999 52.702C351.999 51.678 352.095 50.75 352.287 49.918C354.143 49.982 356.895 50.014 360.543 50.014C364.255 50.014 367.071 49.982 368.991 49.918C369.183 50.75 369.279 51.678 369.279 52.702C369.279 53.662 369.215 54.526 369.087 55.294L365.151 55.582C366.367 62.686 369.503 72.19 374.559 84.094H374.943C378.143 73.726 380.447 64.222 381.855 55.582L377.823 55.294Z" fill="#207F86"/>
<g style="mix-blend-mode:hard-light" filter="url(#filter0_f_315_239)">
<path d="M248.761 37.128L242.442 38.7078L243.583 43.2715L248.274 43.6233L248.761 37.128ZM248.569 31.752L247.761 25.2888L242.942 25.8911L242.144 30.6812L248.569 31.752ZM268.153 31.656L274.614 30.8312L274.096 26.771L270.213 25.4767L268.153 31.656ZM284.185 87.432L278.064 89.6592L279.493 93.5865L283.658 93.9242L284.185 87.432ZM287.737 87.72L294.224 87.1303L293.727 81.6708L288.263 81.2278L287.737 87.72ZM287.641 93.096L287.408 99.6054L293.071 99.8076L294.055 94.228L287.641 93.096ZM271.417 93.096L265.03 94.3734L266.124 99.8458L271.7 99.6034L271.417 93.096ZM271.321 87.72L270.764 81.2303L265.605 81.6725L264.873 86.7988L271.321 87.72ZM274.681 87.432L275.237 93.9217L282.555 93.2944L281.057 86.1035L274.681 87.432ZM273.145 80.808L266.81 82.3229L266.814 82.3388L266.818 82.3547L273.145 80.808ZM271.993 75.912L278.38 74.6346L277.388 69.6734L272.335 69.4075L271.993 75.912ZM248.185 76.008L247.737 69.5099L242.945 69.8404L241.844 74.5161L248.185 76.008ZM245.497 87.432L239.156 85.9401L237.418 93.328L244.984 93.9253L245.497 87.432ZM249.145 87.72L255.632 87.1303L255.134 81.659L249.657 81.2267L249.145 87.72ZM249.049 93.096L248.778 99.6039L254.473 99.8412L255.463 94.228L249.049 93.096ZM234.169 93.096L227.782 94.3734L228.878 99.8567L234.465 99.6028L234.169 93.096ZM234.073 87.72L233.516 81.2303L228.357 81.6725L227.625 86.7988L234.073 87.72ZM237.433 87.432L237.989 93.9217L242.128 93.5669L243.552 89.6639L237.433 87.432ZM252.601 37.416L258.99 38.6806L260.417 31.4704L253.088 30.9207L252.601 37.416ZM249.913 69.288L243.602 67.6767L241.589 75.5595L249.721 75.7987L249.913 69.288ZM270.265 69.096L270.729 75.593L278.569 75.033L276.562 67.4331L270.265 69.096ZM260.761 37.512L266.919 35.3912L265.407 30.9985H260.761V37.512ZM260.185 37.512V30.9985H255.826L254.164 35.0277L260.185 37.512ZM255.08 35.5482C255.08 35.5508 255.073 35.5225 255.063 35.4581C255.052 35.3942 255.04 35.3028 255.028 35.1806C255.004 34.9325 254.986 34.5942 254.986 34.152H241.959C241.959 35.6489 242.071 37.2256 242.442 38.7078L255.08 35.5482ZM254.986 34.152C254.986 33.5913 254.994 33.1815 255.005 32.9003C255.011 32.7608 255.016 32.6795 255.019 32.6444C255.023 32.5948 255.019 32.671 254.994 32.8228L242.144 30.6812C241.976 31.6909 241.959 33.0438 241.959 34.152H254.986ZM249.377 38.2152C254.959 37.5174 258.818 37.2095 261.145 37.2095V24.1825C257.967 24.1825 253.442 24.5786 247.761 25.2888L249.377 38.2152ZM261.145 37.2095C263.431 37.2095 265.028 37.4802 266.093 37.8353L270.213 25.4767C267.438 24.5517 264.363 24.1825 261.145 24.1825V37.2095ZM261.692 32.4808C263.326 45.2864 268.896 64.4626 278.064 89.6592L290.306 85.2048C281.17 60.0974 276.051 42.0896 274.614 30.8312L261.692 32.4808ZM283.658 93.9242L287.21 94.2122L288.263 81.2278L284.711 80.9398L283.658 93.9242ZM281.25 88.3097C281.378 89.7218 281.415 90.4479 281.415 90.696H294.442C294.442 89.7921 294.351 88.5342 294.224 87.1303L281.25 88.3097ZM281.415 90.696C281.415 90.5896 281.422 90.6335 281.39 90.9039C281.36 91.1505 281.309 91.4983 281.226 91.964L294.055 94.228C294.256 93.0922 294.442 91.816 294.442 90.696H281.415ZM287.873 86.5866C285.958 86.5182 283.077 86.4865 279.289 86.4865V99.5135C283.052 99.5135 285.739 99.5458 287.408 99.6054L287.873 86.5866ZM279.289 86.4865C275.519 86.4865 272.765 86.5177 271.134 86.5886L271.7 99.6034C273.013 99.5463 275.506 99.5135 279.289 99.5135V86.4865ZM277.804 91.8186C277.682 91.2076 277.642 90.7438 277.642 90.408H264.615C264.615 91.7362 264.768 93.0644 265.03 94.3734L277.804 91.8186ZM277.642 90.408C277.642 89.8233 277.684 89.2351 277.769 88.6412L264.873 86.7988C264.702 87.9969 264.615 89.2007 264.615 90.408H277.642ZM271.877 94.2097L275.237 93.9217L274.124 80.9423L270.764 81.2303L271.877 94.2097ZM281.057 86.1035C280.714 84.4565 280.181 82.1623 279.472 79.2613L266.818 82.3547C267.516 85.2137 268.007 87.3355 268.304 88.7605L281.057 86.1035ZM279.48 79.2931C279.128 77.8238 278.858 76.6887 278.669 75.8841C278.574 75.4812 278.501 75.1682 278.449 74.941C278.389 74.6805 278.375 74.609 278.38 74.6346L265.606 77.1894C265.701 77.6654 266.13 79.4782 266.81 82.3229L279.48 79.2931ZM272.335 69.4075C268.556 69.2085 264.472 69.1105 260.089 69.1105V82.1375C264.282 82.1375 268.134 82.2315 271.65 82.4165L272.335 69.4075ZM260.089 69.1105C255.735 69.1105 251.616 69.2423 247.737 69.5099L248.633 82.5061C252.177 82.2617 255.995 82.1375 260.089 82.1375V69.1105ZM241.844 74.5161L239.156 85.9401L251.837 88.9239L254.525 77.4999L241.844 74.5161ZM244.984 93.9253L248.632 94.2133L249.657 81.2267L246.009 80.9387L244.984 93.9253ZM242.658 88.3097C242.786 89.7218 242.823 90.4479 242.823 90.696H255.85C255.85 89.7921 255.759 88.5342 255.632 87.1303L242.658 88.3097ZM242.823 90.696C242.823 90.5896 242.83 90.6335 242.798 90.9039C242.768 91.1505 242.717 91.4983 242.634 91.964L255.463 94.228C255.664 93.0922 255.85 91.816 255.85 90.696H242.823ZM249.32 86.5881C247.637 86.518 244.99 86.4865 241.465 86.4865V99.5135C244.979 99.5135 247.389 99.546 248.778 99.6039L249.32 86.5881ZM241.465 86.4865C238.011 86.4865 235.445 86.5177 233.873 86.5892L234.465 99.6028C235.709 99.5463 238.007 99.5135 241.465 99.5135V86.4865ZM240.556 91.8186C240.434 91.2076 240.394 90.7438 240.394 90.408H227.367C227.367 91.7362 227.52 93.0644 227.782 94.3734L240.556 91.8186ZM240.394 90.408C240.394 89.8233 240.436 89.2351 240.521 88.6412L227.625 86.7988C227.454 87.9969 227.367 89.2007 227.367 90.408H240.394ZM234.629 94.2097L237.989 93.9217L236.876 80.9423L233.516 81.2303L234.629 94.2097ZM243.552 89.6639C251.272 68.4973 256.461 51.458 258.99 38.6806L246.211 36.1514C243.876 47.95 238.953 64.2547 231.314 85.2001L243.552 89.6639ZM253.088 30.9207L249.248 30.6327L248.274 43.6233L252.114 43.9113L253.088 30.9207ZM249.721 75.7987C251.997 75.8656 255.339 75.8975 259.705 75.8975V62.8705C255.367 62.8705 252.181 62.8384 250.104 62.7773L249.721 75.7987ZM259.705 75.8975C264.13 75.8975 267.822 75.8006 270.729 75.593L269.801 62.599C267.331 62.7754 263.983 62.8705 259.705 62.8705V75.8975ZM276.562 67.4331C273.52 55.9095 270.306 45.2267 266.919 35.3912L254.602 39.6328C257.871 49.1253 260.994 59.4985 263.967 70.7589L276.562 67.4331ZM260.761 30.9985H260.185V44.0255H260.761V30.9985ZM254.164 35.0277C250.245 44.5241 246.731 55.4184 243.602 67.6767L256.224 70.8993C259.238 59.0936 262.572 48.8038 266.206 39.9963L254.164 35.0277Z" fill="#00A8A8"/>
</g>
<g style="mix-blend-mode:hard-light" filter="url(#filter1_f_315_239)">
<path d="M248.761 37.128L240.497 39.1938L241.989 45.1618L248.124 45.6219L248.761 37.128ZM248.569 31.752L247.512 23.3001L241.211 24.0877L240.167 30.3517L248.569 31.752ZM268.153 31.656L276.602 30.5774L275.924 25.268L270.846 23.5754L268.153 31.656ZM284.185 87.432L276.18 90.3445L278.049 95.4802L283.496 95.9218L284.185 87.432ZM287.737 87.72L296.219 86.9488L295.57 79.8095L288.425 79.2302L287.737 87.72ZM287.641 93.096L287.337 101.608L294.741 101.873L296.029 94.5763L287.641 93.096ZM271.417 93.096L263.064 94.7665L264.496 101.923L271.787 101.606L271.417 93.096ZM271.321 87.72L270.593 79.2334L263.846 79.8117L262.889 86.5154L271.321 87.72ZM274.681 87.432L275.408 95.9186L284.978 95.0983L283.019 85.6948L274.681 87.432ZM273.145 80.808L264.861 82.789L264.866 82.8098L264.871 82.8306L273.145 80.808ZM271.993 75.912L280.345 74.2416L279.048 67.7538L272.44 67.4061L271.993 75.912ZM248.185 76.008L247.599 67.5105L241.332 67.9427L239.893 74.0571L248.185 76.008ZM245.497 87.432L237.205 85.4811L234.932 95.1422L244.826 95.9233L245.497 87.432ZM249.145 87.72L257.627 86.9488L256.977 79.7941L249.815 79.2287L249.145 87.72ZM249.049 93.096L248.694 101.606L256.141 101.917L257.437 94.5763L249.049 93.096ZM234.169 93.096L225.816 94.7665L227.251 101.937L234.556 101.605L234.169 93.096ZM234.073 87.72L233.345 79.2334L226.598 79.8117L225.641 86.5154L234.073 87.72ZM237.433 87.432L238.16 95.9186L243.573 95.4546L245.435 90.3507L237.433 87.432ZM252.601 37.416L260.956 39.0697L262.822 29.641L253.238 28.9221L252.601 37.416ZM249.913 69.288L241.66 67.1809L239.028 77.4892L249.662 77.802L249.913 69.288ZM270.265 69.096L270.872 77.5921L281.124 76.8597L278.5 66.9215L270.265 69.096ZM260.761 37.512L268.814 34.7386L266.836 28.9943H260.761V37.512ZM260.185 37.512V28.9943H254.485L252.311 34.2633L260.185 37.512ZM257.024 35.0622C257.053 35.1762 257.04 35.1659 257.023 34.9875C257.006 34.8157 256.99 34.5431 256.99 34.152H239.955C239.955 35.7353 240.072 37.492 240.497 39.1938L257.024 35.0622ZM256.99 34.152C256.99 33.6059 256.998 33.2251 257.008 32.9804C257.01 32.9228 257.012 32.8792 257.014 32.8482C257.016 32.8167 257.017 32.8037 257.017 32.8064C257.016 32.808 257.014 32.8365 257.008 32.8866C257.003 32.934 256.992 33.0267 256.971 33.1523L240.167 30.3517C239.967 31.5539 239.955 33.077 239.955 34.152H256.99ZM249.625 40.2039C255.193 39.508 258.949 39.2137 261.145 39.2137V22.1783C257.836 22.1783 253.209 22.588 247.512 23.3001L249.625 40.2039ZM261.145 39.2137C263.288 39.2137 264.657 39.4692 265.459 39.7366L270.846 23.5754C267.808 22.5627 264.506 22.1783 261.145 22.1783V39.2137ZM259.704 32.7346C261.369 45.7782 267.007 65.1342 276.18 90.3445L292.189 84.5195C283.058 59.4258 278.009 41.5978 276.602 30.5774L259.704 32.7346ZM283.496 95.9218L287.048 96.2098L288.425 79.2302L284.873 78.9422L283.496 95.9218ZM279.254 88.4912C279.314 89.1491 279.355 89.6704 279.381 90.0684C279.393 90.2661 279.401 90.4193 279.406 90.5334C279.411 90.6519 279.411 90.7006 279.411 90.696H296.446C296.446 89.6912 296.347 88.3515 296.219 86.9488L279.254 88.4912ZM279.411 90.696C279.411 90.5681 279.417 90.5004 279.416 90.5124C279.415 90.5198 279.411 90.5681 279.4 90.6651C279.376 90.8644 279.331 91.174 279.253 91.6157L296.029 94.5763C296.232 93.4258 296.446 92.003 296.446 90.696H279.411ZM287.945 84.5837C285.992 84.514 283.081 84.4823 279.289 84.4823V101.518C283.048 101.518 285.705 101.55 287.337 101.608L287.945 84.5837ZM279.289 84.4823C275.521 84.4823 272.726 84.5133 271.047 84.5863L271.787 101.606C273.051 101.551 275.504 101.518 279.289 101.518V84.4823ZM279.769 91.4255C279.668 90.922 279.646 90.5911 279.646 90.408H262.611C262.611 91.8889 262.781 93.35 263.064 94.7665L279.769 91.4255ZM279.646 90.408C279.646 89.9191 279.681 89.4256 279.753 88.9246L262.889 86.5154C262.704 87.8064 262.611 89.1049 262.611 90.408H279.646ZM272.048 96.2066L275.408 95.9186L273.953 78.9454L270.593 79.2334L272.048 96.2066ZM283.019 85.6948C282.669 84.0136 282.13 81.6929 281.419 78.7854L264.871 82.8306C265.568 85.6831 266.052 87.7784 266.342 89.1692L283.019 85.6948ZM281.429 78.827C281.078 77.3585 280.809 76.2261 280.62 75.4251C280.41 74.5343 280.342 74.2239 280.345 74.2416L263.64 77.5824C263.745 78.1064 264.188 79.9748 264.861 82.789L281.429 78.827ZM272.44 67.4061C268.62 67.205 264.501 67.1063 260.089 67.1063V84.1417C264.252 84.1417 268.069 84.235 271.545 84.4179L272.44 67.4061ZM260.089 67.1063C255.695 67.1063 251.53 67.2394 247.599 67.5105L248.771 84.5055C252.264 84.2646 256.035 84.1417 260.089 84.1417V67.1063ZM239.893 74.0571L237.205 85.4811L253.788 89.3829L256.476 77.9589L239.893 74.0571ZM244.826 95.9233L248.474 96.2113L249.815 79.2287L246.167 78.9407L244.826 95.9233ZM240.662 88.4912C240.722 89.1491 240.763 89.6704 240.789 90.0684C240.801 90.2661 240.809 90.4193 240.814 90.5334C240.819 90.6519 240.819 90.7006 240.819 90.696H257.854C257.854 89.6912 257.755 88.3515 257.627 86.9488L240.662 88.4912ZM240.819 90.696C240.819 90.5681 240.825 90.5004 240.824 90.5124C240.823 90.5198 240.819 90.5681 240.808 90.6652C240.784 90.8644 240.739 91.174 240.661 91.6157L257.437 94.5763C257.64 93.4258 257.854 92.003 257.854 90.696H240.819ZM249.403 84.5857C247.675 84.5136 244.992 84.4823 241.465 84.4823V101.518C244.977 101.518 247.351 101.55 248.694 101.606L249.403 84.5857ZM241.465 84.4823C238.011 84.4823 235.404 84.5133 233.782 84.5871L234.556 101.605C235.749 101.551 238.006 101.518 241.465 101.518V84.4823ZM242.521 91.4255C242.42 90.922 242.398 90.5911 242.398 90.408H225.363C225.363 91.8889 225.533 93.35 225.816 94.7665L242.521 91.4255ZM242.398 90.408C242.398 89.9191 242.433 89.4256 242.505 88.9246L225.641 86.5154C225.456 87.8064 225.363 89.1049 225.363 90.408H242.398ZM234.8 96.2066L238.16 95.9186L236.705 78.9454L233.345 79.2334L234.8 96.2066ZM245.435 90.3507C253.168 69.15 258.398 51.9977 260.956 39.0697L244.245 35.7623C241.94 47.4103 237.058 63.602 229.431 84.5133L245.435 90.3507ZM253.238 28.9221L249.398 28.6341L248.124 45.6219L251.964 45.9098L253.238 28.9221ZM249.662 77.802C251.968 77.8698 255.334 77.9017 259.705 77.9017V60.8663C255.371 60.8663 252.209 60.8342 250.163 60.774L249.662 77.802ZM259.705 77.9017C264.153 77.9017 267.898 77.8045 270.872 77.5921L269.658 60.5999C267.256 60.7715 263.961 60.8663 259.705 60.8663V77.9017ZM278.5 66.9215C275.447 55.3574 272.22 44.627 268.814 34.7386L252.707 40.2854C255.958 49.725 259.067 60.0506 262.029 71.2705L278.5 66.9215ZM260.761 28.9943H260.185V46.0297H260.761V28.9943ZM252.311 34.2633C248.349 43.8657 244.807 54.8529 241.66 67.1809L258.166 71.3951C261.162 59.6591 264.468 49.4623 268.059 40.7607L252.311 34.2633Z" fill="#00A8A8"/>
</g>
<g style="mix-blend-mode:hard-light" filter="url(#filter2_ddi_315_239)">
<path d="M248.761 37.128L242.442 38.7078L243.583 43.2715L248.274 43.6233L248.761 37.128ZM248.569 31.752L247.761 25.2888L242.942 25.8911L242.144 30.6812L248.569 31.752ZM268.153 31.656L274.614 30.8312L274.096 26.771L270.213 25.4767L268.153 31.656ZM284.185 87.432L278.064 89.6592L279.493 93.5865L283.658 93.9242L284.185 87.432ZM287.737 87.72L294.224 87.1303L293.727 81.6708L288.263 81.2278L287.737 87.72ZM287.641 93.096L287.408 99.6054L293.071 99.8076L294.055 94.228L287.641 93.096ZM271.417 93.096L265.03 94.3734L266.124 99.8458L271.7 99.6034L271.417 93.096ZM271.321 87.72L270.764 81.2303L265.605 81.6725L264.873 86.7988L271.321 87.72ZM274.681 87.432L275.237 93.9217L282.555 93.2944L281.057 86.1035L274.681 87.432ZM273.145 80.808L266.81 82.3229L266.814 82.3388L266.818 82.3547L273.145 80.808ZM271.993 75.912L278.38 74.6346L277.388 69.6734L272.335 69.4075L271.993 75.912ZM248.185 76.008L247.737 69.5099L242.945 69.8404L241.844 74.5161L248.185 76.008ZM245.497 87.432L239.156 85.9401L237.418 93.328L244.984 93.9253L245.497 87.432ZM249.145 87.72L255.632 87.1303L255.134 81.659L249.657 81.2267L249.145 87.72ZM249.049 93.096L248.778 99.6039L254.473 99.8412L255.463 94.228L249.049 93.096ZM234.169 93.096L227.782 94.3734L228.878 99.8567L234.465 99.6028L234.169 93.096ZM234.073 87.72L233.516 81.2303L228.357 81.6725L227.625 86.7988L234.073 87.72ZM237.433 87.432L237.989 93.9217L242.128 93.5669L243.552 89.6639L237.433 87.432ZM252.601 37.416L258.99 38.6806L260.417 31.4704L253.088 30.9207L252.601 37.416ZM249.913 69.288L243.602 67.6767L241.589 75.5595L249.721 75.7987L249.913 69.288ZM270.265 69.096L270.729 75.593L278.569 75.033L276.562 67.4331L270.265 69.096ZM260.761 37.512L266.919 35.3912L265.407 30.9985H260.761V37.512ZM260.185 37.512V30.9985H255.826L254.164 35.0277L260.185 37.512ZM255.08 35.5482C255.08 35.5508 255.073 35.5225 255.063 35.4581C255.052 35.3942 255.04 35.3028 255.028 35.1806C255.004 34.9325 254.986 34.5942 254.986 34.152H241.959C241.959 35.6489 242.071 37.2256 242.442 38.7078L255.08 35.5482ZM254.986 34.152C254.986 33.5913 254.994 33.1815 255.005 32.9003C255.011 32.7608 255.016 32.6795 255.019 32.6444C255.023 32.5948 255.019 32.671 254.994 32.8228L242.144 30.6812C241.976 31.6909 241.959 33.0438 241.959 34.152H254.986ZM249.377 38.2152C254.959 37.5174 258.818 37.2095 261.145 37.2095V24.1825C257.967 24.1825 253.442 24.5786 247.761 25.2888L249.377 38.2152ZM261.145 37.2095C263.431 37.2095 265.028 37.4802 266.093 37.8353L270.213 25.4767C267.438 24.5517 264.363 24.1825 261.145 24.1825V37.2095ZM261.692 32.4808C263.326 45.2864 268.896 64.4626 278.064 89.6592L290.306 85.2048C281.17 60.0974 276.051 42.0896 274.614 30.8312L261.692 32.4808ZM283.658 93.9242L287.21 94.2122L288.263 81.2278L284.711 80.9398L283.658 93.9242ZM281.25 88.3097C281.378 89.7218 281.415 90.4479 281.415 90.696H294.442C294.442 89.7921 294.351 88.5342 294.224 87.1303L281.25 88.3097ZM281.415 90.696C281.415 90.5896 281.422 90.6335 281.39 90.9039C281.36 91.1505 281.309 91.4983 281.226 91.964L294.055 94.228C294.256 93.0922 294.442 91.816 294.442 90.696H281.415ZM287.873 86.5866C285.958 86.5182 283.077 86.4865 279.289 86.4865V99.5135C283.052 99.5135 285.739 99.5458 287.408 99.6054L287.873 86.5866ZM279.289 86.4865C275.519 86.4865 272.765 86.5177 271.134 86.5886L271.7 99.6034C273.013 99.5463 275.506 99.5135 279.289 99.5135V86.4865ZM277.804 91.8186C277.682 91.2076 277.642 90.7438 277.642 90.408H264.615C264.615 91.7362 264.768 93.0644 265.03 94.3734L277.804 91.8186ZM277.642 90.408C277.642 89.8233 277.684 89.2351 277.769 88.6412L264.873 86.7988C264.702 87.9969 264.615 89.2007 264.615 90.408H277.642ZM271.877 94.2097L275.237 93.9217L274.124 80.9423L270.764 81.2303L271.877 94.2097ZM281.057 86.1035C280.714 84.4565 280.181 82.1623 279.472 79.2613L266.818 82.3547C267.516 85.2137 268.007 87.3355 268.304 88.7605L281.057 86.1035ZM279.48 79.2931C279.128 77.8238 278.858 76.6887 278.669 75.8841C278.574 75.4812 278.501 75.1682 278.449 74.941C278.389 74.6805 278.375 74.609 278.38 74.6346L265.606 77.1894C265.701 77.6654 266.13 79.4782 266.81 82.3229L279.48 79.2931ZM272.335 69.4075C268.556 69.2085 264.472 69.1105 260.089 69.1105V82.1375C264.282 82.1375 268.134 82.2315 271.65 82.4165L272.335 69.4075ZM260.089 69.1105C255.735 69.1105 251.616 69.2423 247.737 69.5099L248.633 82.5061C252.177 82.2617 255.995 82.1375 260.089 82.1375V69.1105ZM241.844 74.5161L239.156 85.9401L251.837 88.9239L254.525 77.4999L241.844 74.5161ZM244.984 93.9253L248.632 94.2133L249.657 81.2267L246.009 80.9387L244.984 93.9253ZM242.658 88.3097C242.786 89.7218 242.823 90.4479 242.823 90.696H255.85C255.85 89.7921 255.759 88.5342 255.632 87.1303L242.658 88.3097ZM242.823 90.696C242.823 90.5896 242.83 90.6335 242.798 90.9039C242.768 91.1505 242.717 91.4983 242.634 91.964L255.463 94.228C255.664 93.0922 255.85 91.816 255.85 90.696H242.823ZM249.32 86.5881C247.637 86.518 244.99 86.4865 241.465 86.4865V99.5135C244.979 99.5135 247.389 99.546 248.778 99.6039L249.32 86.5881ZM241.465 86.4865C238.011 86.4865 235.445 86.5177 233.873 86.5892L234.465 99.6028C235.709 99.5463 238.007 99.5135 241.465 99.5135V86.4865ZM240.556 91.8186C240.434 91.2076 240.394 90.7438 240.394 90.408H227.367C227.367 91.7362 227.52 93.0644 227.782 94.3734L240.556 91.8186ZM240.394 90.408C240.394 89.8233 240.436 89.2351 240.521 88.6412L227.625 86.7988C227.454 87.9969 227.367 89.2007 227.367 90.408H240.394ZM234.629 94.2097L237.989 93.9217L236.876 80.9423L233.516 81.2303L234.629 94.2097ZM243.552 89.6639C251.272 68.4973 256.461 51.458 258.99 38.6806L246.211 36.1514C243.876 47.95 238.953 64.2547 231.314 85.2001L243.552 89.6639ZM253.088 30.9207L249.248 30.6327L248.274 43.6233L252.114 43.9113L253.088 30.9207ZM249.721 75.7987C251.997 75.8656 255.339 75.8975 259.705 75.8975V62.8705C255.367 62.8705 252.181 62.8384 250.104 62.7773L249.721 75.7987ZM259.705 75.8975C264.13 75.8975 267.822 75.8006 270.729 75.593L269.801 62.599C267.331 62.7754 263.983 62.8705 259.705 62.8705V75.8975ZM276.562 67.4331C273.52 55.9095 270.306 45.2267 266.919 35.3912L254.602 39.6328C257.871 49.1253 260.994 59.4985 263.967 70.7589L276.562 67.4331ZM260.761 30.9985H260.185V44.0255H260.761V30.9985ZM254.164 35.0277C250.245 44.5241 246.731 55.4184 243.602 67.6767L256.224 70.8993C259.238 59.0936 262.572 48.8038 266.206 39.9963L254.164 35.0277Z" fill="#33E9C6" fill-opacity="0.2"/>
</g>
<g filter="url(#filter3_f_315_239)">
<path d="M248.761 37.128L244.872 38.1002L245.574 40.9086L248.461 41.1251L248.761 37.128ZM248.569 31.752L248.072 27.7746L245.106 28.1453L244.615 31.093L248.569 31.752ZM268.153 31.656L272.129 31.1484L271.81 28.6499L269.42 27.8534L268.153 31.656ZM284.185 87.432L280.418 88.8026L281.297 91.2194L283.861 91.4272L284.185 87.432ZM287.737 87.72L291.729 87.3571L291.423 83.9974L288.061 83.7248L287.737 87.72ZM287.641 93.096L287.498 97.1018L290.982 97.2262L291.588 93.7926L287.641 93.096ZM271.417 93.096L267.486 93.8821L268.16 97.2497L271.591 97.1005L271.417 93.096ZM271.321 87.72L270.978 83.7263L267.803 83.9985L267.353 87.1531L271.321 87.72ZM274.681 87.432L275.023 91.4257L279.527 91.0397L278.605 86.6145L274.681 87.432ZM273.145 80.808L269.246 81.7402L269.249 81.75L269.251 81.7598L273.145 80.808ZM271.993 75.912L275.923 75.1259L275.313 72.0729L272.203 71.9092L271.993 75.912ZM248.185 76.008L247.909 72.0092L244.96 72.2125L244.283 75.0899L248.185 76.008ZM245.497 87.432L241.595 86.5139L240.525 91.0603L245.181 91.4279L245.497 87.432ZM249.145 87.72L253.137 87.3571L252.831 83.9902L249.46 83.7241L249.145 87.72ZM249.049 93.096L248.882 97.1009L252.387 97.2469L252.996 93.7926L249.049 93.096ZM234.169 93.096L230.238 93.8821L230.913 97.2565L234.351 97.1002L234.169 93.096ZM234.073 87.72L233.73 83.7263L230.555 83.9985L230.105 87.1531L234.073 87.72ZM237.433 87.432L237.775 91.4257L240.322 91.2073L241.198 88.8055L237.433 87.432ZM252.601 37.416L256.533 38.1942L257.411 33.7572L252.901 33.4189L252.601 37.416ZM249.913 69.288L246.029 68.2964L244.79 73.1474L249.795 73.2946L249.913 69.288ZM270.265 69.096L270.55 73.0941L275.375 72.7495L274.14 68.0727L270.265 69.096ZM260.761 37.512L264.551 36.2069L263.62 33.5037H260.761V37.512ZM260.185 37.512V33.5037H257.502L256.479 35.9832L260.185 37.512ZM252.649 36.1558C252.567 35.8273 252.481 35.1951 252.481 34.152H244.464C244.464 35.5409 244.57 36.8927 244.872 38.1002L252.649 36.1558ZM252.481 34.152C252.481 33.5731 252.489 33.1271 252.502 32.8002C252.517 32.4315 252.534 32.3433 252.523 32.411L244.615 31.093C244.487 31.8621 244.464 33.0023 244.464 34.152H252.481ZM249.066 35.7294C254.668 35.0292 258.655 34.7043 261.145 34.7043V26.6877C258.131 26.6877 253.734 27.0668 248.072 27.7746L249.066 35.7294ZM261.145 34.7043C263.61 34.7043 265.491 34.994 266.885 35.4586L269.42 27.8534C266.974 27.038 264.183 26.6877 261.145 26.6877V34.7043ZM264.177 32.1636C265.773 44.6716 271.256 63.6231 280.418 88.8026L287.951 86.0614C278.809 60.9369 273.604 42.7044 272.129 31.1484L264.177 32.1636ZM283.861 91.4272L287.413 91.7152L288.061 83.7248L284.509 83.4368L283.861 91.4272ZM283.745 88.0829C283.873 89.4934 283.92 90.3218 283.92 90.696H291.937C291.937 89.9182 291.856 88.7626 291.729 87.3571L283.745 88.0829ZM283.92 90.696C283.92 90.8339 283.88 91.3408 283.693 92.3994L291.588 93.7926C291.785 92.6752 291.937 91.5821 291.937 90.696H283.92ZM287.784 89.0902C285.916 89.0235 283.072 88.9917 279.289 88.9917V97.0083C283.057 97.0083 285.781 97.0405 287.498 97.1018L287.784 89.0902ZM279.289 88.9917C275.517 88.9917 272.812 89.0232 271.243 89.0915L271.591 97.1005C272.965 97.0408 275.509 97.0083 279.289 97.0083V88.9917ZM275.347 92.3099C275.198 91.5647 275.137 90.9346 275.137 90.408H267.12C267.12 91.5454 267.251 92.7073 267.486 93.8821L275.347 92.3099ZM275.137 90.408C275.137 89.7036 275.187 88.997 275.289 88.2869L267.353 87.1531C267.198 88.235 267.12 89.3204 267.12 90.408H275.137ZM271.663 91.7137L275.023 91.4257L274.338 83.4383L270.978 83.7263L271.663 91.7137ZM278.605 86.6145C278.271 85.0101 277.746 82.7491 277.038 79.8562L269.251 81.7598C269.952 84.6269 270.451 86.7819 270.757 88.2495L278.605 86.6145ZM277.043 79.8758C276.692 78.4054 276.421 77.2669 276.231 76.4579C276.135 76.053 276.061 75.7351 276.008 75.5014C275.981 75.3844 275.96 75.2926 275.945 75.224C275.928 75.1486 275.923 75.1223 275.923 75.1259L268.062 76.6981C268.145 77.1141 268.557 78.8573 269.246 81.7402L277.043 79.8758ZM272.203 71.9092C268.474 71.7129 264.435 71.6157 260.089 71.6157V79.6323C264.318 79.6323 268.215 79.7271 271.782 79.9148L272.203 71.9092ZM260.089 71.6157C255.785 71.6157 251.724 71.7461 247.909 72.0092L248.461 80.0068C252.069 79.7579 255.945 79.6323 260.089 79.6323V71.6157ZM244.283 75.0899L241.595 86.5139L249.399 88.3501L252.087 76.9261L244.283 75.0899ZM245.181 91.4279L248.829 91.7159L249.46 83.7241L245.812 83.4361L245.181 91.4279ZM245.153 88.0829C245.281 89.4934 245.328 90.3218 245.328 90.696H253.345C253.345 89.9182 253.264 88.7626 253.137 87.3571L245.153 88.0829ZM245.328 90.696C245.328 90.8339 245.288 91.3408 245.101 92.3994L252.996 93.7926C253.193 92.6752 253.345 91.5821 253.345 90.696H245.328ZM249.216 89.0911C247.589 89.0234 244.988 88.9917 241.465 88.9917V97.0083C244.981 97.0083 247.437 97.0406 248.882 97.1009L249.216 89.0911ZM241.465 88.9917C238.01 88.9917 235.496 89.0232 233.987 89.0918L234.351 97.1002C235.658 97.0408 238.008 97.0083 241.465 97.0083V88.9917ZM238.099 92.3099C237.95 91.5647 237.889 90.9346 237.889 90.408H229.872C229.872 91.5454 230.003 92.7073 230.238 93.8821L238.099 92.3099ZM237.889 90.408C237.889 89.7036 237.939 88.997 238.041 88.2869L230.105 87.1531C229.95 88.235 229.872 89.3204 229.872 90.408H237.889ZM234.415 91.7137L237.775 91.4257L237.09 83.4383L233.73 83.7263L234.415 91.7137ZM241.198 88.8055C248.903 67.6814 254.041 50.7834 256.533 38.1942L248.669 36.6378C246.296 48.6246 241.322 65.0706 233.667 86.0585L241.198 88.8055ZM252.901 33.4189L249.061 33.1309L248.461 41.1251L252.301 41.4131L252.901 33.4189ZM249.795 73.2946C252.032 73.3604 255.344 73.3923 259.705 73.3923V65.3757C255.361 65.3757 252.146 65.3436 250.031 65.2814L249.795 73.2946ZM259.705 73.3923C264.102 73.3923 267.728 73.2958 270.55 73.0941L269.979 65.0979C267.426 65.2802 264.012 65.3757 259.705 65.3757V73.3923ZM274.14 68.0727C271.111 56.5997 267.915 45.9765 264.551 36.2069L256.971 38.8171C260.262 48.3755 263.403 58.8083 266.389 70.1193L274.14 68.0727ZM260.761 33.5037H260.185V41.5203H260.761V33.5037ZM256.479 35.9832C252.616 45.3472 249.137 56.1251 246.029 68.2964L253.796 70.2796C256.833 58.3868 260.202 47.9808 263.89 39.0408L256.479 35.9832Z" fill="#33E9E9"/>
</g>
<g filter="url(#filter4_f_315_239)">
<path d="M248.811 37.128L246.867 37.6141L247.218 39.0183L248.661 39.1266L248.811 37.128ZM248.619 31.752L248.371 29.7633L246.888 29.9486L246.642 31.4225L248.619 31.752ZM268.203 31.656L270.191 31.4022L270.032 30.1529L268.837 29.7547L268.203 31.656ZM284.235 87.432L282.352 88.1173L282.792 89.3257L284.073 89.4296L284.235 87.432ZM287.787 87.72L289.783 87.5385L289.631 85.8587L287.949 85.7224L287.787 87.72ZM287.691 93.096L287.62 95.0989L289.362 95.1611L289.665 93.4443L287.691 93.096ZM271.467 93.096L269.502 93.489L269.839 95.1729L271.554 95.0983L271.467 93.096ZM271.371 87.72L271.2 85.7232L269.613 85.8592L269.387 87.4366L271.371 87.72ZM274.731 87.432L274.902 89.4288L277.154 89.2358L276.693 87.0232L274.731 87.432ZM273.195 80.808L271.246 81.2741L271.248 81.2839L273.195 80.808ZM272.043 75.912L274.009 75.519L273.703 73.9924L272.149 73.9106L272.043 75.912ZM248.235 76.008L248.097 74.0086L246.623 74.1103L246.284 75.549L248.235 76.008ZM245.547 87.432L243.596 86.973L243.062 89.2462L245.39 89.4299L245.547 87.432ZM249.195 87.72L251.191 87.5386L251.038 85.8551L249.353 85.722L249.195 87.72ZM249.099 93.096L249.016 95.0984L250.768 95.1714L251.073 93.4443L249.099 93.096ZM234.219 93.096L232.254 93.489L232.592 95.1762L234.31 95.0981L234.219 93.096ZM234.123 87.72L233.952 85.7232L232.365 85.8592L232.139 87.4366L234.123 87.72ZM237.483 87.432L237.654 89.4288L238.928 89.3197L239.366 88.1187L237.483 87.432ZM252.651 37.416L254.617 37.8051L255.056 35.5866L252.801 35.4174L252.651 37.416ZM249.963 69.288L248.021 68.7922L247.402 71.2177L249.904 71.2913L249.963 69.288ZM270.315 69.096L270.458 71.0951L272.871 70.9228L272.253 68.5843L270.315 69.096ZM260.811 37.512L262.706 36.8594L262.241 35.5078H260.811V37.512ZM260.235 37.512V35.5078H258.894L258.383 36.7476L260.235 37.512ZM250.756 36.6419C250.619 36.0937 250.527 35.2816 250.527 34.152H246.519C246.519 35.4544 246.62 36.6263 246.867 37.6141L250.756 36.6419ZM250.527 34.152C250.527 32.9028 250.564 32.273 250.596 32.0815L246.642 31.4225C246.546 31.999 246.519 32.9692 246.519 34.152H250.527ZM248.868 33.7407C254.485 33.0386 258.574 32.7002 261.195 32.7002V28.6918C258.312 28.6918 254.018 29.0574 248.371 29.7633L248.868 33.7407ZM261.195 32.7002C263.804 32.7002 265.913 33.005 267.57 33.5573L268.837 29.7547C266.654 29.027 264.091 28.6918 261.195 28.6918V32.7002ZM266.215 31.9098C267.782 44.1798 273.195 62.9516 282.352 88.1173L286.119 86.7467C276.972 61.6084 271.697 43.1962 270.191 31.4022L266.215 31.9098ZM284.073 89.4296L287.625 89.7176L287.949 85.7224L284.397 85.4344L284.073 89.4296ZM285.791 87.9015C285.92 89.3107 285.975 90.2209 285.975 90.696H289.983C289.983 90.0191 289.911 88.9453 289.783 87.5385L285.791 87.9015ZM285.975 90.696C285.975 91.0209 285.907 91.6744 285.718 92.7477L289.665 93.4443C289.86 92.3416 289.983 91.3951 289.983 90.696H285.975ZM287.763 91.0931C285.933 91.0278 283.119 90.9958 279.339 90.9958V95.0042C283.111 95.0042 285.866 95.0362 287.62 95.0989L287.763 91.0931ZM279.339 90.9958C275.565 90.9958 272.901 91.0276 271.38 91.0937L271.554 95.0983C272.978 95.0364 275.561 95.0042 279.339 95.0042V90.9958ZM273.433 92.703C273.262 91.8503 273.183 91.0873 273.183 90.408H269.175C269.175 91.3927 269.289 92.4217 269.502 93.489L273.433 92.703ZM273.183 90.408C273.183 89.6078 273.241 88.8065 273.355 88.0034L269.387 87.4366C269.246 88.4255 269.175 89.4162 269.175 90.408H273.183ZM271.542 89.7168L274.902 89.4288L274.56 85.4352L271.2 85.7232L271.542 89.7168ZM276.693 87.0232C276.366 85.4531 275.848 83.2186 275.142 80.3321L271.248 81.2839C271.951 84.1574 272.456 86.3389 272.769 87.8408L276.693 87.0232ZM275.145 80.3419C274.433 77.3673 274.063 75.791 274.009 75.519L270.078 76.305C270.152 76.673 270.549 78.3607 271.246 81.2741L275.145 80.3419ZM272.149 73.9106C268.46 73.7165 264.457 73.6198 260.139 73.6198V77.6282C264.398 77.6282 268.33 77.7235 271.938 77.9134L272.149 73.9106ZM260.139 73.6198C255.875 73.6198 251.861 73.749 248.097 74.0086L248.373 78.0074C252.034 77.755 255.955 77.6282 260.139 77.6282V73.6198ZM246.284 75.549L243.596 86.973L247.498 87.891L250.186 76.467L246.284 75.549ZM245.39 89.4299L249.038 89.7179L249.353 85.722L245.705 85.434L245.39 89.4299ZM247.199 87.9014C247.327 89.3107 247.383 90.2209 247.383 90.696H251.391C251.391 90.0191 251.319 88.9453 251.191 87.5386L247.199 87.9014ZM247.383 90.696C247.383 91.0209 247.315 91.6744 247.126 92.7477L251.073 93.4443C251.268 92.3416 251.391 91.3951 251.391 90.696H247.383ZM249.183 91.0936C247.601 91.0277 245.037 90.9958 241.515 90.9958V95.0042C245.034 95.0042 247.525 95.0363 249.016 95.0984L249.183 91.0936ZM241.515 90.9958C238.06 90.9958 235.587 91.0276 234.128 91.0939L234.31 95.0981C235.668 95.0364 238.059 95.0042 241.515 95.0042V90.9958ZM236.185 92.703C236.014 91.8503 235.935 91.0873 235.935 90.408H231.927C231.927 91.3927 232.041 92.4217 232.254 93.489L236.185 92.703ZM235.935 90.408C235.935 89.6078 235.993 88.8065 236.107 88.0034L232.139 87.4366C231.998 88.4255 231.927 89.4162 231.927 90.408H235.935ZM234.294 89.7168L237.654 89.4288L237.312 85.4352L233.952 85.7232L234.294 89.7168ZM239.366 88.1187C247.059 67.0287 252.156 50.2437 254.617 37.8051L250.685 37.0269C248.283 49.1643 243.268 65.7233 235.6 86.7453L239.366 88.1187ZM252.801 35.4174L248.961 35.1294L248.661 39.1266L252.501 39.4145L252.801 35.4174ZM249.904 71.2913C252.111 71.3562 255.399 71.3882 259.755 71.3882V67.3798C255.408 67.3798 252.168 67.3478 250.022 67.2847L249.904 71.2913ZM259.755 71.3882C264.13 71.3882 267.703 71.2919 270.458 71.0951L270.173 67.0969C267.552 67.2841 264.085 67.3798 259.755 67.3798V71.3882ZM272.253 68.5843C269.234 57.1518 266.052 46.5762 262.706 36.8594L258.916 38.1646C262.226 47.7758 265.38 58.2561 268.378 69.6077L272.253 68.5843ZM260.811 35.5078H260.235V39.5162H260.811V35.5078ZM258.383 36.7476C254.563 46.0056 251.111 56.6906 248.021 68.7922L251.905 69.7838C254.959 57.8214 258.356 47.3224 262.088 38.2764L258.383 36.7476Z" fill="white"/>
</g>
<defs>
<filter id="filter0_f_315_239" x="203.818" y="0.633545" width="114.173" height="122.525" filterUnits="userSpaceOnUse" color-interpolation-filters="sRGB">
<feFlood flood-opacity="0" result="BackgroundImageFix"/>
<feBlend mode="normal" in="SourceGraphic" in2="BackgroundImageFix" result="shape"/>
<feGaussianBlur stdDeviation="15.0312" result="effect1_foregroundBlur_315_239"/>
</filter>
<filter id="filter1_f_315_239" x="223.86" y="20.6752" width="74.0895" height="82.4416" filterUnits="userSpaceOnUse" color-interpolation-filters="sRGB">
<feFlood flood-opacity="0" result="BackgroundImageFix"/>
<feBlend mode="normal" in="SourceGraphic" in2="BackgroundImageFix" result="shape"/>
<feGaussianBlur stdDeviation="5.01042" result="effect1_foregroundBlur_315_239"/>
</filter>
<filter id="filter2_ddi_315_239" x="220.854" y="27.6898" width="80.102" height="88.4541" filterUnits="userSpaceOnUse" color-interpolation-filters="sRGB">
<feFlood flood-opacity="0" result="BackgroundImageFix"/>
<feColorMatrix in="SourceAlpha" type="matrix" values="0 0 0 0 0 0 0 0 0 0 0 0 0 0 0 0 0 0 127 0" result="hardAlpha"/>
<feOffset dy="6.51354"/>
<feGaussianBlur stdDeviation="2.50521"/>
<feColorMatrix type="matrix" values="0 0 0 0 0 0 0 0 0 0.3 0 0 0 0 0.275 0 0 0 0.7 0"/>
<feBlend mode="multiply" in2="BackgroundImageFix" result="effect1_dropShadow_315_239"/>
<feColorMatrix in="SourceAlpha" type="matrix" values="0 0 0 0 0 0 0 0 0 0 0 0 0 0 0 0 0 0 127 0" result="hardAlpha"/>
<feOffset dy="10.0208"/>
<feGaussianBlur stdDeviation="6.51354"/>
<feColorMatrix type="matrix" values="0 0 0 0 0 0 0 0 0 0.6 0 0 0 0 0.6 0 0 0 1 0"/>
<feBlend mode="color-dodge" in2="effect1_dropShadow_315_239" result="effect2_dropShadow_315_239"/>
<feBlend mode="normal" in="SourceGraphic" in2="effect2_dropShadow_315_239" result="shape"/>
<feColorMatrix in="SourceAlpha" type="matrix" values="0 0 0 0 0 0 0 0 0 0 0 0 0 0 0 0 0 0 127 0" result="hardAlpha"/>
<feOffset dx="-0.651354" dy="1.30271"/>
<feGaussianBlur stdDeviation="0.325677"/>
<feComposite in2="hardAlpha" operator="arithmetic" k2="-1" k3="1"/>
<feColorMatrix type="matrix" values="0 0 0 0 1 0 0 0 0 1 0 0 0 0 1 0 0 0 0.5 0"/>
<feBlend mode="normal" in2="shape" result="effect3_innerShadow_315_239"/>
</filter>
<filter id="filter3_f_315_239" x="232.879" y="29.694" width="56.052" height="64.4041" filterUnits="userSpaceOnUse" color-interpolation-filters="sRGB">
<feFlood flood-opacity="0" result="BackgroundImageFix"/>
<feBlend mode="normal" in="SourceGraphic" in2="BackgroundImageFix" result="shape"/>
<feGaussianBlur stdDeviation="0.501042" result="effect1_foregroundBlur_315_239"/>
</filter>
<filter id="filter4_f_315_239" x="233.263" y="30.028" width="55.3845" height="63.736" filterUnits="userSpaceOnUse" color-interpolation-filters="sRGB">
<feFlood flood-opacity="0" result="BackgroundImageFix"/>
<feBlend mode="normal" in="SourceGraphic" in2="BackgroundImageFix" result="shape"/>
<feGaussianBlur stdDeviation="0.334028" result="effect1_foregroundBlur_315_239"/>
</filter>
</defs>
</svg>
