<svg width="80" height="261" viewBox="0 0 80 261" fill="none" xmlns="http://www.w3.org/2000/svg">
<rect x="26.8145" y="21.1967" width="27" height="44" fill="#F1F2EE"/>
<path d="M5.81445 8.19672C5.81445 3.77844 9.39618 0.196716 13.8145 0.196716L65.8145 0.196716C70.2327 0.196716 73.8144 3.77844 73.8144 8.19672V13.1967C73.8144 17.615 70.2327 21.1967 65.8144 21.1967L13.8145 21.1967C9.39617 21.1967 5.81445 17.615 5.81445 13.1967L5.81445 8.19672Z" fill="#FF0000"/>
<path d="M0.814453 97.6967C0.814453 75.8815 18.4992 58.1967 40.3145 58.1967V58.1967C62.1297 58.1967 79.8144 75.8815 79.8144 97.6967L79.8144 260.197H0.814453L0.814453 97.6967Z" fill="#FF0000"/>
<path d="M41.8145 185.197L14.1016 140.947H69.5273L41.8145 185.197Z" fill="#090505"/>
<path d="M30.8145 148.197C30.8145 149.854 29.4713 151.197 27.8145 151.197C26.1576 151.197 24.8145 149.854 24.8145 148.197C24.8145 146.54 26.1576 145.197 27.8145 145.197C29.4713 145.197 30.8145 146.54 30.8145 148.197Z" fill="#FFC700" fill-opacity="0.48"/>
<path d="M30.8145 148.197C30.8145 149.854 29.4713 151.197 27.8145 151.197C26.1576 151.197 24.8145 149.854 24.8145 148.197C24.8145 146.54 26.1576 145.197 27.8145 145.197C29.4713 145.197 30.8145 146.54 30.8145 148.197Z" fill="#FF0000"/>
<path d="M36.8145 162.197C36.8145 163.854 35.4713 165.197 33.8145 165.197C32.1576 165.197 30.8145 163.854 30.8145 162.197C30.8145 160.54 32.1576 159.197 33.8145 159.197C35.4713 159.197 36.8145 160.54 36.8145 162.197Z" fill="#FF0000"/>
<path d="M59.2313 123.182L46.9316 152.395L29.7004 154.816L59.2313 123.182Z" fill="#FFC700"/>
<path d="M37.2529 179.479L45.2877 146.446L63.6169 140.573L37.2529 179.479Z" fill="#FFC700"/>
</svg>
