<svg width="42" height="42" viewBox="0 0 42 42" fill="none" xmlns="http://www.w3.org/2000/svg">
<path d="M12.1928 12.1004L9.95214 10.615C8.9375 10.2127 7.75508 10.379 6.96921 11.1568C6.36636 11.8032 6.0199 12.6283 6.05475 13.6277L6.13315 15.8763L12.5405 20.2807L12.2705 12.5354L12.1928 12.1004Z" fill="url(#paint0_linear_507_102)"/>
<path d="M34.8658 14.8742L34.7874 12.6256C34.7548 11.6886 34.3517 10.8897 33.7053 10.2868C32.7357 9.38258 31.2366 9.43485 30.2634 10.2192L28.6204 11.5273L28.5108 11.9689L28.7808 19.7142L34.8658 14.8742Z" fill="url(#paint1_linear_507_102)"/>
<path d="M34.1253 9.77192C32.9618 8.6868 31.1482 8.6875 29.8692 9.67016L28.2262 10.9782L20.5607 17.124L12.5504 11.5873L10.8204 10.3968C9.47387 9.44318 7.66682 9.63126 6.58171 10.7948C5.79583 11.5726 5.39344 12.5873 5.43046 13.6491L6.01193 30.3265C6.0533 31.5133 7.08754 32.4778 8.27432 32.4364L12.959 32.2731C13.3337 32.26 13.5749 32.0015 13.5618 31.6267L13.209 21.5079L20.5126 26.5064C20.6397 26.5645 20.7668 26.6226 20.8918 26.6183C21.0167 26.6139 21.1394 26.5471 21.2622 26.4803L28.1999 20.9852L28.5527 31.104C28.5658 31.4788 28.8243 31.72 29.1991 31.7069L33.8838 31.5436C35.1955 31.4978 36.0416 30.6553 36.0024 29.531L35.4122 12.6038C35.3752 11.5419 34.9031 10.5578 34.1253 9.77192ZM6.67971 13.6056C6.65357 12.856 6.94193 12.158 7.4242 11.6409C7.78591 11.2531 8.27907 11.0483 8.77877 11.0309C9.216 11.0156 9.65759 11.1253 10.1057 11.4224L11.7065 12.4922L11.7086 12.5547L11.9351 19.0508L6.74722 15.5419L6.67971 13.6056ZM8.23076 31.1872C7.73107 31.2046 7.27859 30.7826 7.26117 30.2829L6.80166 17.1034L11.9271 20.6145L12.1144 25.9862L10.2405 26.0516L10.2841 27.3008L12.158 27.2355L12.2015 28.4847L9.07841 28.5936L9.12196 29.8428L12.2451 29.7339L12.2908 31.0456L8.23076 31.1872ZM28.1455 19.4236L20.8438 25.2441L13.1546 19.9463L12.9259 13.3878L20.2295 18.3863C20.3566 18.4444 20.4837 18.5026 20.6086 18.4982C20.7336 18.4938 20.8563 18.427 20.9791 18.3602L27.9168 12.8651L28.1455 19.4236ZM30.6557 10.7059C31.446 10.053 32.5725 10.0762 33.346 10.7372C33.8631 11.2194 34.1993 11.8956 34.2255 12.6452L34.293 14.5815L29.4245 18.441L29.198 11.9449L29.1958 11.8825L30.6557 10.7059ZM33.8402 30.2943L29.7802 30.4359L29.4165 20.0047L34.285 16.1452L34.6007 25.2022L32.7269 25.2676L32.7704 26.5168L34.6443 26.4515L34.6878 27.7007L31.5647 27.8096L31.6083 29.0588L34.7314 28.9499L34.7532 29.5746C34.775 30.1992 34.1525 30.2834 33.8402 30.2943Z" fill="url(#paint2_linear_507_102)"/>
<defs>
<linearGradient id="paint0_linear_507_102" x1="9.10265" y1="11.362" x2="9.27787" y2="16.3877" gradientUnits="userSpaceOnUse">
<stop stop-color="#8CC5FC"/>
<stop offset="1" stop-color="#D5A8FB"/>
</linearGradient>
<linearGradient id="paint1_linear_507_102" x1="31.5891" y1="10.5776" x2="31.7644" y2="15.6033" gradientUnits="userSpaceOnUse">
<stop stop-color="#8CC5FC"/>
<stop offset="1" stop-color="#D5A8FB"/>
</linearGradient>
<linearGradient id="paint2_linear_507_102" x1="20.2702" y1="8.78972" x2="21.0634" y2="31.5421" gradientUnits="userSpaceOnUse">
<stop stop-color="#1A6DFF"/>
<stop offset="1" stop-color="#C822FF"/>
</linearGradient>
</defs>
</svg>
