<svg width="118" height="261" viewBox="0 0 118 261" fill="none" xmlns="http://www.w3.org/2000/svg">
<rect x="45" y="21" width="28.2078" height="44" fill="black"/>
<path d="M23 8C23 3.58172 26.5817 0 31 0H86.0419C90.4602 0 94.0419 3.58172 94.0419 8V13C94.0419 17.4183 90.4602 21 86.0419 21H31C26.5817 21 23 17.4183 23 13V8Z" fill="#00D1FF"/>
<path d="M0 109C0 81.3858 22.3858 59 50 59H68C95.6142 59 118 81.3858 118 109V261H0V109Z" fill="#B1DEFF"/>
<path d="M116 165.5C116 184.002 91.3757 199 61 199C30.6243 199 6 184.002 6 165.5C6 146.998 30.6243 132 61 132C91.3757 132 116 146.998 116 165.5Z" fill="black"/>
</svg>
