<svg width="55" height="55" viewBox="0 0 55 55" fill="none" xmlns="http://www.w3.org/2000/svg">
<g clip-path="url(#clip0_507_110)">
<path fill-rule="evenodd" clip-rule="evenodd" d="M26.9078 39.1056L20.0328 27.1978L16.7852 29.0728L23.6602 40.9806L26.9078 39.1056Z" fill="url(#paint0_linear_507_110)"/>
<path fill-rule="evenodd" clip-rule="evenodd" d="M17.6655 26.3998C19.0252 25.6148 19.4111 24.3282 18.7611 23.2023C18.0713 22.0663 16.7743 21.716 15.4406 22.486C14.1064 23.2563 13.6953 24.5581 14.3597 25.7089C15.0097 26.8347 16.3313 27.1701 17.6401 26.4144L17.6655 26.3998Z" fill="url(#paint1_linear_507_110)"/>
<path fill-rule="evenodd" clip-rule="evenodd" d="M29.585 37.5602L33.403 35.3558L29.6252 28.8125C29.4227 28.4617 29.2866 28.0734 29.2453 27.7631C29.122 26.8997 29.4378 25.7503 30.5149 25.1284C31.926 24.3137 33.2043 25.0104 34.1147 26.5871L37.7337 32.8555L40.9813 30.9805L37.1026 24.2623C35.0222 20.6591 32.4646 20.0854 29.8985 21.567C27.7951 22.7814 27.7219 24.2021 27.8338 25.5808L27.778 25.613L26.528 23.448L22.71 25.6523C23.3864 26.7052 29.4902 37.6149 29.4902 37.6149L29.585 37.5602Z" fill="url(#paint2_linear_507_110)"/>
<path fill-rule="evenodd" clip-rule="evenodd" d="M44.876 35.2274L25.3904 46.4774C23.3017 47.6833 20.62 46.9647 19.4141 44.876L8.16406 25.3904C6.95813 23.3017 7.67668 20.62 9.76542 19.4141L29.251 8.16406C31.3397 6.95813 34.0214 7.67668 35.2274 9.76542L46.4774 29.251C47.6833 31.3397 46.9647 34.0214 44.876 35.2274ZM10.3904 20.4966C8.89815 21.3582 8.38503 23.2732 9.24659 24.7654L20.4966 44.251C21.3582 45.7433 23.2732 46.2564 24.7654 45.3948L44.251 34.1448C45.7433 33.2833 46.2564 31.3683 45.3948 29.876L34.1448 10.3904C33.2833 8.89815 31.3683 8.38503 29.876 9.24659L10.3904 20.4966Z" fill="url(#paint3_linear_507_110)"/>
</g>
<defs>
<linearGradient id="paint0_linear_507_110" x1="18.0521" y1="27.5171" x2="25.6093" y2="40.6066" gradientUnits="userSpaceOnUse">
<stop stop-color="#6DC7FF"/>
<stop offset="1" stop-color="#E6ABFF"/>
</linearGradient>
<linearGradient id="paint1_linear_507_110" x1="15.3107" y1="22.2911" x2="17.7851" y2="26.5768" gradientUnits="userSpaceOnUse">
<stop stop-color="#6DC7FF"/>
<stop offset="1" stop-color="#E6ABFF"/>
</linearGradient>
<linearGradient id="paint2_linear_507_110" x1="24.6498" y1="15.9623" x2="35.7123" y2="35.1231" gradientUnits="userSpaceOnUse">
<stop stop-color="#6DC7FF"/>
<stop offset="1" stop-color="#E6ABFF"/>
</linearGradient>
<linearGradient id="paint3_linear_507_110" x1="19.352" y1="13.5184" x2="35.2895" y2="41.123" gradientUnits="userSpaceOnUse">
<stop stop-color="#1A6DFF"/>
<stop offset="1" stop-color="#C822FF"/>
</linearGradient>
<clipPath id="clip0_507_110">
<rect width="40" height="40" fill="white" transform="translate(0 20) rotate(-30)"/>
</clipPath>
</defs>
</svg>
