<svg width="608" height="130" viewBox="0 0 608 130" fill="none" xmlns="http://www.w3.org/2000/svg">
<path d="M111.251 55.9108C112.659 55.7828 113.619 55.7188 114.131 55.7188C114.643 55.7188 115.475 55.8148 116.627 56.0068C116.563 57.9268 116.531 60.3588 116.531 63.3028C116.531 66.2468 116.563 68.4228 116.627 69.8308C115.667 70.0228 114.739 70.1188 113.843 70.1188C112.947 70.1188 112.083 70.0548 111.251 69.9268L110.963 66.5668C107.507 66.4388 104.851 66.3748 102.995 66.3748C101.139 66.3748 98.4192 66.4388 94.8352 66.5668C94.9632 76.2948 95.2512 83.5588 95.6992 88.3588L100.979 88.7428L101.171 91.0468C101.171 92.0708 101.075 93.0628 100.883 94.0228C99.2192 93.9588 96.2112 93.9268 91.8592 93.9268C87.5712 93.9268 84.7552 93.9588 83.4112 94.0228C83.2192 93.0628 83.1232 92.1668 83.1232 91.3348C83.1232 90.4388 83.1872 89.5428 83.3152 88.6468L86.8672 88.3588C87.3792 82.0868 87.6352 74.0228 87.6352 64.1668C87.6352 54.3108 87.2512 45.6388 86.4832 38.1508L83.2192 37.8628C83.0912 37.0308 83.0272 36.1668 83.0272 35.2708C83.0272 34.3748 83.1232 33.4468 83.3152 32.4868C84.9152 32.5508 90.6112 32.5828 100.403 32.5828C110.195 32.5828 116.531 32.2948 119.411 31.7188L119.891 32.1988C119.379 37.8308 119.091 42.3748 119.027 45.8308C118.387 45.8948 117.587 45.9268 116.627 45.9268C115.667 45.9268 114.675 45.8308 113.651 45.6388L113.363 39.1108C110.099 38.9188 106.899 38.8228 103.763 38.8228C100.691 38.8228 97.9072 38.9188 95.4112 39.1108C95.0272 43.3348 94.8352 50.2788 94.8352 59.9428H99.5392C103.059 59.9428 106.867 59.8148 110.963 59.5588L111.251 55.9108ZM129.541 88.3588C130.117 81.9588 130.405 76.1028 130.405 70.7908C130.405 65.4148 130.149 60.1028 129.637 54.8548L126.085 54.5668C125.893 53.5428 125.797 52.4868 125.797 51.3988C125.797 50.3108 125.829 49.5748 125.893 49.1908C129.157 49.1268 133.125 48.8388 137.797 48.3268L138.277 48.8068C138.213 49.1908 138.021 51.0788 137.701 54.4708C139.173 52.6148 140.869 51.0788 142.789 49.8628C144.773 48.6468 146.693 48.0388 148.549 48.0388C150.469 48.0388 152.133 48.7108 153.541 50.0548C154.949 51.3988 155.653 53.1588 155.653 55.3348C155.653 58.9188 154.149 60.7108 151.141 60.7108C149.413 60.7108 148.037 60.1668 147.013 59.0788C145.989 57.9268 145.477 56.4228 145.477 54.5668C145.349 54.5028 145.125 54.4708 144.805 54.4708C142.437 54.4708 140.005 56.2628 137.509 59.8468C137.445 61.6388 137.413 65.6708 137.413 71.9428C137.413 78.1508 137.701 83.6228 138.277 88.3588L141.829 88.6468C141.957 90.0548 142.021 91.0468 142.021 91.6228C142.021 92.1348 141.925 92.9348 141.733 94.0228C139.941 93.9588 137.317 93.9268 133.861 93.9268C130.405 93.9268 127.877 93.9588 126.277 94.0228C126.085 93.0628 125.989 92.1668 125.989 91.3348C125.989 90.4388 126.053 89.5428 126.181 88.6468L129.541 88.3588ZM160.326 71.1748C160.326 55.7508 166.342 48.0388 178.374 48.0388C190.406 48.0388 196.422 55.7508 196.422 71.1748C196.422 78.2788 195.302 83.9108 193.062 88.0708C190.502 92.9348 185.606 95.3668 178.374 95.3668C171.142 95.3668 166.246 92.9348 163.686 88.0708C161.446 83.9108 160.326 78.2788 160.326 71.1748ZM168.198 70.9828C168.198 82.6308 171.59 88.4548 178.374 88.4548C185.158 88.4548 188.55 82.6308 188.55 70.9828C188.55 59.2708 185.158 53.4148 178.374 53.4148C171.59 53.4148 168.198 59.2708 168.198 70.9828ZM243.253 60.3268L243.157 69.6388C243.157 76.3588 243.541 82.5988 244.309 88.3588L247.669 88.6468C247.797 90.0548 247.861 91.0468 247.861 91.6228C247.861 92.1348 247.765 92.9348 247.573 94.0228C245.781 93.9588 243.093 93.9268 239.509 93.9268C235.925 93.9268 233.365 93.9588 231.829 94.0228C231.637 93.0628 231.541 92.1668 231.541 91.3348C231.541 90.4388 231.605 89.5428 231.733 88.6468L235.093 88.3588C235.605 80.8708 235.861 74.4708 235.861 69.1588C235.861 63.7828 235.317 59.9428 234.229 57.6388C233.205 55.3348 231.413 54.1828 228.853 54.1828C225.397 54.1828 221.589 56.2628 217.429 60.4228C217.365 62.0868 217.333 65.9908 217.333 72.1348C217.333 78.2148 217.621 83.6228 218.197 88.3588L221.749 88.6468C221.877 90.0548 221.941 91.0468 221.941 91.6228C221.941 92.1348 221.845 92.9348 221.653 94.0228C219.861 93.9588 217.237 93.9268 213.781 93.9268C210.325 93.9268 207.797 93.9588 206.197 94.0228C206.005 93.0628 205.909 92.1668 205.909 91.3348C205.909 90.4388 205.973 89.5428 206.101 88.6468L209.461 88.3588C210.037 81.9588 210.325 76.1028 210.325 70.7908C210.325 65.4148 210.069 60.1028 209.557 54.8548L206.005 54.5668C205.813 53.4788 205.717 52.4228 205.717 51.3988C205.717 50.3108 205.749 49.5748 205.813 49.1908C209.077 49.1268 213.045 48.8388 217.717 48.3268L218.197 48.8068C218.069 49.5748 217.877 51.4948 217.621 54.5668C219.605 52.5828 221.909 51.0148 224.533 49.8628C227.157 48.6468 229.621 48.0388 231.925 48.0388C239.477 48.0388 243.253 52.1348 243.253 60.3268ZM259.112 78.3748C259.112 78.3748 259.176 71.2388 259.304 56.9668C259.304 56.0068 259.272 55.2708 259.208 54.7588C256.52 54.7588 254.6 54.7908 253.448 54.8548C253.064 53.8308 252.872 52.8388 252.872 51.8788C252.872 50.8548 252.936 50.0868 253.064 49.5748H258.92L258.44 42.4708C260.04 41.9588 261.704 41.7028 263.432 41.7028C265.224 41.7028 266.696 41.8308 267.848 42.0868L266.984 49.4788C270.504 49.4148 274.056 49.2228 277.64 48.9028C278.024 49.7348 278.216 50.6628 278.216 51.6868C278.216 52.6468 278.088 53.8308 277.832 55.2388C275.464 55.1108 271.72 54.9828 266.6 54.8548C266.472 56.1348 266.408 58.0228 266.408 60.5188V80.0068C266.408 81.6708 266.472 83.0468 266.6 84.1348C266.792 85.1588 267.208 86.1188 267.848 87.0148C268.552 87.8468 269.544 88.2628 270.824 88.2628C273.64 88.2628 276.328 87.2708 278.888 85.2868C280.232 87.2068 280.904 89.7988 280.904 93.0628C277.384 94.5988 274.312 95.3668 271.688 95.3668C269.128 95.3668 267.08 95.0148 265.544 94.3108C264.008 93.6708 262.824 92.9028 261.992 92.0068C261.16 91.0468 260.52 89.7348 260.072 88.0708C259.432 85.7028 259.112 82.4708 259.112 78.3748Z" fill="#207F86"/>
<path d="M392.578 72.456V59.304C392.578 47.784 392.418 39.944 392.098 35.784L388.258 35.496C388.066 34.664 387.97 33.704 387.97 32.616C387.97 31.464 388.002 30.632 388.066 30.12C393.89 29.8 398.05 29.512 400.546 29.256L400.93 29.736C400.034 37.352 399.586 45.544 399.586 54.312V70.152C399.586 78.024 399.874 84.36 400.45 89.16L404.002 89.448C404.13 90.472 404.194 91.368 404.194 92.136C404.194 92.84 404.098 93.736 403.906 94.824C401.666 94.76 399.074 94.728 396.13 94.728C393.186 94.728 390.626 94.76 388.45 94.824C388.258 93.864 388.162 93.032 388.162 92.328C388.162 91.56 388.226 90.6 388.354 89.448L391.714 89.16C392.29 83.144 392.578 77.576 392.578 72.456ZM416.766 72.456V59.304C416.766 47.784 416.606 39.944 416.286 35.784L412.446 35.496C412.254 34.664 412.158 33.704 412.158 32.616C412.158 31.464 412.19 30.632 412.254 30.12C418.078 29.8 422.238 29.512 424.734 29.256L425.118 29.736C424.222 37.352 423.774 45.544 423.774 54.312V70.152C423.774 78.024 424.062 84.36 424.638 89.16L428.19 89.448C428.318 90.472 428.382 91.368 428.382 92.136C428.382 92.84 428.286 93.736 428.094 94.824C425.854 94.76 423.262 94.728 420.318 94.728C417.374 94.728 414.814 94.76 412.638 94.824C412.446 93.864 412.35 93.032 412.35 92.328C412.35 91.56 412.414 90.6 412.542 89.448L415.902 89.16C416.478 83.144 416.766 77.576 416.766 72.456ZM457.369 55.272C457.241 54.632 457.177 53.8 457.177 52.776C457.177 51.688 457.273 50.728 457.465 49.896C459.385 49.96 462.041 49.992 465.433 49.992C468.889 49.992 471.545 49.96 473.401 49.896C473.593 50.728 473.689 51.624 473.689 52.584C473.689 53.544 473.625 54.44 473.497 55.272L470.617 55.56C468.889 60.232 466.649 66.664 463.897 74.856C461.209 83.048 459.161 89.064 457.753 92.904C456.409 96.744 455.129 99.848 453.913 102.216C452.761 104.584 451.481 106.824 450.073 108.936C447.385 112.904 444.185 114.888 440.473 114.888C436.825 114.888 433.465 113.864 430.393 111.816C430.649 108.104 431.705 105.448 433.561 103.848C435.481 106.472 437.817 107.784 440.569 107.784C443.513 107.784 446.777 103.624 450.361 95.304C447.097 83.848 441.945 70.6 434.905 55.56L431.737 55.272C431.609 54.504 431.545 53.64 431.545 52.68C431.545 51.656 431.641 50.728 431.833 49.896C433.689 49.96 436.441 49.992 440.089 49.992C443.801 49.992 446.617 49.96 448.537 49.896C448.729 50.728 448.825 51.656 448.825 52.68C448.825 53.64 448.761 54.504 448.633 55.272L444.697 55.56C445.913 62.664 449.049 72.168 454.105 84.072H454.489C457.689 73.704 459.993 64.2 461.401 55.56L457.369 55.272Z" fill="#207F86"/>
<g style="mix-blend-mode:hard-light" filter="url(#filter0_f_315_239)">
<path d="M323.326 37.128L317.007 38.7078L318.148 43.2715L322.839 43.6233L323.326 37.128ZM323.134 31.752L322.326 25.2888L317.508 25.8911L316.709 30.6812L323.134 31.752ZM342.718 31.656L349.179 30.8312L348.661 26.771L344.778 25.4767L342.718 31.656ZM358.75 87.432L352.629 89.6592L354.058 93.5865L358.224 93.9242L358.75 87.432ZM362.302 87.72L368.789 87.1303L368.293 81.6708L362.829 81.2278L362.302 87.72ZM362.206 93.096L361.974 99.6054L367.636 99.8076L368.621 94.228L362.206 93.096ZM345.982 93.096L339.595 94.3734L340.69 99.8458L346.265 99.6034L345.982 93.096ZM345.886 87.72L345.33 81.2303L340.17 81.6725L339.438 86.7988L345.886 87.72ZM349.246 87.432L349.802 93.9217L357.121 93.2944L355.623 86.1035L349.246 87.432ZM347.71 80.808L341.375 82.3229L341.379 82.3388L341.383 82.3547L347.71 80.808ZM346.558 75.912L352.945 74.6346L351.953 69.6734L346.901 69.4075L346.558 75.912ZM322.75 76.008L322.302 69.5099L317.51 69.8404L316.41 74.5161L322.75 76.008ZM320.062 87.432L313.722 85.9401L311.983 93.328L319.55 93.9253L320.062 87.432ZM323.71 87.72L330.197 87.1303L329.7 81.659L324.223 81.2267L323.71 87.72ZM323.614 93.096L323.343 99.6039L329.038 99.8412L330.029 94.228L323.614 93.096ZM308.734 93.096L302.347 94.3734L303.444 99.8567L309.03 99.6028L308.734 93.096ZM308.638 87.72L308.082 81.2303L302.922 81.6725L302.19 86.7988L308.638 87.72ZM311.998 87.432L312.554 93.9217L316.694 93.5669L318.117 89.6639L311.998 87.432ZM327.166 37.416L333.556 38.6806L334.983 31.4704L327.653 30.9207L327.166 37.416ZM324.478 69.288L318.167 67.6767L316.154 75.5595L324.287 75.7987L324.478 69.288ZM344.83 69.096L345.294 75.593L353.135 75.033L351.128 67.4331L344.83 69.096ZM335.326 37.512L341.485 35.3912L339.972 30.9985H335.326V37.512ZM334.75 37.512V30.9985H330.391L328.729 35.0277L334.75 37.512ZM329.645 35.5482C329.646 35.5508 329.639 35.5225 329.628 35.4581C329.618 35.3942 329.605 35.3028 329.593 35.1806C329.569 34.9325 329.552 34.5942 329.552 34.152H316.525C316.525 35.6489 316.637 37.2256 317.007 38.7078L329.645 35.5482ZM329.552 34.152C329.552 33.5913 329.559 33.1815 329.571 32.9003C329.576 32.7608 329.582 32.6795 329.584 32.6444C329.588 32.5948 329.584 32.671 329.559 32.8228L316.709 30.6812C316.541 31.6909 316.525 33.0438 316.525 34.152H329.552ZM323.942 38.2152C329.525 37.5174 333.384 37.2095 335.71 37.2095V24.1825C332.533 24.1825 328.007 24.5786 322.326 25.2888L323.942 38.2152ZM335.71 37.2095C337.996 37.2095 339.593 37.4802 340.658 37.8353L344.778 25.4767C342.003 24.5517 338.928 24.1825 335.71 24.1825V37.2095ZM336.257 32.4808C337.892 45.2864 343.461 64.4626 352.629 89.6592L364.871 85.2048C355.735 60.0974 350.617 42.0896 349.179 30.8312L336.257 32.4808ZM358.224 93.9242L361.776 94.2122L362.829 81.2278L359.277 80.9398L358.224 93.9242ZM355.815 88.3097C355.944 89.7218 355.981 90.4479 355.981 90.696H369.008C369.008 89.7921 368.917 88.5342 368.789 87.1303L355.815 88.3097ZM355.981 90.696C355.981 90.5896 355.987 90.6335 355.955 90.9039C355.925 91.1505 355.874 91.4983 355.792 91.964L368.621 94.228C368.821 93.0922 369.008 91.816 369.008 90.696H355.981ZM362.439 86.5866C360.524 86.5182 357.643 86.4865 353.854 86.4865V99.5135C357.618 99.5135 360.305 99.5458 361.974 99.6054L362.439 86.5866ZM353.854 86.4865C350.085 86.4865 347.33 86.5177 345.699 86.5886L346.265 99.6034C347.578 99.5463 350.072 99.5135 353.854 99.5135V86.4865ZM352.369 91.8186C352.247 91.2076 352.208 90.7438 352.208 90.408H339.181C339.181 91.7362 339.333 93.0644 339.595 94.3734L352.369 91.8186ZM352.208 90.408C352.208 89.8233 352.249 89.2351 352.334 88.6412L339.438 86.7988C339.267 87.9969 339.181 89.2007 339.181 90.408H352.208ZM346.442 94.2097L349.802 93.9217L348.69 80.9423L345.33 81.2303L346.442 94.2097ZM355.623 86.1035C355.28 84.4565 354.747 82.1623 354.037 79.2613L341.383 82.3547C342.082 85.2137 342.573 87.3355 342.87 88.7605L355.623 86.1035ZM354.045 79.2931C353.694 77.8238 353.424 76.6887 353.235 75.8841C353.14 75.4812 353.067 75.1682 353.015 74.941C352.955 74.6805 352.94 74.609 352.945 74.6346L340.171 77.1894C340.266 77.6654 340.695 79.4782 341.375 82.3229L354.045 79.2931ZM346.901 69.4075C343.121 69.2085 339.037 69.1105 334.654 69.1105V82.1375C338.847 82.1375 342.699 82.2315 346.216 82.4165L346.901 69.4075ZM334.654 69.1105C330.3 69.1105 326.181 69.2423 322.302 69.5099L323.198 82.5061C326.743 82.2617 330.56 82.1375 334.654 82.1375V69.1105ZM316.41 74.5161L313.722 85.9401L326.403 88.9239L329.091 77.4999L316.41 74.5161ZM319.55 93.9253L323.198 94.2133L324.223 81.2267L320.575 80.9387L319.55 93.9253ZM317.223 88.3097C317.352 89.7218 317.389 90.4479 317.389 90.696H330.416C330.416 89.7921 330.325 88.5342 330.197 87.1303L317.223 88.3097ZM317.389 90.696C317.389 90.5896 317.395 90.6335 317.363 90.9039C317.333 91.1505 317.282 91.4983 317.2 91.964L330.029 94.228C330.229 93.0922 330.416 91.816 330.416 90.696H317.389ZM323.885 86.5881C322.202 86.518 319.556 86.4865 316.03 86.4865V99.5135C319.545 99.5135 321.954 99.546 323.343 99.6039L323.885 86.5881ZM316.03 86.4865C312.576 86.4865 310.01 86.5177 308.438 86.5892L309.03 99.6028C310.274 99.5463 312.572 99.5135 316.03 99.5135V86.4865ZM315.121 91.8186C314.999 91.2076 314.96 90.7438 314.96 90.408H301.933C301.933 91.7362 302.085 93.0644 302.347 94.3734L315.121 91.8186ZM314.96 90.408C314.96 89.8233 315.001 89.2351 315.086 88.6412L302.19 86.7988C302.019 87.9969 301.933 89.2007 301.933 90.408H314.96ZM309.194 94.2097L312.554 93.9217L311.442 80.9423L308.082 81.2303L309.194 94.2097ZM318.117 89.6639C325.838 68.4973 331.027 51.458 333.556 38.6806L320.777 36.1514C318.441 47.95 313.519 64.2547 305.879 85.2001L318.117 89.6639ZM327.653 30.9207L323.813 30.6327L322.839 43.6233L326.679 43.9113L327.653 30.9207ZM324.287 75.7987C326.562 75.8656 329.904 75.8975 334.27 75.8975V62.8705C329.932 62.8705 326.746 62.8384 324.67 62.7773L324.287 75.7987ZM334.27 75.8975C338.696 75.8975 342.388 75.8006 345.294 75.593L344.366 62.599C341.897 62.7754 338.549 62.8705 334.27 62.8705V75.8975ZM351.128 67.4331C348.085 55.9095 344.872 45.2267 341.485 35.3912L329.168 39.6328C332.436 49.1253 335.559 59.4985 338.532 70.7589L351.128 67.4331ZM335.326 30.9985H334.75V44.0255H335.326V30.9985ZM328.729 35.0277C324.811 44.5241 321.297 55.4184 318.167 67.6767L330.789 70.8993C333.803 59.0936 337.137 48.8038 340.771 39.9963L328.729 35.0277Z" fill="#00A8A8"/>
</g>
<g style="mix-blend-mode:hard-light" filter="url(#filter1_f_315_239)">
<path d="M323.326 37.128L315.063 39.1938L316.555 45.1618L322.689 45.6219L323.326 37.128ZM323.134 31.752L322.078 23.3001L315.776 24.0877L314.732 30.3517L323.134 31.752ZM342.718 31.656L351.167 30.5774L350.49 25.268L345.412 23.5754L342.718 31.656ZM358.75 87.432L350.746 90.3445L352.615 95.4802L358.062 95.9218L358.75 87.432ZM362.302 87.72L370.785 86.9488L370.136 79.8095L362.991 79.2302L362.302 87.72ZM362.206 93.096L361.902 101.608L369.307 101.873L370.594 94.5763L362.206 93.096ZM345.982 93.096L337.63 94.7665L339.061 101.923L346.352 101.606L345.982 93.096ZM345.886 87.72L345.159 79.2334L338.412 79.8117L337.454 86.5154L345.886 87.72ZM349.246 87.432L349.974 95.9186L359.544 95.0983L357.585 85.6948L349.246 87.432ZM347.71 80.808L339.426 82.789L339.431 82.8098L339.436 82.8306L347.71 80.808ZM346.558 75.912L354.91 74.2416L353.613 67.7538L347.006 67.4061L346.558 75.912ZM322.75 76.008L322.164 67.5105L315.898 67.9427L314.459 74.0571L322.75 76.008ZM320.062 87.432L311.771 85.4811L309.498 95.1422L319.392 95.9233L320.062 87.432ZM323.71 87.72L332.193 86.9488L331.542 79.7941L324.381 79.2287L323.71 87.72ZM323.614 93.096L323.26 101.606L330.707 101.917L332.002 94.5763L323.614 93.096ZM308.734 93.096L300.382 94.7665L301.816 101.937L309.121 101.605L308.734 93.096ZM308.638 87.72L307.911 79.2334L301.164 79.8117L300.206 86.5154L308.638 87.72ZM311.998 87.432L312.726 95.9186L318.139 95.4546L320 90.3507L311.998 87.432ZM327.166 37.416L335.522 39.0697L337.388 29.641L327.803 28.9221L327.166 37.416ZM324.478 69.288L316.225 67.1809L313.593 77.4892L324.228 77.802L324.478 69.288ZM344.83 69.096L345.437 77.5921L355.69 76.8597L353.066 66.9215L344.83 69.096ZM335.326 37.512L343.38 34.7386L341.402 28.9943H335.326V37.512ZM334.75 37.512V28.9943H329.05L326.876 34.2633L334.75 37.512ZM331.59 35.0622C331.618 35.1762 331.606 35.1659 331.588 34.9875C331.572 34.8157 331.556 34.5431 331.556 34.152H314.52C314.52 35.7353 314.637 37.492 315.063 39.1938L331.59 35.0622ZM331.556 34.152C331.556 33.6059 331.563 33.2251 331.573 32.9804C331.575 32.9228 331.578 32.8792 331.579 32.8482C331.581 32.8167 331.582 32.8037 331.582 32.8064C331.582 32.808 331.58 32.8365 331.574 32.8866C331.568 32.934 331.557 33.0267 331.536 33.1523L314.732 30.3517C314.532 31.5539 314.52 33.077 314.52 34.152H331.556ZM324.191 40.2039C329.758 39.508 333.514 39.2137 335.71 39.2137V22.1783C332.402 22.1783 327.774 22.588 322.078 23.3001L324.191 40.2039ZM335.71 39.2137C337.853 39.2137 339.223 39.4692 340.025 39.7366L345.412 23.5754C342.374 22.5627 339.071 22.1783 335.71 22.1783V39.2137ZM334.269 32.7346C335.934 45.7782 341.573 65.1342 350.746 90.3445L366.754 84.5195C357.624 59.4258 352.574 41.5978 351.167 30.5774L334.269 32.7346ZM358.062 95.9218L361.614 96.2098L362.991 79.2302L359.439 78.9422L358.062 95.9218ZM353.819 88.4912C353.879 89.1491 353.92 89.6704 353.946 90.0684C353.959 90.2661 353.967 90.4193 353.972 90.5334C353.976 90.6519 353.976 90.7006 353.976 90.696H371.012C371.012 89.6912 370.912 88.3515 370.785 86.9488L353.819 88.4912ZM353.976 90.696C353.976 90.5681 353.982 90.5004 353.981 90.5124C353.981 90.5198 353.977 90.5681 353.965 90.6651C353.941 90.8644 353.896 91.174 353.818 91.6157L370.594 94.5763C370.797 93.4258 371.012 92.003 371.012 90.696H353.976ZM362.51 84.5837C360.558 84.514 357.646 84.4823 353.854 84.4823V101.518C357.614 101.518 360.271 101.55 361.902 101.608L362.51 84.5837ZM353.854 84.4823C350.087 84.4823 347.292 84.5133 345.612 84.5863L346.352 101.606C347.616 101.551 350.07 101.518 353.854 101.518V84.4823ZM354.334 91.4255C354.234 90.922 354.212 90.5911 354.212 90.408H337.176C337.176 91.8889 337.347 93.35 337.63 94.7665L354.334 91.4255ZM354.212 90.408C354.212 89.9191 354.247 89.4256 354.318 88.9246L337.454 86.5154C337.27 87.8064 337.176 89.1049 337.176 90.408H354.212ZM346.614 96.2066L349.974 95.9186L348.519 78.9454L345.159 79.2334L346.614 96.2066ZM357.585 85.6948C357.235 84.0136 356.695 81.6929 355.984 78.7854L339.436 82.8306C340.133 85.6831 340.618 87.7784 340.907 89.1692L357.585 85.6948ZM355.994 78.827C355.643 77.3585 355.374 76.2261 355.185 75.4251C354.976 74.5343 354.907 74.2239 354.91 74.2416L338.206 77.5824C338.311 78.1064 338.753 79.9748 339.426 82.789L355.994 78.827ZM347.006 67.4061C343.186 67.205 339.067 67.1063 334.654 67.1063V84.1417C338.818 84.1417 342.634 84.235 346.11 84.4179L347.006 67.4061ZM334.654 67.1063C330.26 67.1063 326.095 67.2394 322.164 67.5105L323.336 84.5055C326.829 84.2646 330.6 84.1417 334.654 84.1417V67.1063ZM314.459 74.0571L311.771 85.4811L328.353 89.3829L331.041 77.9589L314.459 74.0571ZM319.392 95.9233L323.04 96.2113L324.381 79.2287L320.733 78.9407L319.392 95.9233ZM315.227 88.4912C315.287 89.1491 315.328 89.6704 315.354 90.0684C315.367 90.2661 315.375 90.4193 315.38 90.5334C315.384 90.6519 315.384 90.7006 315.384 90.696H332.42C332.42 89.6912 332.32 88.3515 332.193 86.9488L315.227 88.4912ZM315.384 90.696C315.384 90.5681 315.39 90.5004 315.389 90.5124C315.389 90.5198 315.385 90.5681 315.373 90.6652C315.349 90.8644 315.304 91.174 315.226 91.6157L332.002 94.5763C332.205 93.4258 332.42 92.003 332.42 90.696H315.384ZM323.969 84.5857C322.24 84.5136 319.557 84.4823 316.03 84.4823V101.518C319.543 101.518 321.916 101.55 323.26 101.606L323.969 84.5857ZM316.03 84.4823C312.577 84.4823 309.97 84.5133 308.347 84.5871L309.121 101.605C310.314 101.551 312.572 101.518 316.03 101.518V84.4823ZM317.086 91.4255C316.986 90.922 316.964 90.5911 316.964 90.408H299.928C299.928 91.8889 300.099 93.35 300.382 94.7665L317.086 91.4255ZM316.964 90.408C316.964 89.9191 316.999 89.4256 317.07 88.9246L300.206 86.5154C300.022 87.8064 299.928 89.1049 299.928 90.408H316.964ZM309.366 96.2066L312.726 95.9186L311.271 78.9454L307.911 79.2334L309.366 96.2066ZM320 90.3507C327.733 69.15 332.963 51.9977 335.522 39.0697L318.811 35.7623C316.505 47.4103 311.623 63.602 303.996 84.5133L320 90.3507ZM327.803 28.9221L323.963 28.6341L322.689 45.6219L326.529 45.9098L327.803 28.9221ZM324.228 77.802C326.534 77.8698 329.9 77.9017 334.27 77.9017V60.8663C329.937 60.8663 326.775 60.8342 324.729 60.774L324.228 77.802ZM334.27 77.9017C338.718 77.9017 342.463 77.8045 345.437 77.5921L344.223 60.5999C341.821 60.7715 338.526 60.8663 334.27 60.8663V77.9017ZM353.066 66.9215C350.012 55.3574 346.785 44.627 343.38 34.7386L327.273 40.2854C330.523 49.725 333.632 60.0506 336.595 71.2705L353.066 66.9215ZM335.326 28.9943H334.75V46.0297H335.326V28.9943ZM326.876 34.2633C322.914 43.8657 319.373 54.8529 316.225 67.1809L332.731 71.3951C335.728 59.6591 339.034 49.4623 342.624 40.7607L326.876 34.2633Z" fill="#00A8A8"/>
</g>
<g style="mix-blend-mode:hard-light" filter="url(#filter2_ddi_315_239)">
<path d="M323.326 37.128L317.007 38.7078L318.148 43.2715L322.839 43.6233L323.326 37.128ZM323.134 31.752L322.326 25.2888L317.508 25.8911L316.709 30.6812L323.134 31.752ZM342.718 31.656L349.179 30.8312L348.661 26.771L344.778 25.4767L342.718 31.656ZM358.75 87.432L352.629 89.6592L354.058 93.5865L358.224 93.9242L358.75 87.432ZM362.302 87.72L368.789 87.1303L368.293 81.6708L362.829 81.2278L362.302 87.72ZM362.206 93.096L361.974 99.6054L367.636 99.8076L368.621 94.228L362.206 93.096ZM345.982 93.096L339.595 94.3734L340.69 99.8458L346.265 99.6034L345.982 93.096ZM345.886 87.72L345.33 81.2303L340.17 81.6725L339.438 86.7988L345.886 87.72ZM349.246 87.432L349.802 93.9217L357.121 93.2944L355.623 86.1035L349.246 87.432ZM347.71 80.808L341.375 82.3229L341.379 82.3388L341.383 82.3547L347.71 80.808ZM346.558 75.912L352.945 74.6346L351.953 69.6734L346.901 69.4075L346.558 75.912ZM322.75 76.008L322.302 69.5099L317.51 69.8404L316.41 74.5161L322.75 76.008ZM320.062 87.432L313.722 85.9401L311.983 93.328L319.55 93.9253L320.062 87.432ZM323.71 87.72L330.197 87.1303L329.7 81.659L324.223 81.2267L323.71 87.72ZM323.614 93.096L323.343 99.6039L329.038 99.8412L330.029 94.228L323.614 93.096ZM308.734 93.096L302.347 94.3734L303.444 99.8567L309.03 99.6028L308.734 93.096ZM308.638 87.72L308.082 81.2303L302.922 81.6725L302.19 86.7988L308.638 87.72ZM311.998 87.432L312.554 93.9217L316.694 93.5669L318.117 89.6639L311.998 87.432ZM327.166 37.416L333.556 38.6806L334.983 31.4704L327.653 30.9207L327.166 37.416ZM324.478 69.288L318.167 67.6767L316.154 75.5595L324.287 75.7987L324.478 69.288ZM344.83 69.096L345.294 75.593L353.135 75.033L351.128 67.4331L344.83 69.096ZM335.326 37.512L341.485 35.3912L339.972 30.9985H335.326V37.512ZM334.75 37.512V30.9985H330.391L328.729 35.0277L334.75 37.512ZM329.645 35.5482C329.646 35.5508 329.639 35.5225 329.628 35.4581C329.618 35.3942 329.605 35.3028 329.593 35.1806C329.569 34.9325 329.552 34.5942 329.552 34.152H316.525C316.525 35.6489 316.637 37.2256 317.007 38.7078L329.645 35.5482ZM329.552 34.152C329.552 33.5913 329.559 33.1815 329.571 32.9003C329.576 32.7608 329.582 32.6795 329.584 32.6444C329.588 32.5948 329.584 32.671 329.559 32.8228L316.709 30.6812C316.541 31.6909 316.525 33.0438 316.525 34.152H329.552ZM323.942 38.2152C329.525 37.5174 333.384 37.2095 335.71 37.2095V24.1825C332.533 24.1825 328.007 24.5786 322.326 25.2888L323.942 38.2152ZM335.71 37.2095C337.996 37.2095 339.593 37.4802 340.658 37.8353L344.778 25.4767C342.003 24.5517 338.928 24.1825 335.71 24.1825V37.2095ZM336.257 32.4808C337.892 45.2864 343.461 64.4626 352.629 89.6592L364.871 85.2048C355.735 60.0974 350.617 42.0896 349.179 30.8312L336.257 32.4808ZM358.224 93.9242L361.776 94.2122L362.829 81.2278L359.277 80.9398L358.224 93.9242ZM355.815 88.3097C355.944 89.7218 355.981 90.4479 355.981 90.696H369.008C369.008 89.7921 368.917 88.5342 368.789 87.1303L355.815 88.3097ZM355.981 90.696C355.981 90.5896 355.987 90.6335 355.955 90.9039C355.925 91.1505 355.874 91.4983 355.792 91.964L368.621 94.228C368.821 93.0922 369.008 91.816 369.008 90.696H355.981ZM362.439 86.5866C360.524 86.5182 357.643 86.4865 353.854 86.4865V99.5135C357.618 99.5135 360.305 99.5458 361.974 99.6054L362.439 86.5866ZM353.854 86.4865C350.085 86.4865 347.33 86.5177 345.699 86.5886L346.265 99.6034C347.578 99.5463 350.072 99.5135 353.854 99.5135V86.4865ZM352.369 91.8186C352.247 91.2076 352.208 90.7438 352.208 90.408H339.181C339.181 91.7362 339.333 93.0644 339.595 94.3734L352.369 91.8186ZM352.208 90.408C352.208 89.8233 352.249 89.2351 352.334 88.6412L339.438 86.7988C339.267 87.9969 339.181 89.2007 339.181 90.408H352.208ZM346.442 94.2097L349.802 93.9217L348.69 80.9423L345.33 81.2303L346.442 94.2097ZM355.623 86.1035C355.28 84.4565 354.747 82.1623 354.037 79.2613L341.383 82.3547C342.082 85.2137 342.573 87.3355 342.87 88.7605L355.623 86.1035ZM354.045 79.2931C353.694 77.8238 353.424 76.6887 353.235 75.8841C353.14 75.4812 353.067 75.1682 353.015 74.941C352.955 74.6805 352.94 74.609 352.945 74.6346L340.171 77.1894C340.266 77.6654 340.695 79.4782 341.375 82.3229L354.045 79.2931ZM346.901 69.4075C343.121 69.2085 339.037 69.1105 334.654 69.1105V82.1375C338.847 82.1375 342.699 82.2315 346.216 82.4165L346.901 69.4075ZM334.654 69.1105C330.3 69.1105 326.181 69.2423 322.302 69.5099L323.198 82.5061C326.743 82.2617 330.56 82.1375 334.654 82.1375V69.1105ZM316.41 74.5161L313.722 85.9401L326.403 88.9239L329.091 77.4999L316.41 74.5161ZM319.55 93.9253L323.198 94.2133L324.223 81.2267L320.575 80.9387L319.55 93.9253ZM317.223 88.3097C317.352 89.7218 317.389 90.4479 317.389 90.696H330.416C330.416 89.7921 330.325 88.5342 330.197 87.1303L317.223 88.3097ZM317.389 90.696C317.389 90.5896 317.395 90.6335 317.363 90.9039C317.333 91.1505 317.282 91.4983 317.2 91.964L330.029 94.228C330.229 93.0922 330.416 91.816 330.416 90.696H317.389ZM323.885 86.5881C322.202 86.518 319.556 86.4865 316.03 86.4865V99.5135C319.545 99.5135 321.954 99.546 323.343 99.6039L323.885 86.5881ZM316.03 86.4865C312.576 86.4865 310.01 86.5177 308.438 86.5892L309.03 99.6028C310.274 99.5463 312.572 99.5135 316.03 99.5135V86.4865ZM315.121 91.8186C314.999 91.2076 314.96 90.7438 314.96 90.408H301.933C301.933 91.7362 302.085 93.0644 302.347 94.3734L315.121 91.8186ZM314.96 90.408C314.96 89.8233 315.001 89.2351 315.086 88.6412L302.19 86.7988C302.019 87.9969 301.933 89.2007 301.933 90.408H314.96ZM309.194 94.2097L312.554 93.9217L311.442 80.9423L308.082 81.2303L309.194 94.2097ZM318.117 89.6639C325.838 68.4973 331.027 51.458 333.556 38.6806L320.777 36.1514C318.441 47.95 313.519 64.2547 305.879 85.2001L318.117 89.6639ZM327.653 30.9207L323.813 30.6327L322.839 43.6233L326.679 43.9113L327.653 30.9207ZM324.287 75.7987C326.562 75.8656 329.904 75.8975 334.27 75.8975V62.8705C329.932 62.8705 326.746 62.8384 324.67 62.7773L324.287 75.7987ZM334.27 75.8975C338.696 75.8975 342.388 75.8006 345.294 75.593L344.366 62.599C341.897 62.7754 338.549 62.8705 334.27 62.8705V75.8975ZM351.128 67.4331C348.085 55.9095 344.872 45.2267 341.485 35.3912L329.168 39.6328C332.436 49.1253 335.559 59.4985 338.532 70.7589L351.128 67.4331ZM335.326 30.9985H334.75V44.0255H335.326V30.9985ZM328.729 35.0277C324.811 44.5241 321.297 55.4184 318.167 67.6767L330.789 70.8993C333.803 59.0936 337.137 48.8038 340.771 39.9963L328.729 35.0277Z" fill="#33E9C6" fill-opacity="0.2"/>
</g>
<g filter="url(#filter3_f_315_239)">
<path d="M323.326 37.128L319.438 38.1002L320.14 40.9086L323.026 41.1251L323.326 37.128ZM323.134 31.752L322.637 27.7746L319.672 28.1453L319.18 31.093L323.134 31.752ZM342.718 31.656L346.694 31.1484L346.375 28.6499L343.986 27.8534L342.718 31.656ZM358.75 87.432L354.983 88.8026L355.863 91.2194L358.426 91.4272L358.75 87.432ZM362.302 87.72L366.294 87.3571L365.989 83.9974L362.626 83.7248L362.302 87.72ZM362.206 93.096L362.063 97.1018L365.548 97.2262L366.154 93.7926L362.206 93.096ZM345.982 93.096L342.052 93.8821L342.725 97.2497L346.156 97.1005L345.982 93.096ZM345.886 87.72L345.544 83.7263L342.369 83.9985L341.918 87.1531L345.886 87.72ZM349.246 87.432L349.588 91.4257L354.092 91.0397L353.17 86.6145L349.246 87.432ZM347.71 80.808L343.812 81.7402L343.814 81.75L343.816 81.7598L347.71 80.808ZM346.558 75.912L350.489 75.1259L349.878 72.0729L346.769 71.9092L346.558 75.912ZM322.75 76.008L322.474 72.0092L319.525 72.2125L318.848 75.0899L322.75 76.008ZM320.062 87.432L316.16 86.5139L315.091 91.0603L319.747 91.4279L320.062 87.432ZM323.71 87.72L327.702 87.3571L327.396 83.9902L324.026 83.7241L323.71 87.72ZM323.614 93.096L323.447 97.1009L326.952 97.2469L327.562 93.7926L323.614 93.096ZM308.734 93.096L304.804 93.8821L305.479 97.2565L308.916 97.1002L308.734 93.096ZM308.638 87.72L308.296 83.7263L305.121 83.9985L304.67 87.1531L308.638 87.72ZM311.998 87.432L312.34 91.4257L314.888 91.2073L315.764 88.8055L311.998 87.432ZM327.166 37.416L331.098 38.1942L331.976 33.7572L327.466 33.4189L327.166 37.416ZM324.478 69.288L320.594 68.2964L319.356 73.1474L324.36 73.2946L324.478 69.288ZM344.83 69.096L345.116 73.0941L349.941 72.7495L348.706 68.0727L344.83 69.096ZM335.326 37.512L339.116 36.2069L338.185 33.5037H335.326V37.512ZM334.75 37.512V33.5037H332.068L331.045 35.9832L334.75 37.512ZM327.215 36.1558C327.133 35.8273 327.047 35.1951 327.047 34.152H319.03C319.03 35.5409 319.136 36.8927 319.438 38.1002L327.215 36.1558ZM327.047 34.152C327.047 33.5731 327.054 33.1271 327.067 32.8002C327.082 32.4315 327.099 32.3433 327.088 32.411L319.18 31.093C319.052 31.8621 319.03 33.0023 319.03 34.152H327.047ZM323.631 35.7294C329.233 35.0292 333.22 34.7043 335.71 34.7043V26.6877C332.696 26.6877 328.299 27.0668 322.637 27.7746L323.631 35.7294ZM335.71 34.7043C338.175 34.7043 340.057 34.994 341.451 35.4586L343.986 27.8534C341.54 27.038 338.749 26.6877 335.71 26.6877V34.7043ZM338.742 32.1636C340.339 44.6716 345.821 63.6231 354.983 88.8026L362.517 86.0614C353.375 60.9369 348.169 42.7044 346.694 31.1484L338.742 32.1636ZM358.426 91.4272L361.978 91.7152L362.626 83.7248L359.074 83.4368L358.426 91.4272ZM358.31 88.0829C358.439 89.4934 358.486 90.3218 358.486 90.696H366.503C366.503 89.9182 366.422 88.7626 366.294 87.3571L358.31 88.0829ZM358.486 90.696C358.486 90.8339 358.446 91.3408 358.259 92.3994L366.154 93.7926C366.351 92.6752 366.503 91.5821 366.503 90.696H358.486ZM362.349 89.0902C360.482 89.0235 357.638 88.9917 353.854 88.9917V97.0083C357.622 97.0083 360.347 97.0405 362.063 97.1018L362.349 89.0902ZM353.854 88.9917C350.082 88.9917 347.378 89.0232 345.808 89.0915L346.156 97.1005C347.531 97.0408 350.074 97.0083 353.854 97.0083V88.9917ZM349.913 92.3099C349.764 91.5647 349.703 90.9346 349.703 90.408H341.686C341.686 91.5454 341.817 92.7073 342.052 93.8821L349.913 92.3099ZM349.703 90.408C349.703 89.7036 349.753 88.997 349.854 88.2869L341.918 87.1531C341.764 88.235 341.686 89.3204 341.686 90.408H349.703ZM346.228 91.7137L349.588 91.4257L348.904 83.4383L345.544 83.7263L346.228 91.7137ZM353.17 86.6145C352.836 85.0101 352.311 82.7491 351.604 79.8562L343.816 81.7598C344.517 84.6269 345.016 86.7819 345.322 88.2495L353.17 86.6145ZM351.609 79.8758C351.257 78.4054 350.986 77.2669 350.796 76.4579C350.701 76.053 350.627 75.7351 350.573 75.5014C350.546 75.3844 350.525 75.2926 350.51 75.224C350.493 75.1486 350.488 75.1223 350.489 75.1259L342.628 76.6981C342.711 77.1141 343.122 78.8573 343.812 81.7402L351.609 79.8758ZM346.769 71.9092C343.04 71.7129 339.001 71.6157 334.654 71.6157V79.6323C338.884 79.6323 342.78 79.7271 346.347 79.9148L346.769 71.9092ZM334.654 71.6157C330.35 71.6157 326.289 71.7461 322.474 72.0092L323.026 80.0068C326.635 79.7579 330.51 79.6323 334.654 79.6323V71.6157ZM318.848 75.0899L316.16 86.5139L323.964 88.3501L326.652 76.9261L318.848 75.0899ZM319.747 91.4279L323.395 91.7159L324.026 83.7241L320.378 83.4361L319.747 91.4279ZM319.718 88.0829C319.847 89.4934 319.894 90.3218 319.894 90.696H327.911C327.911 89.9182 327.83 88.7626 327.702 87.3571L319.718 88.0829ZM319.894 90.696C319.894 90.8339 319.854 91.3408 319.667 92.3994L327.562 93.7926C327.759 92.6752 327.911 91.5821 327.911 90.696H319.894ZM323.781 89.0911C322.154 89.0234 319.554 88.9917 316.03 88.9917V97.0083C319.547 97.0083 322.002 97.0406 323.447 97.1009L323.781 89.0911ZM316.03 88.9917C312.575 88.9917 310.061 89.0232 308.552 89.0918L308.916 97.1002C310.223 97.0408 312.573 97.0083 316.03 97.0083V88.9917ZM312.665 92.3099C312.516 91.5647 312.455 90.9346 312.455 90.408H304.438C304.438 91.5454 304.569 92.7073 304.804 93.8821L312.665 92.3099ZM312.455 90.408C312.455 89.7036 312.505 88.997 312.606 88.2869L304.67 87.1531C304.516 88.235 304.438 89.3204 304.438 90.408H312.455ZM308.98 91.7137L312.34 91.4257L311.656 83.4383L308.296 83.7263L308.98 91.7137ZM315.764 88.8055C323.469 67.6814 328.607 50.7834 331.098 38.1942L323.234 36.6378C320.862 48.6246 315.888 65.0706 308.233 86.0585L315.764 88.8055ZM327.466 33.4189L323.626 33.1309L323.026 41.1251L326.866 41.4131L327.466 33.4189ZM324.36 73.2946C326.597 73.3604 329.909 73.3923 334.27 73.3923V65.3757C329.927 65.3757 326.711 65.3436 324.596 65.2814L324.36 73.2946ZM334.27 73.3923C338.667 73.3923 342.293 73.2958 345.116 73.0941L344.545 65.0979C341.991 65.2802 338.577 65.3757 334.27 65.3757V73.3923ZM348.706 68.0727C345.676 56.5997 342.48 45.9765 339.116 36.2069L331.536 38.8171C334.828 48.3755 337.968 58.8083 340.955 70.1193L348.706 68.0727ZM335.326 33.5037H334.75V41.5203H335.326V33.5037ZM331.045 35.9832C327.181 45.3472 323.702 56.1251 320.594 68.2964L328.362 70.2796C331.398 58.3868 334.767 47.9808 338.456 39.0408L331.045 35.9832Z" fill="#33E9E9"/>
</g>
<g filter="url(#filter4_f_315_239)">
<path d="M323.378 37.128L321.433 37.6141L321.784 39.0183L323.228 39.1266L323.378 37.128ZM323.186 31.752L322.937 29.7633L321.455 29.9486L321.209 31.4225L323.186 31.752ZM342.77 31.656L344.758 31.4022L344.598 30.1529L343.404 29.7547L342.77 31.656ZM358.802 87.432L356.918 88.1173L357.358 89.3257L358.64 89.4296L358.802 87.432ZM362.354 87.72L364.35 87.5385L364.197 85.8587L362.516 85.7224L362.354 87.72ZM362.258 93.096L362.186 95.0989L363.928 95.1611L364.231 93.4443L362.258 93.096ZM346.034 93.096L344.069 93.489L344.405 95.1729L346.121 95.0983L346.034 93.096ZM345.938 87.72L345.767 85.7232L344.179 85.8592L343.954 87.4366L345.938 87.72ZM349.298 87.432L349.469 89.4288L351.721 89.2358L351.26 87.0232L349.298 87.432ZM347.762 80.808L345.813 81.2741L345.815 81.2839L347.762 80.808ZM346.61 75.912L348.575 75.519L348.27 73.9924L346.715 73.9106L346.61 75.912ZM322.802 76.008L322.664 74.0086L321.189 74.1103L320.851 75.549L322.802 76.008ZM320.114 87.432L318.163 86.973L317.628 89.2462L319.956 89.4299L320.114 87.432ZM323.762 87.72L325.758 87.5386L325.605 85.8551L323.919 85.722L323.762 87.72ZM323.666 93.096L323.582 95.0984L325.335 95.1714L325.639 93.4443L323.666 93.096ZM308.786 93.096L306.821 93.489L307.158 95.1762L308.877 95.0981L308.786 93.096ZM308.69 87.72L308.519 85.7232L306.931 85.8592L306.706 87.4366L308.69 87.72ZM312.05 87.432L312.221 89.4288L313.495 89.3197L313.933 88.1187L312.05 87.432ZM327.218 37.416L329.184 37.8051L329.623 35.5866L327.368 35.4174L327.218 37.416ZM324.53 69.288L322.588 68.7922L321.969 71.2177L324.471 71.2913L324.53 69.288ZM344.882 69.096L345.025 71.0951L347.437 70.9228L346.82 68.5843L344.882 69.096ZM335.378 37.512L337.273 36.8594L336.807 35.5078H335.378V37.512ZM334.802 37.512V35.5078H333.461L332.949 36.7476L334.802 37.512ZM325.322 36.6419C325.185 36.0937 325.094 35.2816 325.094 34.152H321.086C321.086 35.4544 321.186 36.6263 321.433 37.6141L325.322 36.6419ZM325.094 34.152C325.094 32.9028 325.131 32.273 325.163 32.0815L321.209 31.4225C321.113 31.999 321.086 32.9692 321.086 34.152H325.094ZM323.434 33.7407C329.051 33.0386 333.141 32.7002 335.762 32.7002V28.6918C332.879 28.6918 328.584 29.0574 322.937 29.7633L323.434 33.7407ZM335.762 32.7002C338.37 32.7002 340.479 33.005 342.136 33.5573L343.404 29.7547C341.22 29.027 338.657 28.6918 335.762 28.6918V32.7002ZM340.782 31.9098C342.348 44.1798 347.761 62.9516 356.918 88.1173L360.685 86.7467C351.538 61.6084 346.263 43.1962 344.758 31.4022L340.782 31.9098ZM358.64 89.4296L362.192 89.7176L362.516 85.7224L358.964 85.4344L358.64 89.4296ZM360.358 87.9015C360.486 89.3107 360.542 90.2209 360.542 90.696H364.55C364.55 90.0191 364.478 88.9453 364.35 87.5385L360.358 87.9015ZM360.542 90.696C360.542 91.0209 360.473 91.6744 360.284 92.7477L364.231 93.4443C364.426 92.3416 364.55 91.3951 364.55 90.696H360.542ZM362.329 91.0931C360.499 91.0278 357.686 90.9958 353.906 90.9958V95.0042C357.678 95.0042 360.432 95.0362 362.186 95.0989L362.329 91.0931ZM353.906 90.9958C350.132 90.9958 347.468 91.0276 345.947 91.0937L346.121 95.0983C347.544 95.0364 350.128 95.0042 353.906 95.0042V90.9958ZM347.999 92.703C347.828 91.8503 347.75 91.0873 347.75 90.408H343.742C343.742 91.3927 343.855 92.4217 344.069 93.489L347.999 92.703ZM347.75 90.408C347.75 89.6078 347.807 88.8065 347.922 88.0034L343.954 87.4366C343.812 88.4255 343.742 89.4162 343.742 90.408H347.75ZM346.109 89.7168L349.469 89.4288L349.127 85.4352L345.767 85.7232L346.109 89.7168ZM351.26 87.0232C350.933 85.4531 350.414 83.2186 349.709 80.3321L345.815 81.2839C346.517 84.1574 347.023 86.3389 347.336 87.8408L351.26 87.0232ZM349.711 80.3419C349 77.3673 348.629 75.791 348.575 75.519L344.645 76.305C344.718 76.673 345.116 78.3607 345.813 81.2741L349.711 80.3419ZM346.715 73.9106C343.027 73.7165 339.023 73.6198 334.706 73.6198V77.6282C338.964 77.6282 342.897 77.7235 346.504 77.9134L346.715 73.9106ZM334.706 73.6198C330.442 73.6198 326.427 73.749 322.664 74.0086L322.94 78.0074C326.6 77.755 330.522 77.6282 334.706 77.6282V73.6198ZM320.851 75.549L318.163 86.973L322.065 87.891L324.753 76.467L320.851 75.549ZM319.956 89.4299L323.604 89.7179L323.919 85.722L320.271 85.434L319.956 89.4299ZM321.766 87.9014C321.894 89.3107 321.95 90.2209 321.95 90.696H325.958C325.958 90.0191 325.886 88.9453 325.758 87.5386L321.766 87.9014ZM321.95 90.696C321.95 91.0209 321.881 91.6744 321.692 92.7477L325.639 93.4443C325.834 92.3416 325.958 91.3951 325.958 90.696H321.95ZM323.749 91.0936C322.168 91.0277 319.603 90.9958 316.082 90.9958V95.0042C319.6 95.0042 322.092 95.0363 323.582 95.0984L323.749 91.0936ZM316.082 90.9958C312.626 90.9958 310.153 91.0276 308.695 91.0939L308.877 95.0981C310.234 95.0364 312.625 95.0042 316.082 95.0042V90.9958ZM310.751 92.703C310.58 91.8503 310.502 91.0873 310.502 90.408H306.494C306.494 91.3927 306.607 92.4217 306.821 93.489L310.751 92.703ZM310.502 90.408C310.502 89.6078 310.559 88.8065 310.674 88.0034L306.706 87.4366C306.564 88.4255 306.494 89.4162 306.494 90.408H310.502ZM308.861 89.7168L312.221 89.4288L311.879 85.4352L308.519 85.7232L308.861 89.7168ZM313.933 88.1187C321.625 67.0287 326.722 50.2437 329.184 37.8051L325.252 37.0269C322.85 49.1643 317.834 65.7233 310.167 86.7453L313.933 88.1187ZM327.368 35.4174L323.528 35.1294L323.228 39.1266L327.068 39.4145L327.368 35.4174ZM324.471 71.2913C326.677 71.3562 329.965 71.3882 334.322 71.3882V67.3798C329.974 67.3798 326.734 67.3478 324.589 67.2847L324.471 71.2913ZM334.322 71.3882C338.696 71.3882 342.269 71.2919 345.025 71.0951L344.739 67.0969C342.118 67.2841 338.651 67.3798 334.322 67.3798V71.3882ZM346.82 68.5843C343.801 57.1518 340.619 46.5762 337.273 36.8594L333.483 38.1646C336.793 47.7758 339.947 58.2561 342.944 69.6077L346.82 68.5843ZM335.378 35.5078H334.802V39.5162H335.378V35.5078ZM332.949 36.7476C329.129 46.0056 325.678 56.6906 322.588 68.7922L326.472 69.7838C329.526 57.8214 332.922 47.3224 336.654 38.2764L332.949 36.7476Z" fill="white"/>
</g>
<defs>
<filter id="filter0_f_315_239" x="278.384" y="0.633545" width="114.173" height="122.525" filterUnits="userSpaceOnUse" color-interpolation-filters="sRGB">
<feFlood flood-opacity="0" result="BackgroundImageFix"/>
<feBlend mode="normal" in="SourceGraphic" in2="BackgroundImageFix" result="shape"/>
<feGaussianBlur stdDeviation="15.0312" result="effect1_foregroundBlur_315_239"/>
</filter>
<filter id="filter1_f_315_239" x="298.425" y="20.6752" width="74.0895" height="82.4416" filterUnits="userSpaceOnUse" color-interpolation-filters="sRGB">
<feFlood flood-opacity="0" result="BackgroundImageFix"/>
<feBlend mode="normal" in="SourceGraphic" in2="BackgroundImageFix" result="shape"/>
<feGaussianBlur stdDeviation="5.01042" result="effect1_foregroundBlur_315_239"/>
</filter>
<filter id="filter2_ddi_315_239" x="295.419" y="27.6898" width="80.102" height="88.4541" filterUnits="userSpaceOnUse" color-interpolation-filters="sRGB">
<feFlood flood-opacity="0" result="BackgroundImageFix"/>
<feColorMatrix in="SourceAlpha" type="matrix" values="0 0 0 0 0 0 0 0 0 0 0 0 0 0 0 0 0 0 127 0" result="hardAlpha"/>
<feOffset dy="6.51354"/>
<feGaussianBlur stdDeviation="2.50521"/>
<feColorMatrix type="matrix" values="0 0 0 0 0 0 0 0 0 0.3 0 0 0 0 0.275 0 0 0 0.7 0"/>
<feBlend mode="multiply" in2="BackgroundImageFix" result="effect1_dropShadow_315_239"/>
<feColorMatrix in="SourceAlpha" type="matrix" values="0 0 0 0 0 0 0 0 0 0 0 0 0 0 0 0 0 0 127 0" result="hardAlpha"/>
<feOffset dy="10.0208"/>
<feGaussianBlur stdDeviation="6.51354"/>
<feColorMatrix type="matrix" values="0 0 0 0 0 0 0 0 0 0.6 0 0 0 0 0.6 0 0 0 1 0"/>
<feBlend mode="color-dodge" in2="effect1_dropShadow_315_239" result="effect2_dropShadow_315_239"/>
<feBlend mode="normal" in="SourceGraphic" in2="effect2_dropShadow_315_239" result="shape"/>
<feColorMatrix in="SourceAlpha" type="matrix" values="0 0 0 0 0 0 0 0 0 0 0 0 0 0 0 0 0 0 127 0" result="hardAlpha"/>
<feOffset dx="-0.651354" dy="1.30271"/>
<feGaussianBlur stdDeviation="0.325677"/>
<feComposite in2="hardAlpha" operator="arithmetic" k2="-1" k3="1"/>
<feColorMatrix type="matrix" values="0 0 0 0 1 0 0 0 0 1 0 0 0 0 1 0 0 0 0.5 0"/>
<feBlend mode="normal" in2="shape" result="effect3_innerShadow_315_239"/>
</filter>
<filter id="filter3_f_315_239" x="307.444" y="29.694" width="56.052" height="64.4041" filterUnits="userSpaceOnUse" color-interpolation-filters="sRGB">
<feFlood flood-opacity="0" result="BackgroundImageFix"/>
<feBlend mode="normal" in="SourceGraphic" in2="BackgroundImageFix" result="shape"/>
<feGaussianBlur stdDeviation="0.501042" result="effect1_foregroundBlur_315_239"/>
</filter>
<filter id="filter4_f_315_239" x="307.83" y="30.028" width="55.3845" height="63.736" filterUnits="userSpaceOnUse" color-interpolation-filters="sRGB">
<feFlood flood-opacity="0" result="BackgroundImageFix"/>
<feBlend mode="normal" in="SourceGraphic" in2="BackgroundImageFix" result="shape"/>
<feGaussianBlur stdDeviation="0.334028" result="effect1_foregroundBlur_315_239"/>
</filter>
</defs>
</svg>
