<svg width="570" height="330" viewBox="0 0 570 330" fill="none" xmlns="http://www.w3.org/2000/svg">
<ellipse cx="323" cy="75" rx="33" ry="26" fill="#0D1638"/>
<path d="M339 75C339 80.7921 332.977 87 323.5 87C314.023 87 308 80.7921 308 75C308 69.2079 314.023 63 323.5 63C332.977 63 339 69.2079 339 75Z" fill="#FF0000" stroke="black" stroke-width="10"/>
<path d="M306.582 266.113L306.556 266.069L306.522 266.031C292.824 250.711 278.177 219.106 271.087 193.042C267.539 180 265.91 168.437 267.187 161.029C267.825 157.324 269.17 154.771 271.242 153.527C273.303 152.291 276.244 152.253 280.307 153.961C294.075 159.747 307.498 158.806 320.335 157.906C323.029 157.717 325.697 157.53 328.337 157.407C335.97 157.052 343.381 157.228 350.587 159.391C357.782 161.55 364.8 165.698 371.627 173.333C384.395 187.611 386.456 201.693 388.379 214.832C388.513 215.748 388.647 216.659 388.783 217.566C389.827 224.514 391.048 231.202 394.093 237.432C397.145 243.678 402.017 249.438 410.321 254.572C414.378 257.081 415.982 259.619 415.927 262.014C415.871 264.44 414.117 266.961 410.866 269.422C404.387 274.327 392.406 278.652 378.66 281.204C364.93 283.753 349.52 284.517 336.223 282.357C322.905 280.195 311.829 275.122 306.582 266.113Z" fill="#130D5B" fill-opacity="0.7" stroke="#0047FF"/>
<path d="M256.275 4.07076C256.275 4.07076 118.896 4.07076 86.9243 4.07076C54.9525 4.07076 22.4589 47.2372 1 119.751M256.275 4.07076V73.4787M256.275 4.07076C256.275 4.07076 343.199 -8.87434 369.176 18.393C395.153 45.6604 408.641 80.0891 408.641 80.0891C408.641 80.0891 444.609 152.802 446.608 158.862C448.606 164.921 459.097 183.099 459.097 183.099C459.097 183.099 471.086 204.858 475.582 212.295C480.078 219.732 569 270.686 569 270.686L471.086 259.669C471.086 259.669 354.189 296.025 323.716 281.152M1 119.751H256.275M1 119.751L104.409 73.4787H256.275M256.275 119.751V73.4787M256.275 119.751L272.761 200.41C272.761 200.41 293.243 266.279 323.716 281.152M323.716 281.152L324.737 328.5L281.753 312H324.737" stroke="#FFDEDE"/>
<path d="M281.123 22.8211C283.281 20.5276 286.915 19.2285 291.812 19.0003C296.71 18.7721 302.771 19.6193 309.639 21.4921C316.507 23.3649 324.044 26.2254 331.804 29.9052C339.564 33.5849 347.392 38.0094 354.825 42.918C362.259 47.8267 369.148 53.1203 375.088 58.4869C381.027 63.8536 385.896 69.1848 389.408 74.1666C392.921 79.1483 395.005 83.6798 395.538 87.4942C396.072 91.3086 397.029 96.9521 394.5 99.0001L384 89.5001L373.485 84.6235L363 66.5003C363.774 65.8738 355.252 69.0176 355.088 67.8507C354.925 66.6837 354.287 65.2973 353.213 63.7732C352.138 62.2491 350.649 60.6181 348.832 58.9763C347.015 57.3344 344.907 55.7149 342.633 54.2132C340.359 52.7114 337.964 51.3578 335.59 50.2321C333.215 49.1063 330.91 48.2312 328.809 47.6582C326.707 47.0853 324.853 46.8261 323.355 46.8959C321.857 46.9657 311.915 29.9358 314 40.0003L281.123 22.8211Z" fill="#150B34" fill-opacity="0.94"/>
<path d="M365 283.5V311M365 311H396.5L365 329V311Z" stroke="#FFDEDE"/>
</svg>
