<svg width="40" height="40" viewBox="0 0 40 40" fill="none" xmlns="http://www.w3.org/2000/svg">
<path d="M18.125 15.375C17.625 15.875 16.875 15.875 16.375 15.375L13.125 12.125C12.625 11.625 12.625 10.875 13.125 10.375C13.625 9.875 14.375 9.875 14.875 10.375L18.125 13.625C18.625 14.0625 18.625 14.875 18.125 15.375Z" fill="url(#paint0_linear_507_115)"/>
<path d="M29.625 26.8125C29.125 27.3125 28.375 27.3125 27.875 26.8125L24.75 23.6875C24.25 23.1875 24.25 22.4375 24.75 21.9375C25.25 21.4375 26 21.4375 26.5 21.9375L29.625 25.0625C30.0625 25.5625 30.0625 26.3125 29.625 26.8125Z" fill="url(#paint1_linear_507_115)"/>
<path d="M31.25 5.625H8.75C7 5.625 5.625 7 5.625 8.75V31.25C5.625 33 7 34.375 8.75 34.375H31.25C33 34.375 34.375 33 34.375 31.25V8.75C34.375 7 33 5.625 31.25 5.625ZM33.125 31.25C33.125 32.3125 32.3125 33.125 31.25 33.125H8.75C7.6875 33.125 6.875 32.3125 6.875 31.25V8.75C6.875 7.6875 7.6875 6.875 8.75 6.875H31.25C32.3125 6.875 33.125 7.6875 33.125 8.75V31.25Z" fill="url(#paint2_linear_507_115)"/>
<path d="M30.0624 24.625L26.9374 21.5C26.8124 21.375 26.7499 21.3125 26.6249 21.25C26.3124 21.0625 25.9374 20.9375 25.4999 20.9375C24.9999 20.9375 24.4999 21.125 24.1249 21.5L22.0624 23.5625C19.6249 22.3125 17.7499 20.375 16.4374 17.9375L18.4999 15.875C18.5624 15.8125 18.6874 15.6875 18.7499 15.5625C18.9374 15.25 19.0624 14.875 19.0624 14.5C19.0624 14.125 18.9374 13.75 18.7499 13.4375C18.6874 13.3125 18.6249 13.25 18.4999 13.125L15.3124 9.9375C15.1249 9.75 14.9374 9.625 14.6874 9.5C14.5624 9.4375 14.4374 9.4375 14.3124 9.375C14.1874 9.375 14.0624 9.3125 13.9374 9.3125C13.4374 9.3125 12.9374 9.5 12.5624 9.875L10.6874 11.75C9.18736 13.25 8.87486 15.5625 9.99986 17.375C13.1249 22.5 17.3124 26.6875 22.4999 29.875C23.1874 30.3125 24.0624 30.5625 24.8749 30.5625C26.1249 30.5625 27.2499 30.0625 28.1249 29.1875L29.9999 27.3125C30.6874 26.625 30.7499 25.625 30.2499 24.875C30.2499 24.8125 30.1249 24.6875 30.0624 24.625ZM13.5624 10.8125C13.6874 10.6875 13.8124 10.625 13.9999 10.625C14.0624 10.625 14.0624 10.625 14.1249 10.625C14.2499 10.625 14.3749 10.6875 14.4374 10.8125L17.6874 14.0625C17.8124 14.1875 17.8749 14.3125 17.8749 14.5C17.8749 14.6875 17.8124 14.8125 17.6874 14.9375C17.4374 15.1875 17.0624 15.1875 16.8124 14.9375L13.5624 11.6875C13.3124 11.4375 13.3124 11.0625 13.5624 10.8125ZM27.2499 28.375C26.6249 29 25.7499 29.375 24.8749 29.375C24.2499 29.375 23.6874 29.1875 23.1249 28.875C18.1249 25.875 14.1249 21.8125 11.0624 16.8125C10.2499 15.5 10.4999 13.8125 11.5624 12.6875L12.2499 12C12.3124 12.1875 12.4374 12.375 12.6249 12.5625L15.8749 15.8125C15.9999 15.9375 16.1874 16.0625 16.3749 16.1875L15.4999 17.0625C15.1249 17.4375 15.0624 17.9375 15.3124 18.375C16.7499 21.125 18.8124 23.25 21.5624 24.625C21.9999 24.875 22.5624 24.75 22.8749 24.4375L23.8124 23.5C23.8749 23.75 24.0624 23.9375 24.2499 24.125L27.3749 27.25C27.5624 27.4375 27.7499 27.5625 27.9999 27.625L27.2499 28.375ZM29.1249 26.375C28.8749 26.625 28.4999 26.625 28.2499 26.375L25.1249 23.25C25.0624 23.125 24.9999 23 24.9999 22.8125C24.9999 22.625 25.0624 22.5 25.1874 22.375C25.3124 22.25 25.4999 22.1875 25.6249 22.1875C25.6874 22.1875 25.8124 22.1875 25.8749 22.25C25.9374 22.25 25.9374 22.3125 25.9999 22.3125L29.1874 25.5C29.2499 25.5625 29.2499 25.625 29.3124 25.6875C29.3749 25.9375 29.3124 26.1875 29.1249 26.375Z" fill="url(#paint3_linear_507_115)"/>
<defs>
<linearGradient id="paint0_linear_507_115" x1="12.7688" y1="12.8713" x2="18.4925" y2="12.8713" gradientUnits="userSpaceOnUse">
<stop stop-color="#6DC7FF"/>
<stop offset="1" stop-color="#E6ABFF"/>
</linearGradient>
<linearGradient id="paint1_linear_507_115" x1="24.3512" y1="24.3719" x2="29.9638" y2="24.3719" gradientUnits="userSpaceOnUse">
<stop stop-color="#6DC7FF"/>
<stop offset="1" stop-color="#E6ABFF"/>
</linearGradient>
<linearGradient id="paint2_linear_507_115" x1="20" y1="3.4975" x2="20" y2="32.1969" gradientUnits="userSpaceOnUse">
<stop stop-color="#1A6DFF"/>
<stop offset="1" stop-color="#C822FF"/>
</linearGradient>
<linearGradient id="paint3_linear_507_115" x1="19.9992" y1="3.4975" x2="19.9992" y2="32.1969" gradientUnits="userSpaceOnUse">
<stop stop-color="#1A6DFF"/>
<stop offset="1" stop-color="#C822FF"/>
</linearGradient>
</defs>
</svg>
