<svg width="118" height="373" viewBox="0 0 118 373" fill="none" xmlns="http://www.w3.org/2000/svg">
<rect x="38.8354" y="30.127" width="40.3291" height="63.1231" fill="#F1F2EE"/>
<path d="M7.46826 7.99999C7.46826 3.58171 11.05 0 15.4683 0H101.038C105.456 0 109.038 3.58172 109.038 8V22.1269C109.038 26.5452 105.456 30.1269 101.038 30.1269H15.4683C11.05 30.1269 7.46826 26.5452 7.46826 22.1269V7.99999Z" fill="#FFF6EB"/>
<path d="M0 133.208C0 105.593 22.3858 83.2077 50 83.2077H68C95.6142 83.2077 118 105.593 118 133.208V373H0V133.208Z" fill="#FFF6EB"/>
<path d="M55.2693 304.885C53.9869 305.508 52.2022 306.471 50.1318 307.704C49.1099 308.307 48.0142 308.963 46.8798 309.684C45.7531 310.388 44.5774 311.126 43.3867 311.913C42.2084 312.693 40.9969 313.47 39.7952 314.299C38.6059 315.113 37.41 315.93 36.2272 316.739C35.0656 317.567 33.9163 318.386 32.7969 319.183C31.6875 319.97 30.6261 320.797 29.6036 321.574C28.5908 322.344 27.6353 323.126 26.742 323.874C25.8557 324.618 25.0355 325.346 24.2979 326.05C23.5624 326.74 22.9063 327.407 22.3485 328.042C22.068 328.35 21.8093 328.649 21.5825 328.949C21.4681 329.094 21.3582 329.233 21.2535 329.367C21.1539 329.512 21.0595 329.649 20.9697 329.778C20.8805 329.908 20.7958 330.03 20.7163 330.147C20.6445 330.274 20.5767 330.394 20.5146 330.507C20.3925 330.734 20.2787 330.908 20.2146 331.091C20.0745 331.433 20 331.616 20 331.616C20 331.616 20.0905 331.455 20.2606 331.154C20.3376 330.993 20.4681 330.846 20.607 330.656C20.6775 330.563 20.7531 330.465 20.8345 330.358C20.9212 330.26 21.0135 330.157 21.1112 330.049C21.2081 329.939 21.3109 329.825 21.419 329.705C21.532 329.595 21.6503 329.48 21.7744 329.36C21.8972 329.24 22.0259 329.116 22.1596 328.986C22.2967 328.864 22.4396 328.737 22.5869 328.605C22.8798 328.338 23.2017 328.072 23.543 327.798C23.8818 327.512 24.247 327.228 24.6282 326.93C25.3969 326.334 26.2488 325.718 27.1551 325.053C28.0774 324.405 29.0587 323.713 30.0839 322.992C32.1781 321.559 34.4586 319.997 36.789 318.401C37.9712 317.58 39.1664 316.748 40.355 315.922C41.5605 315.096 42.7442 314.231 43.9115 313.412C46.2728 311.722 48.5223 310.111 50.4854 308.706C52.4827 307.276 54.1731 306.066 55.3857 305.244C55.9984 304.834 56.4795 304.513 56.8182 304.306C57.1588 304.108 57.3418 304 57.3418 304C57.3418 304 57.1497 304.071 56.7916 304.205C56.4381 304.35 55.9132 304.562 55.2693 304.885" fill="#181509"/>
<path d="M71.9507 311.284C70.0114 313.035 68.3037 315.056 66.5887 316.554C66.4525 316.332 66.3002 316.101 66.1173 315.869C65.9993 315.72 65.8704 315.572 65.7341 315.431L65.5229 315.225C65.4952 315.207 65.4063 315.108 65.3502 315.053L65.2242 314.896L65.0989 314.688C65.0231 314.539 64.9553 314.38 64.8992 314.217C64.7892 313.89 64.7207 313.554 64.6785 313.263C64.5962 312.676 64.6034 312.267 64.6034 312.267C64.6034 312.267 64.5066 312.654 64.4556 313.272C64.4322 313.581 64.422 313.948 64.4614 314.351C64.4818 314.553 64.5168 314.762 64.5692 314.977C64.5976 315.083 64.634 315.189 64.6676 315.298C64.7135 315.409 64.7681 315.528 64.8213 315.636C64.8766 315.729 64.8963 315.782 64.9808 315.908L65.112 316.13C65.1943 316.28 65.2701 316.432 65.3364 316.582C65.4544 316.849 65.5433 317.106 65.6147 317.34C64.9553 317.825 64.2894 318.213 63.6017 318.456C62.9336 318.692 62.4106 318.784 61.9778 318.784C60.437 318.784 60.0268 317.619 58.2142 317.619C56.4009 317.619 55.9907 318.784 54.4506 318.784C54.0171 318.784 53.4941 318.692 52.826 318.456C51.8505 318.111 50.9172 317.474 49.9883 316.681C49.9942 316.626 49.9985 316.579 50.0051 316.52C50.0364 316.253 50.0772 315.942 50.1341 315.618C50.1901 315.294 50.2623 314.951 50.3614 314.657C50.4022 314.529 50.4867 314.369 50.5668 314.191C50.6455 314.019 50.7118 313.855 50.7766 313.693C50.9048 313.371 51.0148 313.068 51.1066 312.808C51.2895 312.287 51.4002 311.937 51.4002 311.937C51.4002 311.937 51.2116 312.235 50.9165 312.666C50.7686 312.881 50.5945 313.13 50.4022 313.386C50.3067 313.512 50.2047 313.645 50.1035 313.765C50.0066 313.883 49.8871 314.003 49.761 314.186C49.5636 314.481 49.4157 314.781 49.2817 315.07C49.2015 314.959 49.117 314.843 49.0238 314.717C48.524 314.042 47.8414 313.167 47.1172 312.346C46.3952 311.523 45.6295 310.761 45.03 310.239C44.7283 309.981 44.4763 309.771 44.2905 309.638C44.1091 309.501 44.0056 309.423 44.0056 309.423C44.0056 309.423 44.096 309.523 44.2541 309.698C44.4143 309.867 44.63 310.129 44.8842 310.444C45.3891 311.082 46.0135 311.982 46.5854 312.925C46.7937 313.268 46.9919 313.614 47.1835 313.954C46.318 313.061 45.4255 312.139 44.4777 311.284C41.6933 308.77 41.9475 308.849 41.6357 301.571C41.6175 301.326 41.6 301.076 41.5833 300.825C41.5519 300.353 41.525 299.886 41.5046 299.452C41.7632 300.051 42.0757 300.711 42.4145 301.344C42.8866 302.229 43.4002 303.058 43.8038 303.655C44.2038 304.254 44.485 304.631 44.485 304.631C44.485 304.631 44.3582 304.143 44.2016 303.409C44.0413 302.676 43.865 301.694 43.747 300.718C43.7361 300.633 43.7288 300.548 43.7193 300.463C44.0967 301.165 44.5397 301.84 44.9862 302.558C45.2981 303.062 45.6266 303.594 45.8605 304.115C45.9756 304.356 46.047 304.668 46.0266 304.661C46.0266 304.708 46.0084 304.816 46.0091 305.009C46.0127 305.168 46.0288 305.366 46.106 305.59C46.1803 305.815 46.3355 306.026 46.4732 306.143C46.6109 306.262 46.7274 306.322 46.8309 306.374C47.225 306.545 47.4866 306.602 47.7729 306.711C48.0526 306.811 48.3229 306.928 48.5939 307.063C49.1498 307.332 49.6241 307.696 50.2703 308.114C51.5408 308.888 52.8821 309.414 54.2809 309.825C55.6775 310.229 57.1287 310.479 58.6047 310.535C60.0771 310.589 61.5932 310.433 63.0517 309.808C63.8188 309.455 64.371 309.09 64.9786 308.806C65.5797 308.505 66.18 308.259 66.7657 308.088C67.3602 307.91 67.8928 307.828 68.5106 307.805C68.6687 307.796 68.8421 307.79 69.0533 307.758C69.261 307.728 69.5218 307.662 69.7709 307.517C70.2794 307.213 70.5548 306.769 70.7581 306.421C71.1726 305.661 71.4859 304.912 71.7445 304.184C71.7256 304.262 71.7096 304.344 71.6899 304.423C71.5668 304.856 71.4458 305.281 71.3293 305.693C71.1894 306.1 71.0553 306.491 70.9271 306.864C70.7967 307.237 70.6444 307.572 70.5184 307.894C70.3873 308.212 70.2722 308.51 70.1469 308.756C70.0267 309.008 69.9217 309.228 69.835 309.408C69.6617 309.771 69.5618 309.979 69.5618 309.979C69.5618 309.979 69.7025 309.811 69.948 309.516C70.0711 309.367 70.2212 309.187 70.3931 308.979C70.5716 308.777 70.7486 308.525 70.9475 308.252C71.1428 307.977 71.3708 307.689 71.5843 307.359C71.797 307.025 72.0214 306.673 72.2538 306.31C72.4687 305.925 72.6909 305.529 72.9167 305.125C73.1215 304.723 73.3189 304.304 73.5214 303.883C73.3633 304.844 73.1338 305.806 72.7659 306.597L72.7208 306.695L72.7098 306.719C72.7288 306.692 72.7062 306.729 72.7062 306.729L72.6756 306.786L72.551 307.012C72.468 307.161 72.3842 307.32 72.304 307.451C72.143 307.726 71.9813 308.002 71.8014 308.281C71.4546 308.838 71.0918 309.377 70.7384 309.895C70.0274 310.932 69.336 311.88 68.7371 312.687C67.5372 314.299 66.706 315.345 66.706 315.345C66.706 315.345 67.6749 314.496 69.097 313.161C69.8074 312.492 70.6313 311.702 71.4976 310.818C71.9296 310.375 72.3747 309.913 72.8177 309.417C73.0391 309.176 73.2642 308.911 73.4908 308.64C73.6088 308.503 73.7065 308.376 73.8114 308.244L73.9666 308.048L74.0052 307.999C74.0168 307.982 74.0066 308.001 74.0365 307.955L74.0576 307.925L74.1421 307.802C74.2638 307.625 74.3753 307.443 74.4802 307.259C74.2288 309.171 73.6679 309.733 71.9507 311.284V311.284ZM38.6808 291.573C38.7857 291.381 38.9125 291.164 39.0596 290.954C39.2097 290.74 39.3875 290.521 39.5623 290.4L39.6257 290.36L39.724 290.315L39.9222 290.223C40.0614 290.158 40.1859 290.087 40.3069 290.012C40.5473 289.864 40.7578 289.703 40.9305 289.555C41.2765 289.258 41.4689 289.013 41.4689 289.013C41.4689 289.013 41.2285 289.186 40.8438 289.353C40.6522 289.436 40.4249 289.518 40.1808 289.577C40.0592 289.606 39.9302 289.632 39.8071 289.647L39.6097 289.668L39.5069 289.679L39.3729 289.707C39.0261 289.803 38.7609 290.003 38.5205 290.189C38.2983 290.368 38.1096 290.55 37.9472 290.716C36.4748 289.024 35.2581 287.546 35.9328 283.911C36.112 282.942 36.1841 282.045 36.1805 281.188C36.2089 281.138 36.2431 281.082 36.2737 281.03C36.6984 280.998 37.2397 280.93 37.9166 280.807C38.0717 281.614 38.3223 282.366 38.6924 283.027C38.7631 283.183 38.8491 283.338 38.9554 283.483C39.0385 283.594 39.1208 283.688 39.2017 283.778C39.319 283.921 39.4414 284.06 39.5754 284.19C39.6461 284.258 39.7226 284.322 39.7954 284.389C39.9004 284.496 40.0074 284.601 40.1211 284.708L40.1182 284.71C40.1182 284.71 40.2508 284.942 40.4395 285.312C40.626 285.679 40.8708 286.18 41.0536 286.696L41.1112 286.87C41.1301 286.944 41.1461 287.016 41.1476 287.053C41.1658 287.146 41.1549 287.283 41.1396 287.398C41.0988 287.64 41.0055 287.866 40.9123 288.049C40.7221 288.417 40.54 288.623 40.54 288.623C40.54 288.623 40.7564 288.483 41.0332 288.17C41.1687 288.011 41.3217 287.807 41.4376 287.527C41.4893 287.38 41.541 287.236 41.5534 287.038C41.5636 286.93 41.5599 286.856 41.5585 286.785C41.5519 286.665 41.5395 286.618 41.5308 286.531C41.4864 286.221 41.4266 285.922 41.3632 285.646C41.3676 285.648 41.372 285.652 41.3764 285.655C41.3866 285.66 41.3975 285.664 41.407 285.67C43.0527 286.794 44.9607 287.611 46.9059 287.995C46.8957 288.106 46.8833 288.221 46.8673 288.346C46.8149 288.728 46.7376 289.173 46.5839 289.603C46.5067 289.811 46.412 290.04 46.3012 290.202C46.192 290.383 46.0091 290.555 45.8707 290.829C45.7344 291.088 45.6587 291.368 45.6011 291.64C45.5436 291.914 45.513 292.184 45.4933 292.444C45.4547 292.962 45.4649 293.442 45.4838 293.851C45.4926 294.025 45.5042 294.184 45.5159 294.331C45.3221 294.295 45.1305 294.268 44.9447 294.257C43.9728 294.21 43.1584 294.479 42.5362 294.773C41.9089 295.067 41.4667 295.411 41.1702 295.65C41.0973 295.709 41.0332 295.764 40.9779 295.813C40.4271 293.892 39.5572 292.63 38.6808 291.573V291.573ZM33.7989 267.073C33.8557 266.776 34.0225 265.913 34.2564 264.809L34.2178 267.417L36.5578 261.568C37.2259 262.138 38.0513 262.76 39.0531 263.386C39.1099 264.789 39.1631 266.236 39.1747 267.681C39.1806 268.427 39.1704 269.169 39.1485 269.904C39.0137 270.14 38.9001 270.396 38.8323 270.685C38.6094 271.627 38.2845 272.99 38.0397 274.514C37.7912 273.973 37.5465 273.357 37.4219 272.711L37.3665 272.321C37.3527 272.193 37.3235 272.048 37.2886 271.903C37.2215 271.621 37.1312 271.376 37.0358 271.139C36.8391 270.672 36.6139 270.276 36.4099 269.951C35.9991 269.3 35.6756 268.927 35.6756 268.927C35.6756 268.927 35.9561 269.351 36.2861 270.051C36.4493 270.4 36.6241 270.819 36.7589 271.283C36.8223 271.514 36.8813 271.762 36.9097 272C36.9243 272.114 36.9367 272.232 36.9374 272.374L36.9498 272.79C37.0467 273.957 37.427 274.983 37.7024 275.745C37.7468 275.862 37.7898 275.97 37.8306 276.074C37.7825 276.529 37.7446 276.99 37.7228 277.451C37.6346 277.608 37.5406 277.749 37.4343 277.855C37.3935 277.897 37.3607 277.94 37.3206 277.983C36.6591 278.094 36.1856 278.14 35.8686 278.154C35.2829 275.043 34.0597 271.948 33.7989 267.073V267.073ZM82.5334 269.863C82.3491 270.663 82.1363 271.432 81.9353 272.177C81.7335 272.917 81.5382 273.634 81.3524 274.313C81.257 274.652 81.1929 274.988 81.1142 275.309C81.0384 275.632 80.967 275.945 80.9204 276.25C80.8126 276.858 80.7099 277.414 80.6632 277.916C80.6006 278.415 80.5474 278.854 80.5423 279.22C80.5022 279.951 80.4789 280.368 80.4789 280.368C80.4789 280.368 80.4687 279.95 80.4505 279.219C80.4316 278.853 80.4563 278.409 80.4877 277.897C80.5059 277.641 80.5088 277.365 80.5416 277.08C80.5787 276.796 80.6181 276.497 80.6589 276.185C80.6938 275.872 80.7543 275.551 80.8184 275.221C80.8847 274.891 80.9372 274.542 81.0202 274.197C81.1747 273.499 81.3422 272.767 81.5433 272.023C81.7334 271.275 81.9352 270.506 82.1057 269.719C82.2026 269.327 82.2711 268.927 82.344 268.526L82.454 267.923L82.5305 267.313C82.6594 266.529 82.6966 265.732 82.7505 264.949C82.8955 265.636 83.012 266.22 83.0907 266.62C83.0674 266.884 83.0397 267.146 82.9996 267.407L82.9122 268.034L82.792 268.649C82.7126 269.059 82.6361 269.468 82.5334 269.863V269.863ZM70.0492 300.93C69.9997 300.764 69.9472 300.612 69.8941 300.477C69.929 300.292 69.9443 300.111 69.9392 299.937C69.9327 299.65 69.8861 299.404 69.8423 299.197C69.7957 298.983 69.768 298.861 69.7338 298.654C69.7032 298.49 69.6617 298.341 69.6121 298.192C69.6121 298.192 69.6143 298.191 69.6136 298.191L69.6107 298.187C69.5903 298.128 69.5684 298.068 69.5436 298.007C69.5852 297.914 69.6311 297.821 69.6908 297.735C69.7316 297.667 69.7738 297.599 69.8161 297.528L69.9691 297.342C70.0624 297.214 70.1869 297.112 70.2984 297.006C70.5344 296.805 70.788 296.645 71.0408 296.532C71.1719 296.467 71.303 296.418 71.4291 296.379C71.4429 296.413 71.4553 296.443 71.4691 296.479C71.5959 296.81 71.7322 297.182 71.8465 297.575C71.9026 297.77 71.9529 297.978 71.9726 298.146C71.9813 298.251 71.9813 298.21 71.9711 298.284C71.9544 298.373 71.931 298.48 71.9026 298.598C71.6724 299.538 71.3096 300.632 70.9169 301.782C70.6874 302.402 70.4412 303.056 70.1651 303.692C70.184 303.587 70.2088 303.484 70.2219 303.378C70.3326 302.496 70.2467 301.602 70.0492 300.93V300.93ZM44.0158 297.625C44.0217 297.623 44.0238 297.622 44.0297 297.621C44.1717 297.581 44.3896 297.541 44.6555 297.508C44.7866 297.503 44.9352 297.48 45.0861 297.486C45.2412 297.482 45.403 297.489 45.5691 297.509C45.9049 297.539 46.2546 297.626 46.5948 297.769C46.7588 297.849 46.9365 297.92 47.0859 298.037C47.1653 298.09 47.244 298.143 47.3219 298.196C47.3926 298.262 47.4618 298.327 47.5303 298.391C47.6789 298.513 47.7947 298.664 47.9062 298.814C47.9608 298.885 48.014 298.954 48.0657 299.021C47.9543 299.173 47.8392 299.343 47.7219 299.546C47.3372 300.222 47.0203 301.165 46.9234 302.152C46.8899 302.463 46.8855 302.775 46.8943 303.085C46.5963 302.517 46.2859 302.05 45.9909 301.6C45.3199 300.591 44.6897 299.702 44.2956 298.907C44.2548 298.817 44.2147 298.728 44.1747 298.64C44.1557 298.598 44.1324 298.529 44.112 298.475C44.1047 298.463 44.0887 298.404 44.0763 298.371C44.0297 298.212 44.0064 298.041 44.0027 297.866C44.0013 297.786 44.0122 297.706 44.0158 297.625V297.625ZM66.9843 305.134C67.0273 305.083 67.0703 305.024 67.1111 304.956C67.2043 304.971 67.2779 304.979 67.2859 304.979C67.3355 304.983 67.3821 304.986 67.4251 304.986C67.4331 304.986 67.4367 304.983 67.4447 304.983C67.4484 305.071 67.452 305.162 67.4557 305.256C67.4615 305.438 67.468 305.622 67.4804 305.795C67.487 305.88 67.4899 306.032 67.4367 306.098C67.3573 306.199 67.1176 306.19 66.9151 306.175C66.9741 305.767 67.0047 305.422 66.9843 305.134V305.134ZM62.2991 307.158C62.3006 307.13 62.2976 307.105 62.2976 307.077C62.3494 307.083 62.4011 307.088 62.4535 307.088C62.4696 307.088 62.4863 307.087 62.5024 307.087C62.9351 307.07 63.2804 306.823 63.4502 306.407C63.4713 306.356 63.4881 306.311 63.507 306.264C63.5289 306.369 63.5471 306.5 63.558 306.671C63.6192 307.625 63.3409 308.647 63.0619 308.889C62.6503 309.246 62.455 309.097 62.3916 309.049C62.2802 308.963 62.1913 308.808 62.1191 308.626C62.2248 308.202 62.2729 307.73 62.2991 307.158V307.158ZM60.9149 308.121C60.9469 307.728 60.936 307.399 60.8879 307.122C61.0868 306.988 61.2158 306.75 61.3054 306.463C61.4198 306.653 61.5946 306.811 61.8022 306.921C61.8037 306.988 61.8081 307.05 61.8044 307.125C61.7687 307.9 61.7061 308.441 61.4941 308.911C61.4547 308.997 61.4103 309.082 61.36 309.166C61.3149 309.241 61.2602 309.28 61.1837 309.293C61.0504 309.317 60.8719 309.252 60.6905 309.148C60.8027 308.851 60.8828 308.509 60.9149 308.121V308.121ZM58.8072 307.109L58.8065 307.098C58.7883 306.946 58.7941 306.888 58.7876 306.883C58.7992 306.876 58.8174 306.869 58.84 306.863C58.8728 306.931 58.9056 307 58.9559 307.054C59.1518 307.262 59.452 307.322 59.7645 307.322C59.9838 307.322 60.2053 307.292 60.4064 307.263C60.4413 307.474 60.4479 307.74 60.4217 308.061C60.343 309.01 59.9605 309.635 59.4469 309.65C59.2444 309.652 58.9267 308.485 58.8072 307.109V307.109ZM56.7819 308.061C56.7491 307.665 56.7695 307.358 56.8293 307.132C56.8351 307.132 56.8395 307.136 56.8453 307.137L56.9706 307.158C57.2059 307.197 57.4828 307.244 57.7465 307.244C57.9512 307.244 58.1472 307.213 58.3111 307.132C58.3126 307.147 58.3133 307.163 58.3148 307.179C58.3242 307.283 58.3359 307.406 58.3504 307.536C58.2077 308.714 57.9264 309.65 57.7582 309.65C57.7574 309.65 57.7574 309.65 57.7567 309.65C57.2431 309.635 56.8606 309.01 56.7819 308.061ZM55.3992 307.125C55.3948 307.041 55.3999 306.971 55.4013 306.897C55.7204 306.809 56.006 306.613 56.1692 306.359C56.2231 306.545 56.2953 306.71 56.3914 306.842C56.2843 307.166 56.245 307.583 56.2894 308.121C56.3215 308.509 56.4016 308.851 56.5131 309.148C56.3331 309.252 56.1547 309.316 56.0199 309.293C55.9434 309.28 55.8887 309.241 55.8436 309.166C55.7933 309.082 55.7489 308.997 55.7102 308.911C55.4975 308.442 55.4356 307.901 55.3992 307.125V307.125ZM53.6456 306.671C53.6842 306.062 53.8168 305.919 53.8569 305.89C53.8656 305.883 53.8802 305.887 53.8904 305.882C53.9304 305.996 53.9749 306.116 54.0281 306.254C54.1811 306.648 54.5016 306.894 54.9081 306.937C54.9074 307.011 54.9008 307.08 54.9045 307.158C54.9307 307.73 54.9795 308.202 55.0844 308.626C55.013 308.808 54.9234 308.963 54.812 309.049C54.7479 309.098 54.5533 309.247 54.1417 308.889C53.862 308.647 53.5844 307.625 53.6456 306.671V306.671ZM52.1783 306.647C52.0588 306.427 51.9933 306.306 52.0304 305.794C52.0435 305.602 52.0763 305.45 52.1149 305.315C52.1528 305.301 52.1907 305.287 52.2257 305.263C52.3539 305.69 52.665 306.068 52.9141 306.108C52.928 306.11 52.9433 306.111 52.9593 306.111C53.0322 306.111 53.1218 306.089 53.2172 306.053C53.2209 306.061 53.2252 306.069 53.2289 306.077C53.1932 306.237 53.1648 306.413 53.1509 306.624C53.1254 307.026 53.1553 307.485 53.2318 307.92C53.1822 307.941 53.1334 307.962 53.0846 307.985C52.9469 308.051 52.7888 308.126 52.7247 308.087C52.6992 308.071 52.6118 307.99 52.5309 307.608C52.4224 307.094 52.2818 306.835 52.1783 306.647V306.647ZM50.7198 305.099C50.7693 305.123 50.824 305.138 50.8874 305.138C51.0447 305.138 51.232 305.076 51.3784 305.014C51.3798 305.018 51.3806 305.021 51.3813 305.025C51.4447 305.273 51.4971 305.492 51.5423 305.692C51.5401 305.709 51.5379 305.724 51.5365 305.741C51.4957 306.313 51.5678 306.583 51.6946 306.843C51.6866 306.876 51.6749 306.901 51.6581 306.912C51.4469 307.046 51.2837 307.173 51.1555 307.275C51.1103 307.311 51.0593 307.351 51.017 307.382C50.9733 307.227 50.9245 306.952 50.9027 306.83C50.7511 305.985 50.6746 305.427 50.7198 305.099ZM49.7669 306.098C49.7137 306.032 49.7166 305.88 49.7232 305.795C49.7355 305.622 49.7421 305.44 49.7479 305.258C49.7552 305.049 49.764 304.853 49.7785 304.686C49.8623 304.737 49.973 304.764 50.1231 304.764C50.1544 304.764 50.1872 304.763 50.2222 304.761C50.2237 304.761 50.2513 304.758 50.29 304.755C50.1799 305.105 50.2003 305.568 50.2885 306.175C50.086 306.19 49.847 306.198 49.7669 306.098ZM49.4099 303.486C49.407 303.709 49.4237 303.893 49.4558 304.057C49.2817 304.137 49.2146 304.145 49.1287 304.049C49.0791 303.994 49.0362 303.949 48.9997 303.911C48.8569 303.761 48.8314 303.734 48.7717 303.46C48.7025 303.139 48.6741 303.005 48.7455 302.776C48.8868 302.323 49.0238 302.169 49.1148 302.12C49.1418 302.105 49.1687 302.098 49.1972 302.098C49.2248 302.098 49.254 302.105 49.2846 302.12C49.4012 302.175 49.5257 302.259 49.6212 302.379C49.4245 302.696 49.4135 303.263 49.4099 303.486V303.486ZM53.9654 302.933C53.8612 303.208 53.8175 303.53 53.7796 303.838L53.7439 304.118C53.6674 304.673 53.6602 305.001 53.7374 305.363C53.4256 305.566 53.0613 305.752 52.9542 305.738C52.8019 305.713 52.4719 305.274 52.4719 304.89C52.4719 304.806 52.4668 304.684 52.461 304.536C52.4413 304.042 52.3954 302.882 52.6191 302.667C52.7721 302.518 53.0555 302.451 53.3192 302.451C53.5807 302.451 53.8226 302.518 53.902 302.637C53.9304 302.68 53.9516 302.787 53.9654 302.933ZM64.951 302.782C65.1688 303.007 65.0908 304.189 65.0581 304.693C65.0479 304.843 65.0406 304.969 65.0377 305.055C65.0275 305.448 64.6843 305.89 64.5321 305.911C64.4242 305.921 64.068 305.725 63.7635 305.51C63.8509 305.143 63.8531 304.81 63.7904 304.241L63.762 303.954C63.7321 303.637 63.6964 303.305 63.5973 303.02C63.6156 302.875 63.6403 302.768 63.6724 302.721C63.7176 302.656 63.8487 302.577 64.0826 302.553C64.4169 302.52 64.7921 302.617 64.951 302.782ZM67.5897 302.702L67.6349 302.717C67.683 302.733 67.8389 302.852 67.8294 303.699C67.825 304.129 67.7624 304.382 67.6152 304.572C67.5722 304.616 67.4221 304.615 67.2648 304.597C67.3194 304.406 67.3457 304.18 67.3158 303.913C67.2998 303.77 67.299 303.61 67.2983 303.449C67.2961 303.157 67.2903 302.86 67.2065 302.625C67.3216 302.615 67.4389 302.651 67.5897 302.702ZM68.4683 302.314C68.5412 302.356 68.684 302.5 68.8202 302.992C68.8858 303.23 68.853 303.365 68.7648 303.733C68.708 303.971 68.6811 303.998 68.5332 304.149C68.4953 304.187 68.4523 304.231 68.4013 304.286C68.3131 304.38 68.2512 304.372 68.0786 304.286C68.115 304.121 68.1368 303.933 68.139 303.705C68.1412 303.477 68.1463 302.898 67.9562 302.57C68.056 302.447 68.1842 302.364 68.3029 302.31C68.3649 302.283 68.4173 302.284 68.4683 302.314V302.314ZM66.8597 302.657C66.9836 302.784 66.9858 303.124 66.9879 303.452C66.9894 303.624 66.9909 303.801 67.0091 303.964C67.0666 304.481 66.8553 304.799 66.6769 304.968C66.6004 305.003 66.3221 304.9 66.156 304.82C66.188 304.728 66.2193 304.629 66.2492 304.513C66.4401 303.776 66.451 303.113 66.2995 302.668C66.3665 302.64 66.4386 302.617 66.518 302.601C66.679 302.571 66.7934 302.589 66.8597 302.657V302.657ZM65.8726 302.566C66.1363 302.81 66.1691 303.565 65.9534 304.4C65.8354 304.857 65.681 305.139 65.5403 305.154C65.4515 305.158 65.3757 305.072 65.3495 305.027C65.3524 304.948 65.3589 304.847 65.367 304.724C65.4231 303.869 65.4544 303.015 65.2336 302.615C65.5105 302.457 65.7334 302.437 65.8726 302.566V302.566ZM63.3227 304.015L63.3518 304.311C63.4458 305.173 63.3861 305.353 63.0539 306.168C62.9307 306.469 62.6779 306.541 62.4885 306.548C62.1403 306.555 61.7607 306.364 61.6376 306.107C61.5881 306.001 61.5553 305.681 61.5385 305.29C61.5451 305.248 61.5516 305.206 61.5589 305.165C61.6493 304.657 61.6259 304.326 61.6063 304.035C61.5924 303.836 61.5808 303.664 61.6063 303.453C61.6157 303.374 61.6157 303.299 61.6092 303.227C61.6594 302.974 61.7389 302.821 62.6044 302.846C63.1843 302.86 63.2418 303.158 63.3227 304.015V304.015ZM60.7349 303.087C60.9069 303.087 61.0438 303.118 61.1203 303.185C61.1444 303.206 61.1844 303.241 61.1684 303.373C61.1349 303.647 61.1502 303.867 61.1648 304.081C61.183 304.347 61.2027 304.622 61.1269 305.052C61.1043 305.175 61.0839 305.303 61.0642 305.43C60.9484 306.171 60.8508 306.659 60.5608 306.699L60.4326 306.718C60.0895 306.768 59.4491 306.862 59.2473 306.648C59.2203 306.619 59.1897 306.573 59.1883 306.468C59.1846 306.211 59.1205 305.897 59.0462 305.535C59.0214 305.418 58.9988 305.303 58.9777 305.193C59.0855 304.686 59.154 304.142 59.0214 303.71C59.0571 303.664 59.0987 303.625 59.1496 303.594C59.6545 303.281 60.3058 303.087 60.7349 303.087ZM58.4029 303.606C58.8065 303.866 58.6717 304.587 58.4539 305.504C58.3687 305.858 58.2965 306.163 58.2863 306.414C58.282 306.515 58.2506 306.56 58.2237 306.587C58.0161 306.796 57.3749 306.687 57.0311 306.63L56.9029 306.608C56.6144 306.562 56.5298 306.083 56.4337 305.357C56.4169 305.231 56.4002 305.106 56.3812 304.983C56.3164 304.562 56.3433 304.293 56.3681 304.033C56.3885 303.824 56.4096 303.609 56.3834 303.339C56.3725 303.222 56.4023 303.187 56.4351 303.16C56.5094 303.097 56.6355 303.069 56.795 303.069C57.2249 303.069 57.8915 303.278 58.4029 303.606V303.606ZM54.9664 302.786C55.8305 302.786 55.9077 302.935 55.9514 303.182C55.9426 303.252 55.9405 303.324 55.9485 303.402C55.9681 303.609 55.9521 303.776 55.9332 303.97C55.9055 304.256 55.8734 304.58 55.9507 305.082C55.9565 305.122 55.9616 305.162 55.9674 305.202C55.9405 305.584 55.8997 305.897 55.8472 305.999C55.7314 306.221 55.3503 306.437 54.9693 306.412C54.7835 306.397 54.538 306.319 54.4251 306.027C54.1148 305.224 54.0601 305.045 54.1767 304.206L54.2138 303.917C54.3122 303.112 54.3756 302.786 54.9664 302.786V302.786ZM52.3422 302.492C52.1128 302.878 52.1215 303.716 52.155 304.555C52.1594 304.675 52.163 304.772 52.1645 304.849C52.1346 304.895 52.0494 304.982 51.9641 304.97C51.8971 304.961 51.7252 304.87 51.5729 304.224C51.3813 303.407 51.433 302.672 51.6989 302.435C51.8709 302.283 52.1149 302.355 52.3422 302.492V302.492ZM50.9107 302.432C50.9551 302.432 51.0054 302.438 51.0608 302.449C51.1387 302.466 51.2094 302.49 51.2749 302.519C51.1139 302.951 51.1081 303.602 51.2786 304.327C51.3048 304.44 51.3332 304.538 51.3624 304.629C51.1941 304.702 50.9107 304.799 50.8436 304.767C50.6615 304.592 50.4597 304.277 50.5304 303.773C50.553 303.614 50.5588 303.441 50.5646 303.272C50.5748 302.952 50.5865 302.621 50.7125 302.498C50.7577 302.454 50.824 302.432 50.9107 302.432V302.432ZM49.9395 302.535L49.9854 302.521C50.1231 302.479 50.2331 302.446 50.3359 302.446C50.3475 302.446 50.3592 302.449 50.3708 302.45C50.2812 302.678 50.2681 302.97 50.2579 303.257C50.2528 303.414 50.2477 303.571 50.228 303.71C50.1916 303.971 50.2113 304.193 50.2601 304.382C50.102 304.396 49.9505 304.394 49.9082 304.35C49.7661 304.161 49.7108 303.913 49.7173 303.493C49.7304 302.663 49.8907 302.55 49.9395 302.535V302.535ZM68.2651 305.046C68.233 305.506 68.2228 305.612 67.9693 305.627C67.962 305.498 67.9547 305.365 67.9511 305.232C67.9452 305.059 67.9379 304.875 67.9241 304.697C67.9358 304.676 67.9511 304.657 67.962 304.635C68.0574 304.684 68.1609 304.73 68.2723 304.731C68.2738 304.835 68.2723 304.941 68.2651 305.046V305.046ZM48.9385 305.046C48.9218 304.808 48.932 304.57 48.9553 304.351C49.0573 304.45 49.1586 304.495 49.2569 304.495C49.2729 304.495 49.2875 304.488 49.3035 304.486C49.2715 304.729 49.2605 304.99 49.2525 305.234C49.2482 305.367 49.2416 305.498 49.2343 305.627C48.9822 305.611 48.9713 305.506 48.9385 305.046V305.046ZM64.6727 307.609C64.5918 307.99 64.5044 308.071 64.4789 308.087C64.4148 308.126 64.2567 308.051 64.119 307.985C64.0702 307.962 64.0206 307.941 63.9718 307.92C64.0483 307.485 64.0782 307.026 64.0527 306.624C64.0396 306.413 64.0104 306.237 63.9747 306.077C63.9747 306.076 63.9747 306.076 63.9747 306.076C64.1714 306.189 64.3834 306.288 64.5291 306.288C64.5423 306.288 64.5554 306.288 64.567 306.286C64.7754 306.257 65.0056 306.014 65.1622 305.714C65.1651 305.742 65.1717 305.764 65.1739 305.794C65.2103 306.306 65.144 306.427 65.0245 306.646C64.9218 306.835 64.7812 307.094 64.6727 307.609V307.609ZM66.3009 306.83C66.2798 306.952 66.2303 307.227 66.1873 307.382C66.1443 307.351 66.0933 307.311 66.0489 307.274C65.9199 307.173 65.7567 307.046 65.5454 306.912C65.5287 306.901 65.517 306.875 65.509 306.842C65.6358 306.582 65.7079 306.312 65.6671 305.741C65.6664 305.725 65.6635 305.709 65.662 305.692C65.6766 305.626 65.6919 305.56 65.7086 305.489C65.8084 305.437 65.9119 305.332 66.0117 305.152C66.1312 305.214 66.3177 305.299 66.4947 305.333C66.4925 305.67 66.4211 306.158 66.3009 306.83V306.83ZM69.4183 223.447C68.7342 223.176 67.9824 222.938 67.1897 222.695C66.792 222.577 66.3796 222.479 65.9607 222.376C65.5367 222.296 65.109 222.193 64.6683 222.123C63.7904 221.96 62.8754 221.869 61.9407 221.82C61.0067 221.755 60.0523 221.744 59.0863 221.751C58.1166 221.773 57.128 221.715 56.1823 221.694C55.236 221.675 54.3217 221.66 53.4416 221.727C53.0016 221.762 52.5695 221.805 52.1506 221.878C51.7288 221.932 51.3186 222.013 50.9194 222.102C50.1231 222.284 49.3764 222.521 48.6872 222.758C48.0024 223.01 47.378 223.27 46.8243 223.51C46.2736 223.768 45.7935 223.993 45.3986 224.178C44.6176 224.582 44.1594 224.8 44.1594 224.8C44.1594 224.8 44.5528 224.45 45.2624 223.861C45.6252 223.585 46.0645 223.239 46.589 222.887C46.8535 222.713 47.1354 222.53 47.4319 222.335C47.7394 222.163 48.0621 221.982 48.3994 221.793C48.7404 221.613 49.1039 221.445 49.4784 221.264C49.8623 221.116 50.2557 220.944 50.671 220.81C51.4964 220.512 52.3954 220.309 53.3294 220.178C54.2626 220.041 55.2331 219.99 56.1984 220.005C57.152 220.012 58.1217 220.019 59.0906 220.026C60.0669 220.038 61.0555 220.069 62.0295 220.157C63.0029 220.254 63.9609 220.417 64.8766 220.641C65.7953 220.846 66.6616 221.164 67.4731 221.478C68.284 221.799 69.0293 222.175 69.7032 222.545C70.3814 222.905 70.9752 223.304 71.5019 223.649C72.025 224.005 72.4665 224.348 72.8301 224.621C73.5367 225.204 73.9352 225.548 73.9352 225.548C73.9352 225.548 73.4821 225.324 72.6989 224.913C72.3048 224.724 71.8276 224.495 71.279 224.231C70.7268 223.983 70.1024 223.715 69.4183 223.447V223.447ZM48.1248 242.893C48.3615 244.27 48.7564 246.225 49.3902 248.492C49.7093 249.624 50.1064 250.827 50.5974 252.048C51.0877 253.268 51.7026 254.49 52.4581 255.618C53.2216 256.733 54.1599 257.73 55.2637 258.368C56.3586 259.019 57.6226 259.294 58.8633 259.145C59.5525 259.136 60.1186 258.935 60.7124 258.783L61.5837 258.383C61.733 258.328 61.8678 258.235 62.0026 258.141L62.4084 257.87C63.4618 257.101 64.4286 256.139 65.1644 254.979C65.917 253.844 66.553 252.637 67.044 251.416C67.1679 251.112 67.2903 250.812 67.4112 250.516C67.5161 250.21 67.6196 249.909 67.7208 249.613C67.9401 249.028 68.1019 248.438 68.2665 247.874C68.4428 247.316 68.5601 246.76 68.6927 246.238C68.8319 245.718 68.9382 245.215 69.0322 244.74C69.2413 243.797 69.363 242.957 69.4781 242.267C69.5866 241.576 69.6507 241.029 69.7046 240.656C69.7564 240.283 69.7833 240.084 69.7833 240.084C69.7833 240.084 69.7738 240.286 69.7564 240.662C69.7316 241.039 69.7301 241.597 69.6616 242.299C69.5917 243 69.5261 243.858 69.379 244.829C69.3163 245.317 69.2427 245.836 69.1371 246.376C69.0373 246.918 68.9382 247.49 68.7881 248.073C68.6483 248.66 68.5113 249.275 68.3153 249.891C68.2228 250.203 68.1281 250.518 68.0319 250.838C67.9175 251.151 67.8017 251.469 67.6844 251.791C67.4659 252.444 67.1613 253.072 66.8743 253.728C66.7344 254.059 66.5428 254.36 66.3738 254.681C66.1982 254.996 66.0321 255.325 65.8186 255.617C65.6147 255.92 65.4092 256.224 65.2023 256.53C64.9684 256.809 64.7324 257.091 64.4956 257.374C64.2698 257.672 63.9835 257.896 63.7197 258.152L63.3125 258.524C63.1733 258.642 63.0174 258.732 62.8695 258.837L62.42 259.143C62.2707 259.249 62.1206 259.351 61.9552 259.417C61.6318 259.569 61.3076 259.721 60.9834 259.873C60.6388 259.977 60.2869 260.067 59.9379 260.16L59.6749 260.229C59.5904 260.245 59.5095 260.246 59.4265 260.256L58.9318 260.3C57.5403 260.45 56.1022 260.127 54.8615 259.373C53.607 258.639 52.606 257.475 51.8075 256.258C51.0134 255.026 50.4218 253.701 49.9556 252.413C49.4842 251.125 49.1389 249.865 48.8708 248.69C48.3287 246.339 48.1 244.329 47.9434 242.931C47.8669 242.231 47.8319 241.676 47.8035 241.3C47.7787 240.923 47.7649 240.723 47.7649 240.723C47.7649 240.723 47.8843 241.517 48.1248 242.893V242.893ZM56.0352 272.072C53.2143 269.621 44.7393 266.906 40.7964 268.533C40.6828 268.112 40.6347 267.591 40.5772 267.026C40.5254 266.452 40.4635 265.814 40.3637 265.198C40.304 264.805 40.2369 264.421 40.1692 264.042C43.6829 265.986 48.9793 267.806 56.6479 268.06L56.693 268.103C55.7365 268.1 54.7908 268.109 53.8743 267.992C52.7 267.876 51.5554 267.808 50.4772 267.665C49.4019 267.482 48.3848 267.309 47.4458 267.151C46.9759 267.067 46.5227 267.002 46.0958 266.915C45.6718 266.809 45.2696 266.709 44.8915 266.616C44.1339 266.428 43.4738 266.264 42.9296 266.129C41.8397 265.859 41.2175 265.704 41.2175 265.704C41.2175 265.704 41.8251 265.929 42.8881 266.322C43.4213 266.518 44.0683 266.758 44.8107 267.032C45.1822 267.169 45.5778 267.315 45.9953 267.469C46.4156 267.605 46.8637 267.723 47.3277 267.861C48.2603 268.129 49.2707 268.419 50.3395 268.726C51.4155 268.996 52.5637 269.197 53.749 269.451C54.9322 269.739 56.1758 269.824 57.4361 269.993C57.627 270.023 57.8193 270.042 58.0117 270.063C57.2562 270.987 56.5779 271.633 56.0352 272.072V272.072ZM39.9098 267.664C39.8865 266.56 39.8384 265.462 39.7838 264.384C39.845 264.686 39.9069 264.993 39.9674 265.299C40.089 265.901 40.1706 266.499 40.2457 267.083C40.3163 267.649 40.4234 268.185 40.575 268.629C40.3389 268.742 40.1211 268.871 39.9244 269.02C39.9237 268.568 39.9193 268.116 39.9098 267.664V267.664ZM76.0196 268.736C76.0043 268.814 75.9868 268.901 75.9562 269.004C75.8804 269.304 75.7435 269.683 75.5569 270C75.3814 270.304 75.1737 270.552 75.0018 270.703C73.9236 269.596 71.9988 269.358 69.9392 269.473C70.7901 269.293 71.6207 269.117 72.4046 268.846C72.9539 268.669 73.4981 268.533 74.0103 268.332C74.5232 268.129 75.0193 267.935 75.495 267.748C75.6524 267.69 75.801 267.617 75.9503 267.548C75.9656 267.948 75.9875 268.344 76.0196 268.736V268.736ZM105.548 247.506C105.087 249.266 104.096 251.098 102.814 252.735C102.173 253.557 101.481 254.372 100.726 255.116C99.9788 255.873 99.1913 256.596 98.3862 257.284C97.5783 257.966 96.7507 258.61 95.9274 259.223C95.1071 259.841 94.2744 260.397 93.4708 260.935C92.6658 261.471 91.8746 261.958 91.1206 262.408C90.3717 262.869 89.6468 263.265 88.9816 263.637C88.3143 264.004 87.6994 264.33 87.1472 264.602C86.5971 264.876 86.1178 265.116 85.7222 265.313C84.9288 265.694 84.4698 265.898 84.4698 265.898C84.4698 265.898 86.1768 264.757 88.7376 263.045C89.3736 262.612 90.062 262.143 90.7898 261.646C91.5176 261.15 92.2731 260.605 93.0585 260.05C93.8417 259.491 94.6372 258.886 95.4437 258.274C96.2495 257.657 97.0567 257.013 97.842 256.335C98.6354 255.67 99.4113 254.977 100.143 254.25C100.877 253.528 101.581 252.792 102.213 252.025C102.845 251.257 103.427 250.479 103.902 249.678C104.377 248.877 104.765 248.069 105.036 247.278C105.299 246.486 105.47 245.718 105.519 245.019C105.564 244.323 105.549 243.699 105.465 243.198C105.391 242.697 105.312 242.299 105.236 242.039C105.165 241.774 105.127 241.633 105.127 241.633C105.127 241.633 105.181 241.766 105.284 242.015C105.337 242.139 105.401 242.295 105.457 242.486C105.519 242.675 105.597 242.892 105.645 243.148C105.779 243.652 105.854 244.294 105.873 245.038C105.89 245.784 105.785 246.632 105.548 247.506V247.506ZM11.3754 242.213C11.4227 242.08 11.4744 241.952 11.524 241.82C11.9473 241.159 12.4354 240.433 13.0036 239.652C14.2975 237.868 16.0074 235.829 18.2105 233.848C20.4092 231.872 23.1251 229.976 26.3139 228.61C27.908 227.927 29.6076 227.378 31.4057 226.999C33.1417 226.64 34.9631 226.294 36.8849 226.128C37.8488 226.05 38.8396 226.009 39.8836 226.102C40.9188 226.213 42.0524 226.405 43.1868 227.205C43.7463 227.601 44.2686 228.194 44.6336 228.872C45.0044 229.548 45.231 230.27 45.3826 230.955C45.6798 232.331 45.7505 233.609 45.8321 234.858C45.9057 236.107 45.9639 237.328 46.0601 238.542C46.1082 239.152 46.1628 239.752 46.232 240.362C46.2998 240.998 46.3705 241.584 46.4521 242.202C46.7748 244.652 47.2068 247.11 47.8129 249.506C48.4191 251.896 49.1906 254.241 50.2382 256.345C51.28 258.444 52.6315 260.288 54.2947 261.418C55.1245 261.982 56.0308 262.349 56.9728 262.521C57.4361 262.608 57.9417 262.642 58.3913 262.638L58.7956 262.624L58.9974 262.617L59.1686 262.594C59.3995 262.556 59.6196 262.555 59.8622 262.492C61.7782 262.136 63.5493 261.021 64.9947 259.41C66.4474 257.803 67.5883 255.76 68.4873 253.597C69.3906 251.428 70.0514 249.121 70.5512 246.801C71.0481 244.478 71.3846 242.137 71.5835 239.826L71.6629 238.938C71.6855 238.658 71.7292 238.317 71.7678 238.006C71.8531 237.388 71.9667 236.777 72.1081 236.176C72.3915 234.976 72.8016 233.821 73.3415 232.77C74.4161 230.658 76.064 229.058 77.8329 228.215C79.6047 227.348 81.4362 227.134 83.13 227.209C84.8326 227.284 86.423 227.67 87.883 228.177C88.6144 228.43 89.316 228.711 89.9877 229.01C90.6558 229.323 91.2976 229.644 91.9074 229.982C93.1343 230.643 94.238 231.362 95.2361 232.066C96.2371 232.762 97.1273 233.457 97.9171 234.107C99.4958 235.408 100.668 236.537 101.456 237.321C101.853 237.707 102.143 238.026 102.344 238.232C102.543 238.44 102.645 238.549 102.645 238.549C102.645 238.549 102.18 238.212 101.306 237.58C100.435 236.95 99.1527 236.037 97.4989 234.949C95.8393 233.875 93.803 232.627 91.3923 231.478C88.9845 230.369 86.1717 229.277 83.0791 229.158C81.5448 229.114 79.9398 229.343 78.4667 230.095C76.9929 230.832 75.6932 232.136 74.8248 233.888C74.3891 234.76 74.0547 235.733 73.823 236.765C73.7079 237.282 73.6154 237.811 73.5469 238.352C73.5178 238.621 73.4857 238.862 73.4639 239.169L73.3954 240.047C73.214 242.459 72.8905 244.913 72.3936 247.371C71.8931 249.827 71.2214 252.293 70.2649 254.67C69.3112 257.04 68.0771 259.349 66.3978 261.262C63.1027 265.181 57.5942 266.673 53.2194 263.815C51.0739 262.399 49.4755 260.153 48.285 257.8C47.0895 255.427 46.2502 252.89 45.5902 250.344C45.3847 249.548 45.2041 248.748 45.0336 247.949C44.8077 247.839 44.5528 247.731 44.2621 247.636C43.8067 247.473 43.2727 247.348 42.6826 247.25C41.5024 247.052 40.0912 247.008 38.5802 247.117C38.2021 247.132 37.8182 247.179 37.4299 247.223C37.2354 247.245 37.0401 247.266 36.8434 247.287C36.6664 247.307 36.4537 247.352 36.2591 247.383C35.5131 247.544 34.7307 247.837 33.9825 248.184C32.4773 248.885 31.0326 249.807 29.7162 250.74C28.399 251.675 27.2049 252.627 26.1974 253.471C24.1837 255.161 22.9124 256.411 22.9124 256.411C22.9124 256.411 24.1429 255.103 26.1063 253.316C27.0884 252.424 28.2555 251.413 29.5515 250.411C30.8476 249.41 32.2741 248.41 33.796 247.618C34.5617 247.225 35.3346 246.888 36.1652 246.668C36.3677 246.627 36.5484 246.578 36.7669 246.543C36.9665 246.512 37.1647 246.482 37.3614 246.452C37.7555 246.393 38.1446 246.328 38.5307 246.297C40.0708 246.123 41.5279 246.107 42.7795 246.264C43.4046 246.342 43.9787 246.453 44.4828 246.61C44.5855 246.639 44.6824 246.671 44.7786 246.703C44.5207 245.355 44.3021 244.008 44.1186 242.664C44.0311 242.03 43.9488 241.365 43.8803 240.751C43.8053 240.113 43.7426 239.465 43.6894 238.827C43.6844 238.763 43.6814 238.7 43.6756 238.636C43.5926 238.583 43.5015 238.531 43.4024 238.479C43.0214 238.27 42.5325 238.057 41.9453 237.9C41.7989 237.86 41.6474 237.819 41.4915 237.777C41.3319 237.749 41.1687 237.72 41.0004 237.689C40.6668 237.614 40.3054 237.6 39.9324 237.558C39.5579 237.523 39.1638 237.535 38.758 237.52C38.35 237.541 37.9282 237.564 37.4947 237.587C37.062 237.641 36.6169 237.697 36.1622 237.754C35.7091 237.839 35.2458 237.928 34.7751 238.017C33.8448 238.258 32.8518 238.454 31.9338 238.859C30.9962 239.254 30.0688 239.775 29.1632 240.345C27.3521 241.496 25.6262 242.854 24.046 244.189C22.468 245.531 21.0372 246.858 19.83 248.026C17.4164 250.363 15.8908 252.047 15.8908 252.047C15.8908 252.047 17.3748 250.31 19.7345 247.883C20.914 246.671 22.315 245.29 23.8668 243.886C25.4208 242.488 27.1233 241.059 28.933 239.825C29.8393 239.213 30.7718 238.647 31.7386 238.2C32.7192 237.73 33.6998 237.508 34.6484 237.228C35.1277 237.12 35.5998 237.014 36.0617 236.91C36.5287 236.835 36.9855 236.762 37.4299 236.69C37.8794 236.652 38.3158 236.614 38.7383 236.578C39.1638 236.578 39.574 236.552 39.9703 236.575C40.3659 236.605 40.7455 236.61 41.1061 236.676C41.2868 236.702 41.4631 236.728 41.6335 236.753C41.804 236.792 41.9694 236.831 42.1297 236.868C42.6884 236.999 43.1744 237.181 43.5853 237.375C43.5335 236.597 43.4869 235.827 43.4388 235.079C43.3594 233.875 43.2705 232.7 43.052 231.733C42.8247 230.747 42.4998 230.142 41.9439 229.752C41.3822 229.346 40.5546 229.149 39.7036 229.077C38.8454 229.005 37.9493 229.043 37.062 229.122C35.2793 229.293 33.5235 229.605 31.8158 229.962C30.1701 230.305 28.5935 230.81 27.1306 231.435C24.1968 232.686 21.6965 234.424 19.661 236.247C17.6211 238.073 16.0351 239.971 14.8133 241.617C13.5923 243.27 12.7421 244.681 12.1716 245.662C11.8788 246.171 11.6551 246.56 11.5036 246.824C11.4468 246.92 11.3936 247.005 11.336 247.094C10.829 245.315 10.8501 243.675 11.3754 242.213V242.213ZM46.4564 294.61C46.4069 294.4 46.342 294.095 46.2808 293.727C46.2204 293.358 46.1621 292.924 46.1439 292.464C46.1351 292.234 46.1351 291.998 46.1563 291.766C46.1767 291.536 46.2138 291.303 46.2889 291.107C46.3501 290.917 46.495 290.729 46.6138 290.48C46.7442 290.219 46.8061 289.973 46.868 289.723C46.981 289.228 47.0065 288.759 47.0152 288.362C47.0174 288.24 47.0159 288.127 47.0145 288.018C48.7549 288.346 50.5187 288.331 52.1404 287.867C52.9127 287.646 53.5837 287.119 54.1621 286.391C54.1534 286.484 54.1439 286.578 54.1381 286.669C54.1082 287.236 54.1483 287.752 54.1883 288.187C54.2342 288.618 54.2721 288.978 54.2991 289.23C54.3246 289.48 54.3297 289.625 54.3297 289.625C54.3297 289.625 54.3464 289.481 54.3588 289.228C54.3705 288.975 54.3865 288.613 54.4062 288.181C54.4309 287.752 54.4703 287.251 54.5745 286.749C54.6298 286.499 54.6932 286.246 54.785 286.01C54.8695 285.771 54.9824 285.549 55.1121 285.353C55.1719 285.243 55.2447 285.18 55.3059 285.095C55.3671 285.015 55.48 284.915 55.5638 284.827C55.5988 284.797 55.6308 284.768 55.6643 284.738C54.7967 286.393 55.1791 289.375 55.0225 290.996C54.8637 292.637 56.0935 295.147 56.7681 294.713C57.442 294.278 57.635 291.575 58.0343 290.899C58.4335 290.223 57.799 294.134 58.6717 294.327C59.0294 294.406 59.5205 294.344 59.9867 294.096C60.1681 294.04 60.367 293.963 60.5798 293.846C61.022 293.609 61.5247 293.155 61.8357 292.502C61.9946 292.177 62.1039 291.836 62.1731 291.459C62.2139 291.167 62.2634 290.815 62.2838 290.469C62.3326 289.786 62.2743 289.1 62.1796 288.505C62.0791 287.923 61.9858 287.379 61.9057 286.913C61.8307 286.449 61.7826 286.059 61.752 285.785C61.7236 285.509 61.7075 285.352 61.7075 285.352C61.7075 285.352 61.6973 285.511 61.6784 285.788C61.6624 286.064 61.6441 286.462 61.639 286.941C61.6398 287.416 61.6398 287.97 61.6405 288.563C61.6332 289.144 61.58 289.731 61.4409 290.291C61.4343 290.319 61.4256 290.346 61.419 290.373C61.4088 289.382 61.2813 288.985 61.3695 287.686C61.4882 285.927 61.1706 286.023 60.536 283.947C59.9015 281.871 59.2269 279.349 58.9493 280.61C58.6717 281.871 58.5493 286.506 58.2142 284.913C57.8784 283.319 58.2754 281.099 57.6401 280.665C57.2278 280.382 56.9779 280.816 56.7484 281.529C56.7426 281.539 56.7382 281.546 56.7324 281.556C56.6078 281.76 56.4373 282.041 56.2217 282.372C56.1343 282.506 56.0344 282.654 55.9332 282.802C56.8198 280.05 57.1651 276.812 57.085 274.692C58.1275 273.897 59.5503 272.532 61.0708 270.245C61.1415 270.248 61.2121 270.249 61.2828 270.253L62.2539 270.288C62.5774 270.299 62.9009 270.266 63.2243 270.256C63.8713 270.226 64.516 270.196 65.1557 270.166C65.6176 270.162 66.0736 270.094 66.5268 270.031C66.215 270.3 65.8624 270.57 65.4777 270.818C64.9524 271.163 64.3689 271.463 63.7722 271.716C63.4713 271.834 63.169 271.946 62.8674 272.039C62.5665 272.134 62.2641 272.203 61.972 272.266C61.3841 272.38 60.8267 272.436 60.3415 272.428C60.2497 272.429 60.163 272.425 60.0763 272.421C59.8694 272.642 59.6633 272.9 59.4753 273.212C59.2983 273.509 59.1402 273.854 59.0404 274.236C58.9406 274.609 58.9005 275.041 58.9253 275.398C58.9449 275.698 58.9763 276.061 59.0185 276.374C59.0593 276.693 59.1096 277.001 59.165 277.295C59.2735 277.885 59.3995 278.422 59.5168 278.877C59.7521 279.787 59.9525 280.368 59.9525 280.368C59.9525 280.368 59.8767 279.743 59.8352 278.806C59.817 278.399 59.809 277.928 59.8163 277.433C59.8898 277.737 59.9561 278.046 60.0654 278.32C60.1769 278.615 60.2629 278.923 60.3947 279.188C60.5171 279.458 60.6373 279.724 60.7532 279.98C60.8785 280.228 61.0089 280.459 61.1262 280.68C61.2471 280.899 61.352 281.111 61.4649 281.293C61.9137 282.02 62.2131 282.504 62.2131 282.504C62.2131 282.504 62.047 281.938 61.7964 281.088C61.7352 280.878 61.6871 280.641 61.6267 280.397C61.5888 280.231 61.5472 280.055 61.5072 279.88C62.4841 281.869 65.3007 283.865 68.166 284.283C73.9134 285.123 74.6915 283.247 76.3226 280.744C77.9538 278.241 75.9678 278.845 75.8972 273.148C75.8921 272.739 75.8374 272.376 75.7485 272.047C75.7529 272.039 75.7566 272.033 75.7617 272.024C75.8149 271.918 75.8855 271.772 75.9489 271.594C76.0647 271.287 76.1616 270.881 76.2112 270.468C76.5055 272.563 77.0067 274.473 77.5823 276.06C77.7804 276.614 77.9851 277.124 78.1899 277.601C78.1112 278.063 77.9961 278.682 77.8249 279.407C77.6362 280.205 77.3819 281.124 77.0235 282.036C76.8486 282.496 76.6374 282.942 76.4013 283.365C76.2869 283.567 76.1398 283.787 76.0298 283.947C75.8637 284.155 75.6932 284.378 75.5395 284.532C75.3887 284.705 75.216 284.879 75.0309 285.051C74.8554 285.227 74.6652 285.388 74.4794 285.552C74.105 285.876 73.7225 286.18 73.3451 286.464C72.5904 287.033 71.8604 287.528 71.228 287.938C69.9618 288.757 69.0861 289.238 69.0861 289.238C69.0861 289.238 70.0121 288.934 71.3803 288.367C72.0644 288.082 72.8585 287.733 73.7006 287.306C74.121 287.093 74.5538 286.86 74.9894 286.598C75.2065 286.465 75.4273 286.336 75.6436 286.183C75.86 286.041 76.0808 285.886 76.3073 285.7C76.5463 285.52 76.727 285.346 76.9193 285.172C77.1546 284.936 77.3309 284.729 77.5189 284.492C77.8453 284.065 78.1323 283.619 78.3844 283.171C78.2868 283.449 78.2001 283.747 78.0791 284.017C77.9618 284.311 77.8402 284.607 77.6966 284.878C77.6274 285.017 77.5582 285.156 77.4897 285.293C77.4133 285.422 77.3367 285.55 77.2617 285.676C77.1167 285.937 76.9557 286.167 76.7947 286.38C76.6395 286.602 76.4858 286.807 76.327 286.972C76.1718 287.143 76.0305 287.31 75.8986 287.446C75.7595 287.571 75.6378 287.68 75.538 287.77C75.334 287.952 75.2182 288.056 75.2182 288.056C75.2182 288.056 75.3544 288.001 75.5934 287.903C75.715 287.853 75.8622 287.792 76.0312 287.722C76.1959 287.641 76.3766 287.533 76.5791 287.42C76.786 287.314 76.9951 287.169 77.2136 287.005C77.4387 286.849 77.6711 286.673 77.8941 286.461C78.0092 286.359 78.1265 286.254 78.2445 286.148C78.356 286.031 78.4682 285.913 78.5818 285.794C78.8157 285.558 79.0306 285.294 79.244 285.022C79.4233 284.812 79.5777 284.581 79.7365 284.352C79.6659 284.616 79.5799 284.91 79.4568 285.22C79.3249 285.578 79.1486 285.943 78.9592 286.307C78.8565 286.484 78.7538 286.66 78.6525 286.834C78.541 287.001 78.431 287.166 78.3246 287.326C78.0966 287.63 77.8773 287.918 77.6712 288.142C77.4737 288.38 77.2887 288.549 77.1634 288.677C77.0366 288.804 76.9645 288.877 76.9645 288.877C76.9645 288.877 77.0512 288.836 77.2042 288.764C77.3564 288.69 77.5823 288.597 77.8365 288.442C78.0995 288.304 78.3924 288.109 78.7093 287.891C78.863 287.771 79.0219 287.647 79.1829 287.521C79.2455 287.465 79.3089 287.408 79.3715 287.352C79.2972 287.493 79.2207 287.636 79.1377 287.787C78.7406 288.502 78.2503 289.316 77.6704 290.09C77.175 290.749 76.6009 291.389 75.9941 291.802C75.9904 291.763 75.9875 291.724 75.981 291.682L75.9802 291.562V291.501L75.9795 291.485V291.483L75.9868 291.441V291.436V291.426L75.9882 291.385C76.0021 291.211 75.9802 290.809 75.9161 290.607C75.8586 290.367 75.7733 290.158 75.6874 289.964C75.5067 289.582 75.3027 289.274 75.1206 289.022C74.7526 288.524 74.4707 288.249 74.4707 288.249C74.4707 288.249 74.69 288.603 74.937 289.177C75.0586 289.464 75.1861 289.808 75.2706 290.178C75.3085 290.364 75.3413 290.553 75.3449 290.736C75.3464 290.827 75.3486 290.922 75.334 290.982C75.3333 291.032 75.3092 291.14 75.2823 291.25L75.2728 291.289L75.2706 291.299L75.2699 291.304C75.2728 291.287 75.2626 291.346 75.2757 291.267L75.275 291.27L75.2692 291.295L75.2459 291.395C75.2313 291.461 75.2145 291.529 75.2036 291.597C75.1905 291.726 75.1664 291.866 75.1679 291.993C75.1657 292.058 75.1694 292.121 75.1701 292.184C75.1657 292.185 75.1621 292.187 75.1584 292.187L75.0295 292.216L74.8423 292.231L74.5006 292.252C74.0365 292.267 73.5688 292.243 73.1069 292.196C72.1853 292.108 71.2826 291.928 70.4725 291.999C70.0689 292.037 69.6952 292.147 69.3979 292.328C69.0992 292.504 68.8814 292.732 68.7284 292.937C68.5761 293.143 68.4763 293.32 68.4137 293.442C68.3518 293.566 68.319 293.632 68.319 293.632C68.319 293.632 68.3627 293.576 68.4443 293.472C68.5259 293.369 68.6526 293.226 68.8268 293.073C69.0009 292.922 69.2318 292.773 69.5094 292.694C69.7862 292.609 70.1083 292.601 70.4587 292.66C71.1617 292.781 71.9711 293.164 72.8978 293.508C72.9036 293.511 72.9102 293.513 72.9153 293.515C72.6071 293.482 72.2909 293.454 71.9427 293.447C71.4334 293.44 70.7982 293.5 70.2153 293.917C69.6383 294.329 69.2384 294.938 68.8792 295.529C68.7095 295.809 68.5251 296.133 68.3561 296.461C68.2702 296.637 68.182 296.803 68.099 297.076C68.0625 297.213 68.0079 297.403 68.0472 297.697C68.056 297.755 68.0727 297.809 68.0895 297.863C67.927 298.075 67.7412 298.301 67.5409 298.52C66.9005 299.236 66.1261 299.804 66.1261 299.804C66.1261 299.804 67.0156 299.633 67.8884 299.235C68.1266 299.13 68.3605 299.011 68.5783 298.89C68.5783 298.892 68.5791 298.895 68.5791 298.897C68.5128 298.943 68.4414 298.991 68.3583 299.044C67.9744 299.291 67.4294 299.586 66.8575 299.83C66.2871 300.077 65.6911 300.266 65.2358 300.383C64.7812 300.503 64.4701 300.56 64.4701 300.56C64.4701 300.56 64.7747 300.649 65.2416 300.745C65.7094 300.845 66.3432 300.945 66.9901 300.977C67.2203 300.99 67.4498 300.993 67.6757 300.991C67.1912 301.117 66.6455 301.161 66.0744 301.167C65.3837 301.165 64.685 301.163 63.9806 301.16C63.8866 301.16 63.7911 301.165 63.6972 301.165C63.6891 301.141 63.6819 301.122 63.6738 301.096C63.6112 300.907 63.5412 300.685 63.4757 300.449C63.4414 300.33 63.4116 300.211 63.3832 300.09C63.3547 299.973 63.3351 299.864 63.3161 299.713C63.2943 299.553 63.2651 299.395 63.2338 299.259C63.2003 299.121 63.1675 298.985 63.1362 298.853C63.0692 298.594 63.0021 298.357 62.9424 298.155C62.82 297.755 62.7384 297.488 62.7384 297.488C62.7384 297.488 62.7318 297.771 62.7224 298.197C62.7151 298.409 62.7042 298.655 62.6874 298.917C62.6765 299.046 62.6655 299.179 62.6546 299.314C62.6415 299.452 62.6248 299.573 62.6022 299.692C62.5774 299.82 62.5512 299.991 62.5373 300.148C62.5228 300.302 62.5126 300.452 62.5067 300.593C62.4958 300.814 62.4922 301.016 62.49 301.202C62.2598 301.213 62.0295 301.222 61.7979 301.241C61.062 301.295 60.2971 301.415 59.629 301.51C58.942 301.598 58.2659 301.634 57.5993 301.574C56.9349 301.523 56.2537 301.368 55.5288 301.243C54.8083 301.115 54.0608 301.051 53.3403 301.042C53.2449 301.04 53.1524 301.045 53.0569 301.045C53.0628 300.949 53.0679 300.852 53.0693 300.748C53.07 300.608 53.0686 300.483 53.0598 300.316C53.0518 300.198 53.0314 299.992 53.0023 299.851C52.9739 299.699 52.9375 299.552 52.8981 299.409C52.7356 298.845 52.5674 298.327 52.4879 297.907C52.4063 297.49 52.3859 297.2 52.3859 297.2C52.3859 297.2 52.3459 297.486 52.3401 297.927C52.3306 298.366 52.3925 298.966 52.4318 299.524C52.4399 299.664 52.4442 299.799 52.4406 299.928C52.4377 300.069 52.4282 300.141 52.4093 300.293C52.3925 300.395 52.367 300.53 52.3437 300.634C52.3189 300.744 52.2934 300.846 52.2665 300.937C52.2534 300.982 52.241 301.016 52.2279 301.056C51.8986 301.066 51.5729 301.082 51.2523 301.098C50.9209 301.113 50.5923 301.127 50.2674 301.142C49.9585 301.148 49.6445 301.144 49.466 301.092C49.3727 301.066 49.3574 301.041 49.3553 301.048C49.3545 301.053 49.3283 301.016 49.3064 300.907C49.262 300.688 49.2649 300.331 49.2809 299.982C49.3159 299.277 49.3975 298.404 49.1775 297.543C49.0769 297.112 48.8839 296.727 48.6777 296.391C48.457 296.07 48.2166 295.797 47.9667 295.579C47.7219 295.355 47.456 295.178 47.1966 295.006C47.0786 294.94 46.962 294.875 46.8469 294.81L46.6553 294.707L46.4615 294.619C46.4608 294.619 46.4601 294.619 46.4586 294.619C46.4579 294.615 46.4571 294.613 46.4564 294.61V294.61ZM88.7208 225.69C82.8765 223.682 77.7608 223.416 76.5667 223.381C68.7575 218 63.0677 218 58.4889 218C53.91 218 48.2217 218.001 40.4132 223.38C39.2053 223.407 34.0262 223.638 28.1484 225.627C19.3186 228.614 13.2164 234.189 10.5026 241.749C7.8682 249.087 15.6752 258.526 31.9266 267.691C32.1502 271.07 32.7957 273.635 33.361 275.866C34.0692 278.658 34.5806 280.676 34.075 283.4C33.1483 288.393 35.1314 290.669 36.7239 292.498C38.1169 294.096 39.4319 295.605 39.6308 299.475C39.7102 301.024 39.7597 302.286 39.8042 303.4C40.0424 309.423 40.1939 310.301 43.3427 313.145C44.2417 313.956 45.1123 314.854 45.9537 315.723C48.0126 317.848 49.9563 319.855 52.2956 320.681C53.0955 320.964 53.8008 321.101 54.4506 321.101C55.6061 321.101 56.39 320.663 56.9626 320.342C57.4303 320.081 57.6875 319.936 58.2142 319.936C58.7402 319.936 58.9981 320.081 59.4658 320.342C60.0377 320.663 60.8216 321.101 61.9778 321.101C62.6277 321.101 63.3322 320.964 64.1328 320.681C66.4714 319.855 68.4159 317.848 70.474 315.723C71.3162 314.854 72.186 313.956 73.085 313.145C76.2338 310.301 76.3853 309.423 76.6235 303.4C76.668 302.286 76.7175 301.024 76.7976 299.475C76.8144 299.147 76.8421 298.841 76.8741 298.545C76.9025 298.335 76.928 298.138 76.9514 297.951C77.3783 295.174 78.5111 293.867 79.7038 292.498C81.2971 290.669 83.2794 288.393 82.3527 283.4C81.8471 280.676 82.3585 278.659 83.0667 275.866C83.6145 273.705 84.2374 271.231 84.4793 268.007C84.4946 268 84.5113 267.996 84.5259 267.988C97.5382 260.737 104.764 254.249 106.616 248.155C107.293 245.933 107.242 243.77 106.467 241.727C103.629 234.248 97.4923 228.702 88.7208 225.69" fill="#3F3F3F"/>
<path d="M39.0525 271.345C39.3153 270.364 39.9413 269.52 40.8035 268.983L40.9231 268.909L41.5161 268.54C42.0838 268.187 42.7389 268 43.4074 268V268C43.6988 268 43.9891 268.036 44.2719 268.106L47.5 268.909L50.8637 269.746C51.0568 269.794 51.2462 269.856 51.4301 269.933L55.3343 271.552C55.4702 271.608 55.6012 271.675 55.7261 271.753V271.753C56.5183 272.246 57 273.113 57 274.046V278L56.3795 282.632C56.3068 283.174 56.1233 283.697 55.8405 284.166L54.8622 285.788C54.3564 286.627 53.5601 287.252 52.6245 287.543L51.7341 287.82C51.3495 287.939 50.949 288 50.5462 288H48.1077C47.7049 288 47.3044 287.939 46.9198 287.82L44.5769 287.091L42.3846 286.182L40.4678 285.387C38.9739 284.767 38 283.309 38 281.692V275.799C38 275.45 38.0458 275.102 38.1363 274.764L39.0525 271.345Z" fill="#FFC700"/>
<path d="M54 304C54 303.448 54.4477 303 55 303V303C55.5523 303 56 303.448 56 304V305C56 305.552 55.5523 306 55 306V306C54.4477 306 54 305.552 54 305V304Z" fill="#FFC700"/>
</svg>
