<svg width="80" height="261" viewBox="0 0 80 261" fill="none" xmlns="http://www.w3.org/2000/svg">
<rect x="26.7583" y="21.6027" width="27" height="44" fill="#F1F2EE"/>
<path d="M5.7583 8.60272C5.7583 4.18444 9.34002 0.602722 13.7583 0.602722L65.7583 0.602722C70.1766 0.602722 73.7583 4.18444 73.7583 8.60272V13.6027C73.7583 18.021 70.1766 21.6027 65.7583 21.6027L13.7583 21.6027C9.34002 21.6027 5.7583 18.021 5.7583 13.6027L5.7583 8.60272Z" fill="#C8D4FF"/>
<path d="M0.758301 98.1027C0.758301 76.2875 18.4431 58.6027 40.2583 58.6027V58.6027C62.0735 58.6027 79.7583 76.2875 79.7583 98.1027L79.7583 260.603H0.758301L0.758301 98.1027Z" fill="#C8D4FF"/>
<circle cx="32.5" cy="32.5" r="31.5" transform="matrix(1 0 0 -1 8.7583 192.603)" fill="#C8D4FF" stroke="black" stroke-width="2"/>
<path d="M59.7316 135.209C60.1313 135.101 60.3674 134.689 60.2589 134.289L58.4902 127.775C58.3817 127.375 57.9697 127.139 57.5699 127.247C57.1702 127.356 56.9341 127.768 57.0427 128.168L58.6148 133.958L52.8244 135.53C52.4247 135.639 52.1886 136.051 52.2971 136.451C52.4057 136.85 52.8177 137.086 53.2174 136.978L59.7316 135.209ZM52.3855 131.254L59.1622 135.136L59.9079 133.835L53.1311 129.952L52.3855 131.254Z" fill="black"/>
<path d="M29.3746 173.795L38.9903 162.282" stroke="black"/>
<g clip-path="url(#clip0_507_58)">
<path d="M23.9903 173.623C23.9882 173.582 23.9699 173.547 23.942 173.522C23.9142 173.497 23.8768 173.482 23.8365 173.484C23.1731 173.518 22.5592 173.813 22.108 174.314C21.4888 175.002 21.2989 175.937 21.5998 176.817C21.7427 177.235 21.9918 177.61 22.3186 177.902C22.6667 178.213 23.0971 178.421 23.5638 178.506C23.5644 178.506 23.5648 178.506 23.5653 178.506C24.0319 178.59 24.5102 178.617 24.9895 178.586C25.0084 179.062 25.0849 179.536 25.2173 179.992C25.2176 179.993 25.2177 179.993 25.2179 179.994C25.3506 180.45 25.6033 180.857 25.9485 181.171C26.2723 181.466 26.6709 181.673 27.1031 181.772C27.182 181.79 27.2605 181.741 27.2785 181.662C27.2966 181.583 27.2473 181.505 27.1684 181.487C26.7854 181.399 26.4313 181.214 26.1458 180.954C25.8409 180.677 25.6175 180.317 25.4996 179.914C25.4994 179.913 25.4993 179.912 25.4991 179.912C25.3602 179.434 25.2861 178.935 25.2784 178.436C25.2786 178.433 25.2787 178.429 25.2786 178.426C25.2748 178.147 25.2917 177.87 25.3286 177.601C25.3286 177.601 25.3287 177.6 25.3287 177.6C25.3287 177.6 25.3287 177.6 25.3287 177.6C25.3291 177.597 25.3295 177.594 25.3299 177.591C25.418 176.959 25.3699 176.3 25.191 175.686C25.0605 175.238 24.7112 174.908 24.2566 174.804C23.8129 174.703 23.368 174.842 23.0665 175.177C22.765 175.512 22.6729 175.969 22.8203 176.4C22.9713 176.841 23.3354 177.154 23.7944 177.237C24.2139 177.312 24.6415 177.329 25.068 177.286C25.0613 177.375 25.0519 177.463 25.0398 177.55C25.0393 177.553 25.039 177.556 25.0385 177.56C25.0385 177.56 25.0384 177.56 25.0385 177.56C25.0384 177.56 25.0384 177.561 25.0383 177.561C25.0051 177.802 24.9874 178.047 24.985 178.292C24.5257 178.323 24.0673 178.299 23.6194 178.218C23.6187 178.218 23.6179 178.218 23.6173 178.218C23.6168 178.218 23.6164 178.217 23.6159 178.217L23.6159 178.217C23.6157 178.217 23.6155 178.217 23.6154 178.217C23.615 178.217 23.6147 178.217 23.6143 178.217C23.2014 178.142 22.8209 177.958 22.5137 177.684C22.5112 177.682 22.5089 177.679 22.5065 177.677C22.2202 177.419 22.0026 177.089 21.877 176.722C21.6109 175.944 21.7787 175.117 22.3257 174.51C22.7245 174.067 23.2663 173.807 23.8515 173.777C23.9322 173.773 23.9944 173.704 23.9903 173.623V173.623ZM23.8465 176.948C23.4935 176.885 23.2135 176.644 23.0975 176.305C22.985 175.976 23.0549 175.628 23.2843 175.373C23.5136 175.118 23.8527 175.012 24.1913 175.09C24.5409 175.17 24.8094 175.423 24.9097 175.768C25.0247 176.163 25.082 176.577 25.0799 176.99C24.6669 177.035 24.2526 177.022 23.8465 176.948V176.948Z" fill="black"/>
<path d="M30.1169 178.502C29.9752 178.088 29.7298 177.715 29.4073 177.425L29.3981 177.417C29.0497 177.106 28.6186 176.897 28.1514 176.813C28.1508 176.813 28.1499 176.813 28.1491 176.813C27.6832 176.729 27.2057 176.702 26.7272 176.733C26.7082 176.258 26.632 175.783 26.4997 175.328C26.4994 175.327 26.4991 175.326 26.4988 175.325C26.3661 174.869 26.1134 174.462 25.7679 174.148L25.759 174.14C25.4364 173.85 25.0403 173.644 24.6136 173.547C24.5348 173.529 24.4562 173.578 24.4381 173.657C24.4201 173.736 24.4694 173.814 24.5483 173.832C24.9264 173.919 25.2774 174.101 25.563 174.358L25.571 174.365C25.8761 174.642 26.0996 175.002 26.2169 175.405C26.2172 175.406 26.2175 175.407 26.2178 175.408C26.3566 175.885 26.4306 176.384 26.4383 176.883C26.4381 176.886 26.438 176.89 26.4381 176.893C26.4419 177.173 26.425 177.451 26.3879 177.72C26.3878 177.72 26.3878 177.72 26.3878 177.721C26.3878 177.721 26.3877 177.721 26.3877 177.722C26.3876 177.722 26.3874 177.723 26.3874 177.724C26.3874 177.724 26.3874 177.724 26.3874 177.724C26.3873 177.725 26.3872 177.725 26.3871 177.726C26.3871 177.726 26.3871 177.726 26.3871 177.726C26.3869 177.727 26.3869 177.728 26.3867 177.728C26.3867 177.729 26.3866 177.729 26.3865 177.73C26.2989 178.361 26.347 179.019 26.5258 179.633C26.5259 179.634 26.5261 179.634 26.5261 179.635C26.6568 180.082 27.0059 180.411 27.4602 180.515C27.9038 180.616 28.3487 180.477 28.6502 180.142C28.9517 179.807 29.0438 179.35 28.8965 178.92C28.7455 178.478 28.3816 178.165 27.9228 178.083C27.9222 178.082 27.9216 178.082 27.9211 178.082C27.5019 178.007 27.0747 177.99 26.6488 178.033C26.655 177.949 26.6639 177.865 26.675 177.782C26.6757 177.778 26.6763 177.773 26.6769 177.769C26.7111 177.524 26.7292 177.275 26.7317 177.027C27.1917 176.995 27.6509 177.02 28.0985 177.101C28.0991 177.101 28.0999 177.101 28.1008 177.102C28.5143 177.176 28.8954 177.361 29.2031 177.635L29.2112 177.643C29.4968 177.9 29.7142 178.23 29.8397 178.597C30.1058 179.375 29.9381 180.202 29.3911 180.809C28.9802 181.265 28.4213 181.526 27.8172 181.544C27.7363 181.547 27.6727 181.614 27.675 181.695C27.6774 181.776 27.7449 181.839 27.8258 181.837C28.5106 181.817 29.1439 181.521 29.6088 181.005C30.2279 180.318 30.4179 179.382 30.1169 178.502V178.502ZM27.8703 178.371C27.8706 178.371 27.871 178.371 27.8713 178.371C28.2237 178.435 28.5033 178.675 28.6192 179.014C28.7317 179.343 28.6618 179.691 28.4325 179.946C28.2031 180.201 27.8641 180.307 27.5254 180.229C27.3582 180.191 27.2095 180.113 27.089 180.004C26.9574 179.886 26.8593 179.731 26.8071 179.552C26.807 179.551 26.8068 179.551 26.8067 179.55C26.6918 179.155 26.6347 178.741 26.6369 178.329C27.0499 178.284 27.4641 178.297 27.8703 178.371Z" fill="black"/>
</g>
<circle cx="41.2583" cy="160.103" r="3.5" fill="black"/>
<line x1="41.2583" y1="140.603" x2="41.2583" y2="156.603" stroke="black"/>
<defs>
<clipPath id="clip0_507_58">
<rect width="10" height="10" fill="white" transform="translate(26.1897 184.726) rotate(-138)"/>
</clipPath>
</defs>
</svg>
