<svg width="205" height="103" viewBox="0 0 205 103" fill="none" xmlns="http://www.w3.org/2000/svg">
<mask id="mask0_505_129" style="mask-type:alpha" maskUnits="userSpaceOnUse" x="3" y="17" width="198" height="68">
<path d="M8.51713 64.28C10.5011 64.28 12.0371 64.888 13.1251 66.104C14.2131 67.32 14.7571 68.824 14.7571 70.616C14.7571 72.344 14.4691 73.752 13.8931 74.84C16.7091 77.144 19.9411 78.296 23.5891 78.296C27.3011 78.296 30.0851 77.464 31.9411 75.8C33.7971 74.072 34.7251 71.736 34.7251 68.792C34.7251 65.848 33.7011 63.32 31.6531 61.208C29.6051 59.096 27.1091 57.336 24.1651 55.928C21.2851 54.52 18.4051 53.048 15.5251 51.512C12.6451 49.912 10.1811 47.8 8.13313 45.176C6.08513 42.552 5.06113 39.448 5.06113 35.864C5.06113 30.936 6.69313 27.096 9.95713 24.344C13.2211 21.528 17.4131 20.12 22.5331 20.12C27.6531 20.12 32.0691 21.336 35.7811 23.768C39.5571 26.2 41.4451 29.496 41.4451 33.656C41.4451 37.752 39.7811 39.8 36.4531 39.8C34.4691 39.8 32.9331 39.192 31.8451 37.976C30.7571 36.76 30.2131 35.192 30.2131 33.272C30.2131 31.352 30.5971 29.88 31.3651 28.856C29.1251 26.808 26.3731 25.784 23.1091 25.784C19.8451 25.784 17.3811 26.616 15.7171 28.28C14.1171 29.944 13.3171 32.024 13.3171 34.52C13.3171 37.016 14.0531 39.16 15.5251 40.952C16.9971 42.68 18.8211 44.12 20.9971 45.272C23.1731 46.36 25.5411 47.64 28.1011 49.112C30.6611 50.52 33.0291 51.928 35.2051 53.336C37.3811 54.744 39.2051 56.664 40.6771 59.096C42.1491 61.464 42.8851 64.184 42.8851 67.256C42.8851 72.312 41.1251 76.44 37.6051 79.64C34.1491 82.84 29.7011 84.44 24.2611 84.44C18.8211 84.44 13.9891 83.192 9.76513 80.696C5.60513 78.136 3.52513 74.584 3.52513 70.04C3.52513 66.2 5.18913 64.28 8.51713 64.28ZM55.5061 60.728V47.576C55.5061 36.056 55.3461 28.216 55.0261 24.056L51.1861 23.768C50.9941 22.936 50.8981 21.976 50.8981 20.888C50.8981 19.736 50.9301 18.904 50.9941 18.392C56.8181 18.072 60.9781 17.784 63.4741 17.528L63.8581 18.008C62.9621 25.624 62.5141 33.816 62.5141 42.584V58.424C62.5141 66.296 62.8021 72.632 63.3781 77.432L66.9301 77.72C67.0581 78.744 67.1221 79.64 67.1221 80.408C67.1221 81.112 67.0261 82.008 66.8341 83.096C64.5941 83.032 62.0021 83 59.0581 83C56.1141 83 53.5541 83.032 51.3781 83.096C51.1861 82.136 51.0901 81.304 51.0901 80.6C51.0901 79.832 51.1541 78.872 51.2821 77.72L54.6421 77.432C55.2181 71.416 55.5061 65.848 55.5061 60.728ZM77.1061 38.168C78.7061 38.232 80.6261 38.264 82.8661 38.264C85.1701 38.264 87.2181 38.232 89.0101 38.168C89.2021 39 89.2981 39.928 89.2981 40.952C89.2981 41.912 89.2341 42.776 89.1061 43.544L84.9781 43.832C83.8261 45.24 81.7781 47.608 78.8341 50.936C75.8901 54.264 73.7141 56.76 72.3061 58.424C78.5141 67.256 83.3141 73.592 86.7061 77.432L90.8341 77.72C90.9621 78.488 91.0261 79.384 91.0261 80.408C91.0261 81.368 90.9301 82.264 90.7381 83.096C88.4341 83.032 86.0021 83 83.4421 83C80.8821 83 78.7701 83.032 77.1061 83.096C76.8501 80.408 76.4981 78.52 76.0501 77.432C73.8101 73.016 69.8101 67.608 64.0501 61.208L64.3381 60.248C69.3941 54.104 73.2661 48.632 75.9541 43.832C76.4661 42.552 76.8501 40.664 77.1061 38.168ZM100.97 77.432C101.546 71.16 101.834 65.432 101.834 60.248C101.834 55 101.578 49.56 101.066 43.928L97.5144 43.64C97.3224 42.552 97.2264 41.528 97.2264 40.568C97.2264 39.544 97.2584 38.776 97.3224 38.264C101.034 38.136 105.002 37.848 109.226 37.4L109.706 37.88C109.13 41.656 108.842 47.992 108.842 56.888C108.842 65.784 109.13 72.632 109.706 77.432L113.258 77.72C113.386 78.744 113.45 79.64 113.45 80.408C113.45 81.112 113.354 82.008 113.162 83.096C110.922 83.032 108.33 83 105.386 83C102.442 83 99.8824 83.032 97.7064 83.096C97.5144 82.136 97.4184 81.144 97.4184 80.12C97.4184 79.096 97.4824 78.296 97.6104 77.72L100.97 77.432ZM110.666 24.152C110.666 28.12 108.618 30.104 104.522 30.104C101.322 30.104 99.7224 28.472 99.7224 25.208C99.7224 21.176 101.77 19.16 105.866 19.16C109.066 19.16 110.666 20.824 110.666 24.152ZM126.381 60.728V47.576C126.381 36.056 126.221 28.216 125.901 24.056L122.061 23.768C121.869 22.936 121.773 21.976 121.773 20.888C121.773 19.736 121.805 18.904 121.869 18.392C127.693 18.072 131.853 17.784 134.349 17.528L134.733 18.008C133.837 25.624 133.389 33.816 133.389 42.584V58.424C133.389 66.296 133.677 72.632 134.253 77.432L137.805 77.72C137.933 78.744 137.997 79.64 137.997 80.408C137.997 81.112 137.901 82.008 137.709 83.096C135.469 83.032 132.877 83 129.933 83C126.989 83 124.429 83.032 122.253 83.096C122.061 82.136 121.965 81.304 121.965 80.6C121.965 79.832 122.029 78.872 122.157 77.72L125.517 77.432C126.093 71.416 126.381 65.848 126.381 60.728ZM150.569 60.728V47.576C150.569 36.056 150.409 28.216 150.089 24.056L146.249 23.768C146.057 22.936 145.961 21.976 145.961 20.888C145.961 19.736 145.993 18.904 146.057 18.392C151.881 18.072 156.041 17.784 158.537 17.528L158.921 18.008C158.025 25.624 157.577 33.816 157.577 42.584V58.424C157.577 66.296 157.865 72.632 158.441 77.432L161.993 77.72C162.121 78.744 162.185 79.64 162.185 80.408C162.185 81.112 162.089 82.008 161.897 83.096C159.657 83.032 157.065 83 154.121 83C151.177 83 148.617 83.032 146.441 83.096C146.249 82.136 146.153 81.304 146.153 80.6C146.153 79.832 146.217 78.872 146.345 77.72L149.705 77.432C150.281 71.416 150.569 65.848 150.569 60.728ZM185.124 37.112C189.604 37.112 193.156 38.168 195.78 40.28C198.468 42.392 199.812 45.144 199.812 48.536C199.812 51.864 198.308 53.528 195.3 53.528C193.508 53.528 192.1 52.984 191.076 51.896C190.116 50.744 189.636 49.4 189.636 47.864C189.636 46.328 189.892 45.048 190.404 44.024C188.868 42.808 187.044 42.2 184.932 42.2C182.82 42.2 181.06 42.712 179.652 43.736C178.308 44.76 177.636 46.264 177.636 48.248C177.636 50.232 178.404 51.96 179.94 53.432C181.54 54.904 183.46 56.12 185.7 57.08C187.94 57.976 190.18 58.936 192.42 59.96C194.66 60.92 196.548 62.328 198.084 64.184C199.684 65.976 200.484 68.216 200.484 70.904C200.484 75.064 199.076 78.36 196.26 80.792C193.508 83.224 189.732 84.44 184.932 84.44C180.132 84.44 176.196 83.416 173.124 81.368C170.116 79.32 168.612 76.632 168.612 73.304V72.92C168.612 69.464 170.116 67.736 173.124 67.736C174.916 67.736 176.292 68.312 177.252 69.464C178.276 70.552 178.788 71.832 178.788 73.304C178.788 74.776 178.628 75.928 178.308 76.76C179.588 77.592 181.604 78.008 184.356 78.008C187.172 78.008 189.284 77.528 190.692 76.568C192.164 75.608 192.9 74.296 192.9 72.632C192.9 70.904 192.1 69.368 190.5 68.024C188.964 66.68 187.076 65.56 184.836 64.664C182.596 63.704 180.356 62.712 178.116 61.688C175.876 60.6 173.956 59.064 172.356 57.08C170.82 55.096 170.052 52.728 170.052 49.976C170.052 46.008 171.428 42.872 174.18 40.568C176.996 38.264 180.644 37.112 185.124 37.112Z" fill="white"/>
</mask>
<g mask="url(#mask0_505_129)">
<path d="M8.51713 64.28C10.5011 64.28 12.0371 64.888 13.1251 66.104C14.2131 67.32 14.7571 68.824 14.7571 70.616C14.7571 72.344 14.4691 73.752 13.8931 74.84C16.7091 77.144 19.9411 78.296 23.5891 78.296C27.3011 78.296 30.0851 77.464 31.9411 75.8C33.7971 74.072 34.7251 71.736 34.7251 68.792C34.7251 65.848 33.7011 63.32 31.6531 61.208C29.6051 59.096 27.1091 57.336 24.1651 55.928C21.2851 54.52 18.4051 53.048 15.5251 51.512C12.6451 49.912 10.1811 47.8 8.13313 45.176C6.08513 42.552 5.06113 39.448 5.06113 35.864C5.06113 30.936 6.69313 27.096 9.95713 24.344C13.2211 21.528 17.4131 20.12 22.5331 20.12C27.6531 20.12 32.0691 21.336 35.7811 23.768C39.5571 26.2 41.4451 29.496 41.4451 33.656C41.4451 37.752 39.7811 39.8 36.4531 39.8C34.4691 39.8 32.9331 39.192 31.8451 37.976C30.7571 36.76 30.2131 35.192 30.2131 33.272C30.2131 31.352 30.5971 29.88 31.3651 28.856C29.1251 26.808 26.3731 25.784 23.1091 25.784C19.8451 25.784 17.3811 26.616 15.7171 28.28C14.1171 29.944 13.3171 32.024 13.3171 34.52C13.3171 37.016 14.0531 39.16 15.5251 40.952C16.9971 42.68 18.8211 44.12 20.9971 45.272C23.1731 46.36 25.5411 47.64 28.1011 49.112C30.6611 50.52 33.0291 51.928 35.2051 53.336C37.3811 54.744 39.2051 56.664 40.6771 59.096C42.1491 61.464 42.8851 64.184 42.8851 67.256C42.8851 72.312 41.1251 76.44 37.6051 79.64C34.1491 82.84 29.7011 84.44 24.2611 84.44C18.8211 84.44 13.9891 83.192 9.76513 80.696C5.60513 78.136 3.52513 74.584 3.52513 70.04C3.52513 66.2 5.18913 64.28 8.51713 64.28ZM55.5061 60.728V47.576C55.5061 36.056 55.3461 28.216 55.0261 24.056L51.1861 23.768C50.9941 22.936 50.8981 21.976 50.8981 20.888C50.8981 19.736 50.9301 18.904 50.9941 18.392C56.8181 18.072 60.9781 17.784 63.4741 17.528L63.8581 18.008C62.9621 25.624 62.5141 33.816 62.5141 42.584V58.424C62.5141 66.296 62.8021 72.632 63.3781 77.432L66.9301 77.72C67.0581 78.744 67.1221 79.64 67.1221 80.408C67.1221 81.112 67.0261 82.008 66.8341 83.096C64.5941 83.032 62.0021 83 59.0581 83C56.1141 83 53.5541 83.032 51.3781 83.096C51.1861 82.136 51.0901 81.304 51.0901 80.6C51.0901 79.832 51.1541 78.872 51.2821 77.72L54.6421 77.432C55.2181 71.416 55.5061 65.848 55.5061 60.728ZM77.1061 38.168C78.7061 38.232 80.6261 38.264 82.8661 38.264C85.1701 38.264 87.2181 38.232 89.0101 38.168C89.2021 39 89.2981 39.928 89.2981 40.952C89.2981 41.912 89.2341 42.776 89.1061 43.544L84.9781 43.832C83.8261 45.24 81.7781 47.608 78.8341 50.936C75.8901 54.264 73.7141 56.76 72.3061 58.424C78.5141 67.256 83.3141 73.592 86.7061 77.432L90.8341 77.72C90.9621 78.488 91.0261 79.384 91.0261 80.408C91.0261 81.368 90.9301 82.264 90.7381 83.096C88.4341 83.032 86.0021 83 83.4421 83C80.8821 83 78.7701 83.032 77.1061 83.096C76.8501 80.408 76.4981 78.52 76.0501 77.432C73.8101 73.016 69.8101 67.608 64.0501 61.208L64.3381 60.248C69.3941 54.104 73.2661 48.632 75.9541 43.832C76.4661 42.552 76.8501 40.664 77.1061 38.168ZM100.97 77.432C101.546 71.16 101.834 65.432 101.834 60.248C101.834 55 101.578 49.56 101.066 43.928L97.5144 43.64C97.3224 42.552 97.2264 41.528 97.2264 40.568C97.2264 39.544 97.2584 38.776 97.3224 38.264C101.034 38.136 105.002 37.848 109.226 37.4L109.706 37.88C109.13 41.656 108.842 47.992 108.842 56.888C108.842 65.784 109.13 72.632 109.706 77.432L113.258 77.72C113.386 78.744 113.45 79.64 113.45 80.408C113.45 81.112 113.354 82.008 113.162 83.096C110.922 83.032 108.33 83 105.386 83C102.442 83 99.8824 83.032 97.7064 83.096C97.5144 82.136 97.4184 81.144 97.4184 80.12C97.4184 79.096 97.4824 78.296 97.6104 77.72L100.97 77.432ZM110.666 24.152C110.666 28.12 108.618 30.104 104.522 30.104C101.322 30.104 99.7224 28.472 99.7224 25.208C99.7224 21.176 101.77 19.16 105.866 19.16C109.066 19.16 110.666 20.824 110.666 24.152ZM126.381 60.728V47.576C126.381 36.056 126.221 28.216 125.901 24.056L122.061 23.768C121.869 22.936 121.773 21.976 121.773 20.888C121.773 19.736 121.805 18.904 121.869 18.392C127.693 18.072 131.853 17.784 134.349 17.528L134.733 18.008C133.837 25.624 133.389 33.816 133.389 42.584V58.424C133.389 66.296 133.677 72.632 134.253 77.432L137.805 77.72C137.933 78.744 137.997 79.64 137.997 80.408C137.997 81.112 137.901 82.008 137.709 83.096C135.469 83.032 132.877 83 129.933 83C126.989 83 124.429 83.032 122.253 83.096C122.061 82.136 121.965 81.304 121.965 80.6C121.965 79.832 122.029 78.872 122.157 77.72L125.517 77.432C126.093 71.416 126.381 65.848 126.381 60.728ZM150.569 60.728V47.576C150.569 36.056 150.409 28.216 150.089 24.056L146.249 23.768C146.057 22.936 145.961 21.976 145.961 20.888C145.961 19.736 145.993 18.904 146.057 18.392C151.881 18.072 156.041 17.784 158.537 17.528L158.921 18.008C158.025 25.624 157.577 33.816 157.577 42.584V58.424C157.577 66.296 157.865 72.632 158.441 77.432L161.993 77.72C162.121 78.744 162.185 79.64 162.185 80.408C162.185 81.112 162.089 82.008 161.897 83.096C159.657 83.032 157.065 83 154.121 83C151.177 83 148.617 83.032 146.441 83.096C146.249 82.136 146.153 81.304 146.153 80.6C146.153 79.832 146.217 78.872 146.345 77.72L149.705 77.432C150.281 71.416 150.569 65.848 150.569 60.728ZM185.124 37.112C189.604 37.112 193.156 38.168 195.78 40.28C198.468 42.392 199.812 45.144 199.812 48.536C199.812 51.864 198.308 53.528 195.3 53.528C193.508 53.528 192.1 52.984 191.076 51.896C190.116 50.744 189.636 49.4 189.636 47.864C189.636 46.328 189.892 45.048 190.404 44.024C188.868 42.808 187.044 42.2 184.932 42.2C182.82 42.2 181.06 42.712 179.652 43.736C178.308 44.76 177.636 46.264 177.636 48.248C177.636 50.232 178.404 51.96 179.94 53.432C181.54 54.904 183.46 56.12 185.7 57.08C187.94 57.976 190.18 58.936 192.42 59.96C194.66 60.92 196.548 62.328 198.084 64.184C199.684 65.976 200.484 68.216 200.484 70.904C200.484 75.064 199.076 78.36 196.26 80.792C193.508 83.224 189.732 84.44 184.932 84.44C180.132 84.44 176.196 83.416 173.124 81.368C170.116 79.32 168.612 76.632 168.612 73.304V72.92C168.612 69.464 170.116 67.736 173.124 67.736C174.916 67.736 176.292 68.312 177.252 69.464C178.276 70.552 178.788 71.832 178.788 73.304C178.788 74.776 178.628 75.928 178.308 76.76C179.588 77.592 181.604 78.008 184.356 78.008C187.172 78.008 189.284 77.528 190.692 76.568C192.164 75.608 192.9 74.296 192.9 72.632C192.9 70.904 192.1 69.368 190.5 68.024C188.964 66.68 187.076 65.56 184.836 64.664C182.596 63.704 180.356 62.712 178.116 61.688C175.876 60.6 173.956 59.064 172.356 57.08C170.82 55.096 170.052 52.728 170.052 49.976C170.052 46.008 171.428 42.872 174.18 40.568C176.996 38.264 180.644 37.112 185.124 37.112Z" fill="#CCCCCC"/>
<ellipse cx="190.369" cy="27.5279" rx="48.762" ry="55.7677" transform="rotate(-40 190.369 27.5279)" fill="#B43F9B"/>
<ellipse cx="104.358" cy="49.177" rx="47.771" ry="39.7016" transform="rotate(-40 104.358 49.177)" fill="#0047FF"/>
<ellipse cx="144.092" cy="-27.6596" rx="42.9532" ry="52.8477" transform="rotate(-40 144.092 -27.6596)" fill="#DADADA"/>
<ellipse cx="90.0309" cy="118.864" rx="43.0814" ry="54.7683" transform="rotate(-40 90.0309 118.864)" fill="#F1F1F1"/>
<ellipse cx="16.1684" cy="57.8094" rx="61.293" ry="47.6971" transform="rotate(-40 16.1684 57.8094)" fill="#FFC700"/>
</g>
</svg>
