<svg width="40" height="40" viewBox="0 0 40 40" fill="none" xmlns="http://www.w3.org/2000/svg">
<path d="M13.7544 22.0315L24.3888 15.6252L16.8819 23.4377L23.4663 28.6096C24.6456 29.1284 25.075 28.0477 25.075 28.0477L28.0906 12.7346C28.0906 12.7346 28.1419 12.344 28.1188 12.2659C27.9038 11.5359 26.7269 12.0634 26.7269 12.0634L9.50376 18.8677C9.50376 18.8677 8.68876 19.1484 8.75313 19.6665C8.81751 20.1852 9.48251 20.4221 9.48251 20.4221L13.7556 22.0315" fill="url(#paint0_linear_507_106)"/>
<path d="M28.7179 12.0894C28.5742 11.5994 28.181 11.2963 27.6385 11.2581C27.5292 11.25 26.9142 11.275 26.4992 11.4863L26.4973 11.4819L9.30041 18.2769C8.74728 18.4669 8.13728 18.9163 8.12478 19.5813C8.12353 19.6338 8.12666 19.6881 8.13353 19.7438C8.24166 20.6188 9.16728 20.9738 9.26291 21.0069L13.2485 22.5081C13.5548 23.4925 14.566 26.7419 14.7835 27.4369C14.9298 27.9019 15.171 28.505 15.6129 28.67C15.7404 28.7225 15.876 28.75 16.0173 28.75C16.401 28.75 16.651 28.555 16.7442 28.4706L19.1835 26.0394L23.0804 29.1C23.121 29.1325 23.1667 29.16 23.2148 29.1806C23.5379 29.3231 23.8248 29.3744 24.0692 29.3744C24.3248 29.3744 24.5348 29.3188 24.6929 29.2538C25.3598 28.98 25.6267 28.3494 25.6554 28.2781C25.6692 28.2425 25.6804 28.2056 25.6879 28.1681L28.7098 12.8156C28.7792 12.2931 28.7417 12.17 28.7179 12.0894ZM14.4967 22.3131L20.6667 18.5963L16.4323 23.0044C16.3573 23.0819 16.3148 23.1788 16.2892 23.2806C16.2873 23.2881 15.6604 26.0494 15.6604 26.0494L14.4967 22.3131ZM27.4767 12.6175L24.4773 27.8488C24.4417 27.91 24.3523 28.0431 24.2192 28.0975C24.1073 28.1431 23.9617 28.1319 23.7854 28.0644L17.811 23.3725L24.8392 16.0575C25.0567 15.8319 25.0729 15.4794 24.8773 15.235C24.6823 14.9906 24.3354 14.9281 24.0667 15.09L13.691 21.34L9.69791 19.8363C9.57541 19.7894 9.44916 19.6981 9.39728 19.6344C9.46541 19.5744 9.60291 19.4963 9.73291 19.4494L26.9567 12.6438C26.9673 12.64 26.9773 12.635 26.9879 12.6306C27.1448 12.5619 27.3567 12.5106 27.4898 12.5025C27.4835 12.565 27.4767 12.6175 27.4767 12.6175Z" fill="url(#paint1_linear_507_106)"/>
<path d="M20 36.25C11.0394 36.25 3.75 28.96 3.75 20C3.75 11.04 11.0394 3.75 20 3.75C28.9606 3.75 36.25 11.04 36.25 20C36.25 28.96 28.9606 36.25 20 36.25ZM20 5C11.7294 5 5 11.7294 5 20C5 28.2706 11.7294 35 20 35C28.2706 35 35 28.2706 35 20C35 11.7294 28.2706 5 20 5Z" fill="url(#paint2_linear_507_106)"/>
<defs>
<linearGradient id="paint0_linear_507_106" x1="18.4375" y1="11.879" x2="18.4375" y2="28.7502" gradientUnits="userSpaceOnUse">
<stop stop-color="#6DC7FF"/>
<stop offset="1" stop-color="#E6ABFF"/>
</linearGradient>
<linearGradient id="paint1_linear_507_106" x1="18.4373" y1="3.64563" x2="18.4373" y2="36.4138" gradientUnits="userSpaceOnUse">
<stop stop-color="#1A6DFF"/>
<stop offset="1" stop-color="#C822FF"/>
</linearGradient>
<linearGradient id="paint2_linear_507_106" x1="20" y1="3.64563" x2="20" y2="36.4137" gradientUnits="userSpaceOnUse">
<stop stop-color="#1A6DFF"/>
<stop offset="1" stop-color="#C822FF"/>
</linearGradient>
</defs>
</svg>
