<svg width="90" height="283" viewBox="0 0 90 283" fill="none" xmlns="http://www.w3.org/2000/svg">
<rect x="33" y="21" width="24.9074" height="44" fill="#F1F2EE"/>
<path d="M14 8C14 3.58172 17.5817 0 22 0H68.7296C73.1479 0 76.7297 3.58172 76.7297 8V13C76.7297 17.4183 73.1479 21 68.7297 21H22C17.5817 21 14 17.4183 14 13V8Z" fill="#7588CC"/>
<path d="M0.569824 103.01C0.569824 78.3143 20.5895 58.2947 45.2849 58.2947V58.2947C69.9804 58.2947 90 78.3144 90 103.01V282.744H0.569824V103.01Z" fill="#7588CC"/>
<path d="M22.7884 183.589L22.9304 157.584H20.0911V190.673C23.9928 189.631 27.9082 188.968 31.8511 188.94C35.4918 188.916 39.1324 189.442 42.7823 190.72C40.5154 188.822 37.9876 187.425 35.2903 186.516C31.8923 185.37 28.2196 184.991 24.4553 185.322C23.6036 185.393 22.8617 184.74 22.7884 183.864C22.7793 183.769 22.7793 183.679 22.7884 183.589ZM64.4522 156.225C64.443 156.149 64.4339 156.069 64.4339 155.983C64.4339 155.903 64.4385 155.822 64.4522 155.742V150.476C60.8802 150.126 57.1983 150.533 53.9836 151.793C50.9795 152.972 48.3875 154.909 46.7023 157.683V187.676C49.3217 185.867 52.0007 184.38 54.7529 183.367C57.8898 182.211 61.1138 181.662 64.4522 181.937V156.225ZM67.5433 154.388H71.7289C72.5807 154.388 73.2722 155.103 73.2722 155.983V192.756C73.2722 193.637 72.5807 194.352 71.7289 194.352C71.5549 194.352 71.3855 194.324 71.2298 194.267C66.9251 192.993 62.6479 192.146 58.4119 192.117C54.2812 192.089 50.1552 192.842 46.0108 194.731C45.7543 194.906 45.4475 195.001 45.1315 194.996C44.8201 195.001 44.5133 194.906 44.2523 194.731C40.1124 192.837 35.9818 192.089 31.8511 192.117C27.6151 192.146 23.3425 192.993 19.0333 194.267C18.8776 194.324 18.7081 194.352 18.5341 194.352C17.6915 194.357 17 193.642 17 192.761V155.983C17 155.103 17.6915 154.388 18.5433 154.388H22.9441L22.9716 149.056C22.9762 148.289 23.4982 147.654 24.1989 147.503C28.2608 146.627 33.1975 146.845 37.5251 148.559C40.5154 149.743 43.231 151.632 45.2139 154.359C47.2152 151.817 49.8896 149.989 52.8983 148.81C57.0106 147.195 61.7549 146.807 66.2199 147.484C66.9892 147.598 67.5387 148.284 67.5387 149.061V154.388H67.5433ZM48.1997 190.479C51.6114 189.371 55.0185 188.916 58.4256 188.935C62.3685 188.959 66.284 189.627 70.1856 190.668V157.584H67.5433V183.731C67.5433 184.612 66.8518 185.327 66 185.327C65.8764 185.327 65.7573 185.313 65.6428 185.284C62.2632 184.735 58.9889 185.19 55.7925 186.369C53.2188 187.321 50.691 188.741 48.1997 190.479ZM43.6157 187.368V157.636C41.9992 154.686 39.3843 152.711 36.4306 151.542C33.083 150.216 29.3233 149.918 26.0444 150.401L25.8704 182.036C29.4469 181.904 32.9456 182.372 36.2382 183.485C38.8577 184.366 41.3397 185.658 43.6157 187.368Z" fill="black"/>
</svg>
